<svg width="37" height="37" viewBox="0 0 37 37" fill="none" xmlns="http://www.w3.org/2000/svg">
<circle cx="18.5" cy="18.5" r="18" stroke="#FBBA23"/>
<path d="M25.1187 28C23.1222 28 21.1458 27.55 19.1895 26.65C17.2333 25.75 15.4562 24.4667 13.8583 22.8C12.2605 21.1333 11.0306 19.2833 10.1687 17.25C9.30689 15.2167 8.87564 13.15 8.875 11.05V10H14.5292L15.4156 15.025L12.6844 17.9C13.0358 18.55 13.4271 19.1667 13.8583 19.75C14.2896 20.3333 14.7528 20.875 15.2479 21.375C15.7111 21.8583 16.2184 22.321 16.7697 22.763C17.3211 23.205 17.9159 23.6173 18.5542 24L21.3333 21.1L26.125 22.125V28H25.1187Z" fill="#FBBA23"/>
</svg>
