<svg width="493" height="67" viewBox="0 0 493 67" fill="none" xmlns="http://www.w3.org/2000/svg">
<path d="M48.6836 0H61.216L61.698 0.482014V67H49.1656L51.0937 64.5899V2.41007L48.6836 0Z" fill="white"/>
<path d="M0 0H16.3885L14.9424 1.44604V5.30216L24.1007 32.295L30.8489 52.0576L32.777 57.3597V60.7338L30.8489 67H26.0288L24.1007 62.1799L14.9424 35.187L8.19425 15.4245L3.85612 3.3741L1.44604 0.964029L0 0Z" fill="white"/>
<path d="M329.698 8.19385H349.942L350.906 8.67586V15.9061H349.942L348.496 12.05L346.568 10.6039L339.338 9.63989V20.2442L343.194 19.2802L344.64 13.978H345.604V27.4744H344.64L343.194 23.1363L342.23 22.1723L339.82 21.6903V31.3305L340.302 31.8126H345.604L349.46 29.8845L351.388 26.9924L351.87 25.5464H352.834L351.87 32.7766L351.388 33.7406H329.698V32.7766L332.59 31.8126V10.1219L329.698 9.15788V8.19385Z" fill="white"/>
<path d="M174.007 7.7124L180.274 8.19442L182.684 9.15845L185.094 8.67643L185.576 7.7124H186.54V16.8707H185.576L182.684 12.0505L179.792 10.1225L174.972 9.64046L171.597 11.0865L169.669 13.9786L168.705 18.3167V24.5829L170.151 29.403L172.561 31.8131L174.007 32.2951H180.274L179.792 24.5829L176.9 23.6189V23.1369H189.432L188.468 24.1009L187.022 24.5829L186.54 31.8131L183.648 33.2592L179.31 34.2232H173.043L167.741 32.2951L163.885 28.921L161.957 25.5469L161.475 23.1369V19.2807L163.403 13.9786L165.813 11.0865L169.669 8.67643L174.007 7.7124Z" fill="white"/>
<path d="M269.928 8.19385H279.086L284.388 14.942L290.654 22.6543L291.136 23.6183V12.05L290.654 10.1219L287.762 9.15788V8.19385H295.474L295.957 9.15788L293.546 10.1219L293.064 12.05L292.582 34.2226L290.172 32.2946L286.316 27.4744L280.05 19.7622L275.712 14.46V31.3305L276.676 32.2946L279.086 32.7766V33.7406H269.928V32.7766L272.82 31.8126L273.302 30.8485V11.0859L271.374 9.63989L269.928 9.15788V8.19385Z" fill="white"/>
<path d="M371.151 8.19385H392.36V15.4241H391.395L389.949 12.05L388.021 10.6039L380.791 9.63989V20.2442L385.129 18.7982L387.057 14.942H387.539V27.4744L386.575 26.9924L385.129 23.1363L383.683 22.1723L380.791 21.6903L381.273 31.8126L384.165 32.7766V33.7406H371.151V32.7766L374.043 31.8126V10.1219L371.151 9.15788V8.19385Z" fill="white"/>
<path d="M469.482 8.19385H492.137V15.4241L491.173 14.942L489.727 11.5679L488.763 10.6039L483.943 9.63989L484.425 31.8126L487.317 32.7766V33.7406H474.303V32.7766L477.195 31.8126L477.677 9.63989L472.375 11.0859L469.964 15.4241H469.482V8.19385Z" fill="white"/>
<path d="M453.575 7.7124L458.395 8.19442L461.77 9.15845L463.216 7.7124V16.3887L462.252 15.4246L460.323 11.5685L457.431 9.64046H454.057L452.129 10.6045L451.647 13.0146L452.611 14.9426L461.288 19.7628L464.662 23.6189L465.144 27.475L463.698 30.8491L460.805 33.2592L458.395 34.2232H454.539L451.165 33.2592H448.755L448.273 34.2232H447.309V24.5829L448.273 25.0649L450.201 29.403L453.093 31.8131L454.057 32.2951H458.395L460.323 30.3671L459.841 26.993L457.431 25.0649L451.165 21.6908L448.755 19.2807L447.309 16.8707V13.4966L448.755 10.6045L451.647 8.19442L453.575 7.7124Z" fill="white"/>
<path d="M211.123 8.19385H224.137V9.15788L221.245 10.1219V31.3305L222.209 31.8126H227.029L230.403 30.3665L232.813 26.5104L233.295 25.0644H234.259L233.295 33.7406H211.123V32.7766L214.015 31.8126V10.1219L211.123 9.15788V8.19385Z" fill="white"/>
<path d="M312.827 7.7124L318.129 8.19442L321.022 9.15845H322.95L323.432 7.7124H324.396V16.3887H323.432L321.504 12.5325L319.093 10.6045L318.129 10.1225H312.827L309.935 12.0505L308.007 15.9066L307.525 18.3167V23.6189L308.971 28.921L311.381 31.3311L312.827 31.8131H318.129L321.986 29.403L323.914 27.957V30.3671L319.575 33.2592L316.683 34.2232H311.381L306.561 32.7771L303.187 29.8851L300.777 25.5469L300.295 20.2448L301.259 16.3887L303.669 12.5325L307.043 9.64046L309.935 8.19442L312.827 7.7124Z" fill="white"/>
<path d="M112.791 8.19385H124.359V9.15788L121.949 9.63989L122.431 12.532L127.734 24.5823L128.216 25.0644L133.518 13.496L134 10.1219L131.108 9.15788L131.59 8.19385H139.302V9.15788L136.892 10.1219L135.928 12.532L127.252 31.3305L125.805 34.2226L124.359 32.7766L118.575 19.2802L114.719 10.6039L112.309 8.67586L112.791 8.19385Z" fill="white"/>
<path d="M144.123 8.19385H157.137V9.15788L154.245 10.1219V31.8126L157.137 32.7766V33.7406H144.123V32.7766L147.015 31.8126V10.1219L144.123 9.15788V8.19385Z" fill="white"/>
<path d="M397.662 8.19385H410.194V9.15788L407.302 9.63989V31.3305L407.784 32.2946L410.194 32.7766V33.7406H397.18V32.7766L400.554 32.2946V11.0859L399.59 9.63989L397.18 9.15788L397.662 8.19385Z" fill="white"/>
<path d="M193.288 8.19385H205.821L206.303 9.15788L202.928 9.63989V31.3305L203.41 32.2946L206.303 32.7766V33.7406H192.806V32.7766L196.18 32.2946V10.6039L195.216 9.63989L192.806 9.15788L193.288 8.19385Z" fill="white"/>
<path d="M283.907 48.6836H288.245L291.619 50.1296L293.547 52.5397L294.029 53.9858V59.2879L292.583 62.18L289.691 64.5901L288.245 65.0721H283.425L280.533 63.626L278.605 61.216L278.123 60.2519V53.9858L280.051 50.6117L283.907 48.6836ZM283.425 49.6476L281.015 52.0577L280.533 53.5037V59.7699L281.979 62.662L283.907 64.1081H288.245L290.173 63.144L291.619 59.7699V53.9858L290.173 51.0937L288.245 49.6476H283.425Z" fill="white"/>
<path d="M124.841 49.166H128.215L132.072 53.9862L136.892 60.2523V50.13L135.446 49.166H140.266L138.82 50.13L138.338 64.5905L136.41 63.6264L129.661 55.4322L128.215 53.5041L127.733 64.1085L129.179 64.5905H124.841L125.805 63.6264V50.13L124.841 49.166Z" fill="white"/>
<path d="M297.885 49.166H301.259L307.525 56.8782L309.935 60.2523V50.13L308.489 49.166H313.309L311.381 50.13V64.5905L309.453 63.6264L303.187 55.9142L301.259 53.5041L300.777 64.1085L302.223 64.5905H297.885L298.849 63.6264V50.13L297.885 49.166Z" fill="white"/>
<path fill-rule="evenodd" clip-rule="evenodd" d="M428.992 8.19385H415.496V9.15788L418.388 9.63989V32.2946L415.496 32.7766V33.7406H428.028V32.7766L425.618 32.2946L425.136 31.3305L424.654 22.1723L426.582 22.6543L428.51 25.5464L434.295 33.7406H442.489V32.7766L441.043 32.2946L438.633 29.4025L433.331 22.1723L435.741 20.7262L438.151 18.3162L438.633 14.46L437.187 11.0859L433.331 8.67586L428.992 8.19385ZM428.511 9.64023H424.655V20.7266H429.475L430.439 20.2445L432.367 17.8345V13.0143L430.921 11.0863L428.511 9.64023Z" fill="white"/>
<path d="M225.1 48.6836L230.402 49.1656L229.92 53.0217L228.956 52.5397L227.992 50.1296H224.136L221.726 51.5757L220.762 53.5037V59.7699L222.208 62.662L224.136 63.626L228.474 64.1081V58.8059L226.546 57.8419H231.849L231.367 58.8059H230.402V64.5901L228.956 65.0721H223.654L219.798 63.144L217.87 60.2519V54.4678L219.316 51.5757L221.726 49.6476L225.1 48.6836Z" fill="white"/>
<path d="M338.374 49.166H348.978L348.496 52.5401L347.532 51.5761V50.13H342.23V56.3962H346.086L347.05 54.4682V58.8063L345.122 57.3603L342.23 56.8782V63.6264L347.532 63.1444L348.978 60.7344H349.46V64.5905H338.374L339.82 64.1085V51.0941L338.374 49.166Z" fill="white"/>
<path d="M413.086 49.166H424.173L423.691 52.5401H422.727L422.245 50.6121L416.943 50.13V56.3962L420.799 55.9142L421.281 54.4682H422.245V58.8063H421.281L420.799 57.3603H417.425L416.943 63.6264H422.727L423.691 60.7344H424.173V64.5905H413.086L414.532 63.6264V50.13L413.086 49.166Z" fill="white"/>
<path d="M182.683 48.6836L187.503 49.1656L186.539 53.0217L185.093 50.1296H182.201L180.755 51.0937V53.9858L186.539 57.3599L187.985 59.2879L187.503 62.662L185.575 64.5901L183.647 65.0721H180.273L178.345 64.5901V60.734H179.309L179.791 63.626H184.129L185.575 63.144L185.093 59.7699L181.237 57.3599L178.827 55.9138L177.863 52.5397L179.309 50.1296L182.683 48.6836Z" fill="white"/>
<path d="M162.921 49.166H173.525L173.043 52.5401L172.079 51.5761V50.13H166.777V56.3962H170.633L171.597 54.4682V58.8063L170.151 57.3603L166.777 56.8782V63.6264L172.079 63.1444L173.525 60.7344H174.007V64.5905H162.921L164.367 63.6264V51.0941L162.921 49.166Z" fill="white"/>
<path d="M432.848 48.6836L437.669 49.1656L437.187 53.0217L436.222 52.0577V50.1296H432.366L430.92 51.5757L431.402 53.9858L435.258 56.3958L437.669 57.8419L438.151 58.8059V62.18L435.74 64.5901L430.92 65.0721L428.51 64.5901L428.992 60.2519L429.956 61.698L430.92 63.626H434.294L435.74 62.662L435.258 59.2879L429.956 56.3958L428.51 54.4678V51.5757L430.92 49.1656L432.848 48.6836Z" fill="white"/>
<path d="M329.216 48.6836L334.036 49.1656L333.554 53.0217L332.59 52.5397V50.1296H328.734L327.288 51.5757L327.77 53.9858L331.626 56.3958L334.036 57.8419L334.518 58.8059V62.18L332.108 64.5901L327.288 65.0721L324.877 64.5901L325.359 60.2519L326.323 61.698V63.626H330.662L332.108 62.662L331.626 59.2879L326.323 56.3958L324.877 54.4678V51.5757L327.288 49.1656L329.216 48.6836Z" fill="white"/>
<path d="M143.64 49.166H148.942L147.978 51.0941L151.352 60.2523L151.834 60.7344L155.69 51.0941V50.13L154.726 49.166H159.547L157.619 50.13L156.173 54.4682L151.834 64.5905H150.388L145.086 50.6121L143.64 49.166Z" fill="white"/>
<path d="M367.777 49.166H373.562L372.597 50.13L373.08 52.5401L375.972 60.7344L376.936 59.2883L380.31 50.6121L379.346 49.166H383.684L381.756 51.5761L376.454 64.5905L374.526 64.1085L369.705 51.0941L369.223 50.13L367.777 49.166Z" fill="white"/>
<path d="M403.928 48.6836L409.23 49.1656L408.266 53.0217L407.302 51.5757V50.1296H402.964L400.554 51.5757L399.108 54.9498L399.59 59.7699L401.036 62.18L402.964 63.144H409.23L407.784 64.5901L406.338 65.0721H402L399.108 63.626L397.18 61.216L396.216 56.8778L397.18 53.0217L399.59 50.1296L403.928 48.6836Z" fill="white"/>
<path d="M191.36 49.166H204.856L204.374 53.0221H203.41L202.928 50.13H199.072L199.554 63.6264L201 64.5905H194.734L196.662 62.6624V51.0941L197.144 50.13H192.806L191.842 53.0221H191.36V49.166Z" fill="white"/>
<path d="M251.611 49.166H265.108L264.626 53.0221H263.662L263.18 50.13H259.324L259.806 63.6264L261.252 64.5905H254.985L256.913 63.1444L257.396 50.13H253.057L252.093 53.0221H251.611V49.166Z" fill="white"/>
<path d="M450.201 49.166H455.503L454.539 50.13L454.057 63.6264L459.359 63.1444L460.805 60.7344H461.288L460.805 64.5905H450.201L451.165 63.6264V50.13L450.201 49.166Z" fill="white"/>
<path d="M464.662 49.166H470.446L469 50.13L468.518 63.6264H474.302L475.266 60.7344H475.748V64.5905H464.662L466.108 63.6264V50.13L464.662 49.166Z" fill="white"/>
<path d="M115.201 49.166H120.503L119.539 50.13V63.6264L120.503 64.5905H115.201L116.165 63.6264V50.13L115.201 49.166Z" fill="white"/>
<path d="M82.4248 0H94.4752V10.1223L90.619 4.33813L86.7629 1.92806L82.4248 0.482014V0Z" fill="white"/>
<path d="M268.964 49.166H274.266L273.302 50.13L272.82 64.1085L274.266 64.5905H268.964L269.928 63.6264V50.13L268.964 49.166Z" fill="white"/>
<path d="M208.712 49.166H214.015L213.051 50.13L212.569 64.1085L214.015 64.5905H208.712L209.676 63.6264V50.13L208.712 49.166Z" fill="white"/>
<path d="M83.3888 28.439H83.8708V39.0433L80.0147 36.1512L75.1946 34.2231L73.7485 33.2591L78.5687 31.8131L82.4248 29.403L83.3888 28.439Z" fill="white"/>
<path fill-rule="evenodd" clip-rule="evenodd" d="M488.28 49.166H479.604L481.532 50.13L481.05 63.6264L479.604 64.5905H485.388L483.942 63.6264V58.3243L488.28 57.8423L490.69 55.4322L491.172 52.0581L490.208 50.13L488.28 49.166ZM487.316 50.1302L483.46 49.6482V57.3604H486.352L488.762 54.9504V52.0583L487.316 50.1302Z" fill="white"/>
<path d="M387.058 49.166H392.842L391.396 50.13V63.6264L392.842 64.5905H387.058L388.504 63.6264V50.13L387.058 49.166Z" fill="white"/>
<path fill-rule="evenodd" clip-rule="evenodd" d="M253.54 9.64046L252.094 7.7124L251.612 8.19442L244.863 23.6189L241.007 31.3311L238.597 32.7772V33.7412H246.791V32.7772L243.899 32.2951L244.381 28.921L245.345 26.993L254.504 26.511L255.95 31.8131L253.058 32.7772V33.7412H265.59V32.7772L263.662 31.8131L259.806 24.1009L253.54 9.64046ZM250.647 17.8347L249.683 16.3886L245.827 25.0649H253.539V24.1008L250.647 17.8347Z" fill="white"/>
<path fill-rule="evenodd" clip-rule="evenodd" d="M362.475 49.166H353.316L354.762 50.13V63.6264L353.316 64.5905H359.101L357.655 63.6264L357.173 57.3603H359.101V58.3243L361.511 62.1804L363.439 64.5905H366.813L364.885 62.6624L361.511 57.3603L364.403 54.9502V50.6121L362.475 49.166ZM361.028 50.1302L357.654 49.6482L357.172 50.1302V56.3964H360.546L361.992 55.4324L362.474 52.0583L361.028 50.1302Z" fill="white"/>
<path fill-rule="evenodd" clip-rule="evenodd" d="M243.899 50.1296L242.935 48.6836L241.489 49.6476L237.633 59.2879L236.187 63.626L234.259 64.5901H239.079L237.633 64.1081L239.079 58.8059H244.863L245.827 63.144L244.863 64.5901H250.165L248.719 63.144L243.899 50.1296ZM242.935 53.5037L241.971 52.0577L241.489 52.5397L239.561 57.8419H244.381L242.935 53.5037Z" fill="white"/>
</svg>
