<svg width="316" height="43" viewBox="0 0 316 43" fill="none" xmlns="http://www.w3.org/2000/svg">
<path d="M31.2441 0H39.2873L39.5967 0.309353V43H31.5535L32.7909 41.4532V1.54676L31.2441 0Z" fill="#FB8500"/>
<path d="M0 0H10.518L9.58993 0.928058V3.40288L15.4676 20.7266L19.7986 33.4101L21.036 36.813V38.9784L19.7986 43H16.705L15.4676 39.9065L9.58993 22.5827L5.25899 9.89928L2.47482 2.16547L0.928058 0.618705L0 0Z" fill="#FB8500"/>
<path d="M211.597 5.25903H224.589L225.208 5.56839V10.2087H224.589L223.661 7.73385L222.424 6.8058L217.784 6.18709V12.9928L220.259 12.3741L221.187 8.97126H221.805V17.6331H221.187L220.259 14.849L219.64 14.2303L218.093 13.9209V20.108L218.402 20.4173H221.805L224.28 19.1799L225.518 17.3238L225.827 16.3957H226.446L225.827 21.036L225.518 21.6547H211.597V21.036L213.453 20.4173V6.49644L211.597 5.87774V5.25903Z" fill="#111F3E"/>
<path d="M111.676 4.94971L115.698 5.25906L117.244 5.87776L118.791 5.56841L119.1 4.94971H119.719V10.8274H119.1L117.244 7.73388L115.388 6.49647L112.295 6.18712L110.129 7.11517L108.892 8.97129L108.273 11.7555V15.777L109.201 18.8706L110.748 20.4173L111.676 20.7267H115.698L115.388 15.777L113.532 15.1583V14.849H121.575L120.957 15.4677L120.028 15.777L119.719 20.4173L117.863 21.3454L115.079 21.9641H111.057L107.654 20.7267L105.18 18.5612L103.942 16.3957L103.633 14.849V12.3742L104.87 8.97129L106.417 7.11517L108.892 5.56841L111.676 4.94971Z" fill="#111F3E"/>
<path d="M173.237 5.25903H179.115L182.518 9.58997L186.539 14.5396L186.849 15.1583V7.73385L186.539 6.49644L184.683 5.87774V5.25903H189.633L189.942 5.87774L188.396 6.49644L188.086 7.73385L187.777 21.9641L186.23 20.7267L183.755 17.6331L179.734 12.6835L176.95 9.28062V20.108L177.568 20.7267L179.115 21.036V21.6547H173.237V21.036L175.093 20.4173L175.403 19.7986V7.11515L174.165 6.18709L173.237 5.87774V5.25903Z" fill="#111F3E"/>
<path d="M238.201 5.25903H251.813V9.89932H251.194L250.266 7.73385L249.029 6.8058L244.388 6.18709V12.9928L247.172 12.0648L248.41 9.58997H248.719V17.6331L248.1 17.3238L247.172 14.849L246.244 14.2303L244.388 13.9209L244.698 20.4173L246.554 21.036V21.6547H238.201V21.036L240.057 20.4173V6.49644L238.201 5.87774V5.25903Z" fill="#111F3E"/>
<path d="M301.31 5.25903H315.849V9.89932L315.23 9.58997L314.302 7.4245L313.684 6.8058L310.59 6.18709L310.899 20.4173L312.756 21.036V21.6547H304.403V21.036L306.259 20.4173L306.569 6.18709L303.166 7.11515L301.619 9.89932H301.31V5.25903Z" fill="#111F3E"/>
<path d="M291.101 4.94971L294.194 5.25906L296.36 5.87776L297.288 4.94971V10.5181L296.669 9.89935L295.432 7.42453L293.576 6.18712H291.41L290.173 6.80582L289.863 8.35258L290.482 9.58999L296.05 12.6835L298.216 15.1583L298.525 17.6332L297.597 19.7986L295.741 21.3454L294.194 21.9641H291.719L289.554 21.3454H288.007L287.698 21.9641H287.079V15.777L287.698 16.0864L288.935 18.8706L290.791 20.4173L291.41 20.7267H294.194L295.432 19.4893L295.122 17.3238L293.576 16.0864L289.554 13.9209L288.007 12.3742L287.079 10.8274V8.66194L288.007 6.80582L289.863 5.25906L291.101 4.94971Z" fill="#111F3E"/>
<path d="M135.496 5.25903H143.849V5.87774L141.992 6.49644V20.108L142.611 20.4173H145.705L147.87 19.4893L149.417 17.0144L149.726 16.0864H150.345L149.726 21.6547H135.496V21.036L137.352 20.4173V6.49644L135.496 5.87774V5.25903Z" fill="#111F3E"/>
<path d="M200.77 4.94971L204.173 5.25906L206.029 5.87776H207.266L207.575 4.94971H208.194V10.5181H207.575L206.338 8.04323L204.791 6.80582L204.173 6.49647H200.77L198.914 7.73388L197.676 10.2087L197.367 11.7555V15.1583L198.295 18.5612L199.842 20.108L200.77 20.4173H204.173L206.647 18.8706L207.885 17.9425V19.4893L205.101 21.3454L203.245 21.9641H199.842L196.748 21.036L194.583 19.1799L193.036 16.3957L192.727 12.9929L193.345 10.5181L194.892 8.04323L197.057 6.18712L198.914 5.25906L200.77 4.94971Z" fill="#111F3E"/>
<path d="M72.3885 5.25903H79.8129V5.87774L78.2662 6.18709L78.5755 8.04321L81.9784 15.777L82.2877 16.0864L85.6906 8.66191L86 6.49644L84.1439 5.87774L84.4532 5.25903H89.4028V5.87774L87.8561 6.49644L87.2374 8.04321L81.669 20.108L80.741 21.9641L79.8129 21.036L76.1007 12.3741L73.6259 6.8058L72.0791 5.56839L72.3885 5.25903Z" fill="#111F3E"/>
<path d="M92.4961 5.25903H100.849V5.87774L98.9925 6.49644V20.4173L100.849 21.036V21.6547H92.4961V21.036L94.3522 20.4173V6.49644L92.4961 5.87774V5.25903Z" fill="#111F3E"/>
<path d="M255.216 5.25903H263.259V5.87774L261.403 6.18709V20.108L261.712 20.7267L263.259 21.036V21.6547H254.906V21.036L257.072 20.7267V7.11515L256.453 6.18709L254.906 5.87774L255.216 5.25903Z" fill="#111F3E"/>
<path d="M124.051 5.25903H132.094L132.403 5.87774L130.238 6.18709V20.108L130.547 20.7267L132.403 21.036V21.6547H123.741V21.036L125.907 20.7267V6.8058L125.288 6.18709L123.741 5.87774L124.051 5.25903Z" fill="#111F3E"/>
<path d="M182.208 31.2446H184.992L187.158 32.1727L188.395 33.7194L188.705 34.6475V38.0504L187.777 39.9065L185.921 41.4533L184.992 41.7626H181.899L180.043 40.8346L178.805 39.2878L178.496 38.6691V34.6475L179.734 32.482L182.208 31.2446ZM181.899 31.8633L180.352 33.4101L180.043 34.3382V38.3597L180.971 40.2159L182.208 41.1439H184.992L186.23 40.5252L187.158 38.3597V34.6475L186.23 32.7914L184.992 31.8633H181.899Z" fill="#FB8500"/>
<path d="M80.1221 31.554H82.2875L84.7624 34.6475L87.8559 38.6691V32.1727L86.9278 31.554H90.0214L89.0933 32.1727L88.7839 41.4532L87.5465 40.8345L83.2156 35.5755L82.2875 34.3381L81.9782 41.1439L82.9062 41.4532H80.1221L80.7408 40.8345V32.1727L80.1221 31.554Z" fill="#FB8500"/>
<path d="M191.18 31.554H193.345L197.367 36.5036L198.914 38.6691V32.1727L197.985 31.554H201.079L199.842 32.1727V41.4532L198.604 40.8345L194.583 35.8849L193.345 34.3381L193.036 41.1439L193.964 41.4532H191.18L191.798 40.8345V32.1727L191.18 31.554Z" fill="#FB8500"/>
<path fill-rule="evenodd" clip-rule="evenodd" d="M275.324 5.25903H266.662V5.87774L268.518 6.18709V20.7267L266.662 21.036V21.6547H274.705V21.036L273.159 20.7267L272.849 20.108L272.54 14.2303L273.777 14.5396L275.015 16.3957L278.727 21.6547H283.986V21.036L283.058 20.7267L281.511 18.8705L278.108 14.2303L279.655 13.3022L281.202 11.7554L281.511 9.28062L280.583 7.11515L278.108 5.56839L275.324 5.25903ZM275.015 6.18708H272.54V13.3022H275.633L276.252 12.9928L277.489 11.4461V8.35255L276.561 7.11514L275.015 6.18708Z" fill="#111F3E"/>
<path d="M144.467 31.2446L147.87 31.554L147.561 34.0288L146.942 33.7194L146.324 32.1727H143.849L142.302 33.1007L141.683 34.3382V38.3597L142.611 40.2159L143.849 40.8346L146.633 41.1439V37.741L145.395 37.1223H148.798L148.489 37.741H147.87V41.4533L146.942 41.7626H143.539L141.065 40.5252L139.827 38.6691V34.9569L140.755 33.1007L142.302 31.8633L144.467 31.2446Z" fill="#FB8500"/>
<path d="M217.165 31.554H223.971L223.661 33.7194L223.043 33.1007V32.1727H219.64V36.1942H222.115L222.733 34.9568V37.741L221.496 36.8129L219.64 36.5036V40.8345L223.043 40.5252L223.971 38.9784H224.28V41.4532H217.165L218.093 41.1439V32.7914L217.165 31.554Z" fill="#FB8500"/>
<path d="M265.115 31.554H272.23L271.921 33.7194H271.302L270.993 32.482L267.59 32.1727V36.1942L270.065 35.8849L270.374 34.9568H270.993V37.741H270.374L270.065 36.8129H267.899L267.59 40.8345H271.302L271.921 38.9784H272.23V41.4532H265.115L266.043 40.8345V32.1727L265.115 31.554Z" fill="#FB8500"/>
<path d="M117.245 31.2446L120.338 31.554L119.72 34.0288L118.792 32.1727H116.936L116.007 32.7914V34.6475L119.72 36.813L120.648 38.0504L120.338 40.2159L119.101 41.4533L117.864 41.7626H115.698L114.461 41.4533V38.9784H115.079L115.389 40.8346H118.173L119.101 40.5252L118.792 38.3597L116.317 36.813L114.77 35.8849L114.151 33.7194L115.079 32.1727L117.245 31.2446Z" fill="#FB8500"/>
<path d="M104.562 31.554H111.367L111.058 33.7194L110.439 33.1007V32.1727H107.036V36.1942H109.511L110.13 34.9568V37.741L109.202 36.8129L107.036 36.5036V40.8345L110.439 40.5252L111.367 38.9784H111.677V41.4532H104.562L105.49 40.8345V32.7914L104.562 31.554Z" fill="#FB8500"/>
<path d="M277.799 31.2446L280.892 31.554L280.583 34.0288L279.964 33.4101V32.1727H277.489L276.561 33.1007L276.871 34.6475L279.346 36.1943L280.892 37.1223L281.202 37.741V39.9065L279.655 41.4533L276.561 41.7626L275.015 41.4533L275.324 38.6691L275.943 39.5971L276.561 40.8346H278.727L279.655 40.2159L279.346 38.0504L275.943 36.1943L275.015 34.9569V33.1007L276.561 31.554L277.799 31.2446Z" fill="#FB8500"/>
<path d="M211.288 31.2446L214.382 31.554L214.072 34.0288L213.454 33.7194V32.1727H210.979L210.051 33.1007L210.36 34.6475L212.835 36.1943L214.382 37.1223L214.691 37.741V39.9065L213.144 41.4533L210.051 41.7626L208.504 41.4533L208.813 38.6691L209.432 39.5971V40.8346H212.216L213.144 40.2159L212.835 38.0504L209.432 36.1943L208.504 34.9569V33.1007L210.051 31.554L211.288 31.2446Z" fill="#FB8500"/>
<path d="M92.1875 31.554H95.5904L94.9717 32.7914L97.1371 38.6691L97.4465 38.9784L99.9213 32.7914V32.1727L99.3026 31.554H102.396L101.159 32.1727L100.231 34.9568L97.4465 41.4532H96.5184L93.1156 32.482L92.1875 31.554Z" fill="#FB8500"/>
<path d="M236.036 31.554H239.748L239.13 32.1727L239.439 33.7194L241.295 38.9784L241.914 38.0504L244.079 32.482L243.461 31.554H246.245L245.007 33.1007L241.604 41.4532L240.367 41.1439L237.274 32.7914L236.964 32.1727L236.036 31.554Z" fill="#FB8500"/>
<path d="M259.238 31.2446L262.641 31.554L262.022 34.0288L261.403 33.1007V32.1727H258.619L257.072 33.1007L256.144 35.2662L256.454 38.3597L257.382 39.9065L258.619 40.5252H262.641L261.713 41.4533L260.784 41.7626H258L256.144 40.8346L254.907 39.2878L254.288 36.5036L254.907 34.0288L256.454 32.1727L259.238 31.2446Z" fill="#FB8500"/>
<path d="M122.812 31.554H131.474L131.165 34.0288H130.546L130.237 32.1727H127.762L128.071 40.8345L129 41.4532H124.978L126.215 40.2158V32.7914L126.525 32.1727H123.741L123.122 34.0288H122.812V31.554Z" fill="#FB8500"/>
<path d="M161.482 31.554H170.144L169.835 34.0288H169.216L168.907 32.1727H166.432L166.741 40.8345L167.669 41.4532H163.648L164.885 40.5252L165.195 32.1727H162.41L161.792 34.0288H161.482V31.554Z" fill="#FB8500"/>
<path d="M288.936 31.554H292.338L291.72 32.1727L291.41 40.8345L294.813 40.5252L295.741 38.9784H296.051L295.741 41.4532H288.936L289.554 40.8345V32.1727L288.936 31.554Z" fill="#FB8500"/>
<path d="M298.216 31.554H301.928L301 32.1727L300.691 40.8345H304.403L305.022 38.9784H305.331V41.4532H298.216L299.144 40.8345V32.1727L298.216 31.554Z" fill="#FB8500"/>
<path d="M73.9355 31.554H77.3384L76.7197 32.1727V40.8345L77.3384 41.4532H73.9355L74.5543 40.8345V32.1727L73.9355 31.554Z" fill="#FB8500"/>
<path d="M52.8994 0H60.6332V6.4964L58.1584 2.78417L55.6836 1.23741L52.8994 0.309353V0Z" fill="#FB8500"/>
<path d="M172.619 31.554H176.022L175.403 32.1727L175.094 41.1439L176.022 41.4532H172.619L173.238 40.8345V32.1727L172.619 31.554Z" fill="#FB8500"/>
<path d="M133.949 31.554H137.352L136.733 32.1727L136.424 41.1439L137.352 41.4532H133.949L134.568 40.8345V32.1727L133.949 31.554Z" fill="#FB8500"/>
<path d="M53.5181 18.2518H53.8275V25.0576L51.3526 23.2015L48.2591 21.9641L47.3311 21.3454L50.4246 20.4173L52.8994 18.8705L53.5181 18.2518Z" fill="#FB8500"/>
<path fill-rule="evenodd" clip-rule="evenodd" d="M313.374 31.554H307.806L309.043 32.1727L308.734 40.8345L307.806 41.4532H311.518L310.59 40.8345V37.4317L313.374 37.1223L314.921 35.5755L315.23 33.4101L314.611 32.1727L313.374 31.554ZM312.755 32.1727L310.28 31.8633V36.8129H312.137L313.683 35.2662V33.4101L312.755 32.1727Z" fill="#FB8500"/>
<path d="M248.41 31.554H252.122L251.194 32.1727V40.8345L252.122 41.4532H248.41L249.338 40.8345V32.1727L248.41 31.554Z" fill="#FB8500"/>
<path fill-rule="evenodd" clip-rule="evenodd" d="M162.72 6.18712L161.792 4.94971L161.482 5.25906L157.151 15.1583L154.677 20.108L153.13 21.036V21.6547H158.389V21.036L156.533 20.7267L156.842 18.5612L157.461 17.3238L163.339 17.0145L164.267 20.4173L162.41 21.036V21.6547H170.454V21.036L169.216 20.4173L166.741 15.4677L162.72 6.18712ZM160.864 11.4461L160.245 10.5181L157.77 16.0864H162.72V15.4677L160.864 11.4461Z" fill="#111F3E"/>
<path fill-rule="evenodd" clip-rule="evenodd" d="M232.634 31.554H226.756L227.684 32.1727V40.8345L226.756 41.4532H230.468L229.54 40.8345L229.231 36.8129H230.468V37.4317L232.015 39.9065L233.252 41.4532H235.418L234.18 40.2158L232.015 36.8129L233.871 35.2662V32.482L232.634 31.554ZM231.706 32.1727L229.54 31.8633L229.231 32.1727V36.1942H231.396L232.324 35.5755L232.634 33.4101L231.706 32.1727Z" fill="#FB8500"/>
<path fill-rule="evenodd" clip-rule="evenodd" d="M156.533 32.1727L155.914 31.2446L154.986 31.8633L152.511 38.0504L151.583 40.8346L150.346 41.4533H153.439L152.511 41.1439L153.439 37.741H157.151L157.77 40.5252L157.151 41.4533H160.554L159.626 40.5252L156.533 32.1727ZM155.914 34.3382L155.295 33.4101L154.986 33.7194L153.749 37.1223H156.842L155.914 34.3382Z" fill="#FB8500"/>
</svg>
