<svg width="37" height="37" viewBox="0 0 37 37" fill="none" xmlns="http://www.w3.org/2000/svg">
<circle cx="18.5" cy="18.5" r="18" stroke="#FBBA23"/>
<path d="M16.115 28.811C16.721 29.311 17.353 29.768 18 30.214C18.6484 29.7739 19.2773 29.3058 19.885 28.811C20.898 27.9792 21.8513 27.0773 22.738 26.112C24.782 23.877 27 20.637 27 17C27 15.8181 26.7672 14.6478 26.3149 13.5558C25.8626 12.4639 25.1997 11.4718 24.364 10.636C23.5282 9.80031 22.5361 9.13738 21.4442 8.68508C20.3522 8.23279 19.1819 8 18 8C16.8181 8 15.6478 8.23279 14.5558 8.68508C13.4639 9.13738 12.4718 9.80031 11.636 10.636C10.8003 11.4718 10.1374 12.4639 9.68508 13.5558C9.23279 14.6478 9 15.8181 9 17C9 20.637 11.218 23.876 13.262 26.112C14.1486 27.0777 15.102 27.9789 16.115 28.811ZM18 20.25C17.138 20.25 16.3114 19.9076 15.7019 19.2981C15.0924 18.6886 14.75 17.862 14.75 17C14.75 16.138 15.0924 15.3114 15.7019 14.7019C16.3114 14.0924 17.138 13.75 18 13.75C18.862 13.75 19.6886 14.0924 20.2981 14.7019C20.9076 15.3114 21.25 16.138 21.25 17C21.25 17.862 20.9076 18.6886 20.2981 19.2981C19.6886 19.9076 18.862 20.25 18 20.25Z" fill="#FBBA23"/>
</svg>
