<svg width="673" height="563" viewBox="0 0 673 563" fill="none" xmlns="http://www.w3.org/2000/svg">
<path d="M581.016 272.853C561.16 289.245 541.311 300.769 529.73 295.681C529.046 295.38 528.398 295.027 527.785 294.618C521.04 290.12 517.843 278.59 520.352 257.017C527.03 199.602 561.786 187.703 593.567 167.981C624.956 148.524 609.547 113.883 609.146 113.003C660.973 189.48 614.674 245.054 581.016 272.853Z" fill="url(#paint0_linear_2052_602)"/>
<path d="M529.731 295.683C529.046 295.381 528.399 295.029 527.786 294.62C531.063 283.295 538.548 261.291 550.193 248.755C555.69 242.841 562.184 237.37 569.05 231.571C582.046 220.625 595.476 209.29 603.89 193.515L605.785 194.519C597.168 210.657 583.577 222.118 570.424 233.205C563.601 238.955 557.161 244.383 551.761 250.209C540.401 262.433 532.919 284.645 529.731 295.683Z" fill="url(#paint1_linear_2052_602)"/>
<path d="M154.075 192.608C133.233 219.715 153.785 302.592 156.942 314.71C157.204 315.678 157.342 316.199 157.342 316.199C157.342 316.199 155.749 315.279 153.003 313.554C134.973 302.13 67.5526 255.28 82.548 201.621C99.8358 139.823 64.247 151.971 39.0622 93.8248C13.8631 35.677 71.0938 0 71.0938 0C137.627 50.5186 176.583 163.338 154.075 192.608Z" fill="#609A3E"/>
<path d="M157.343 316.199C157.343 316.199 155.749 315.279 153.003 313.554C152.298 312.456 151.591 311.345 150.884 310.234C137.048 288.408 120.215 258.665 118.583 240.896C117.583 230.181 118.105 217.889 118.607 206.005C119.66 181.083 120.751 155.305 108.474 141.02C89.7033 119.226 89.0813 82.433 89.0732 80.87L91.8161 80.8379C91.8145 81.2146 92.4446 118.203 110.545 139.242C123.543 154.327 122.429 180.657 121.352 206.127C120.847 217.914 120.337 230.12 121.315 240.642C122.932 258.107 140.541 289.41 156.945 314.71C157.203 315.678 157.343 316.199 157.343 316.199Z" fill="url(#paint2_linear_2052_602)"/>
<path d="M158.843 260.45C151.34 289.964 167.253 307.829 172.42 312.695C173.365 313.594 173.96 314.046 173.96 314.046C172.67 314.101 171.107 314.003 169.311 313.748C146.938 310.616 89.2218 284.297 82.4407 246.584C75.1225 205.866 41.802 228.433 14.2655 194.516C-23.1509 148.441 24.8652 111.013 24.8652 111.013C14.5958 130.472 45.8883 178.185 85.3872 187.699C124.896 197.222 167.727 225.465 158.843 260.45Z" fill="#609A3E"/>
<path d="M119.728 257.96C124.319 272.26 128.642 285.757 140.529 291.658C150.908 296.818 162.338 304.816 172.42 312.695C173.366 313.594 173.961 314.047 173.961 314.047C172.67 314.101 171.107 314.003 169.312 313.748C159.717 306.332 149.037 298.942 139.301 294.109C126.393 287.698 121.892 273.66 117.123 258.799C111.714 241.95 106.119 224.51 87.6255 216.722C52.2995 201.862 34.2117 181.456 34.0273 181.252L36.0937 179.437C36.2605 179.641 53.9876 199.591 88.6899 214.202C108.347 222.473 114.141 240.512 119.728 257.96Z" fill="url(#paint3_linear_2052_602)"/>
<path d="M309.688 545.892H363.382V382.805H309.688V545.892Z" fill="#AEBECC"/>
<path d="M128.292 461.365H544.779C557.804 461.365 568.361 450.805 568.361 437.782V157.864C568.361 144.84 557.803 134.282 544.779 134.282H128.292C115.268 134.282 104.71 144.84 104.71 157.864V437.782C104.712 450.805 115.268 461.365 128.292 461.365Z" fill="#DEDEDE"/>
<path d="M122.867 410.109H550.201V99.4694H122.867V410.109Z" fill="url(#paint4_linear_2052_602)"/>
<path d="M122.867 136.99H550.201V99.4694H122.867V136.99Z" fill="url(#paint5_linear_2052_602)"/>
<path d="M321.578 433.561C321.578 441.82 328.274 448.518 336.533 448.518C344.793 448.518 351.49 441.82 351.49 433.561C351.49 425.302 344.794 418.605 336.533 418.605C328.274 418.605 321.578 425.302 321.578 433.561Z" fill="#949494"/>
<path d="M457.313 539.735H215.75V552.047H457.313V539.735Z" fill="#E3E3E3"/>
<path d="M196.568 125.317H145.81C142.995 125.317 140.714 123.035 140.714 120.219V116.236C140.714 113.421 142.995 111.14 145.81 111.14H196.568C199.383 111.14 201.664 113.421 201.664 116.236V120.219C201.664 123.035 199.383 125.317 196.568 125.317Z" fill="#F5F7FF"/>
<path d="M84.7996 281.163C59.8506 281.163 52.3368 273.031 52.3368 273.031C52.3368 273.031 44.8231 281.163 19.874 281.163C19.874 281.163 14.3513 318.378 52.3368 337.772C90.3207 318.378 84.7996 281.163 84.7996 281.163ZM52.3368 333.719C19.1061 316.752 23.9379 284.196 23.9379 284.196C45.7641 284.196 52.3368 277.082 52.3368 277.082C52.3368 277.082 58.9096 284.196 80.7358 284.196C80.7358 284.196 85.5659 316.752 52.3368 333.719Z" fill="url(#paint6_linear_2052_602)"/>
<path d="M50.4035 283.962V326.839C25.2476 313.993 28.9043 289.347 28.9043 289.347C45.4274 289.349 50.4035 283.962 50.4035 283.962Z" fill="url(#paint7_linear_2052_602)"/>
<path d="M668.272 292.92H628.092V284.376C628.092 273.298 637.104 264.286 648.182 264.286C659.259 264.286 668.27 273.298 668.27 284.376V292.92H668.272ZM631.813 289.201H664.551V284.376C664.551 275.349 657.207 268.006 648.182 268.006C639.155 268.006 631.813 275.349 631.813 284.376V289.201Z" fill="#FFCA55"/>
<path d="M666.149 288.975H630.209C626.436 288.975 623.377 292.034 623.377 295.808V331.749C623.377 335.521 626.436 338.582 630.209 338.582H666.149C669.923 338.582 672.982 335.523 672.982 331.749V295.808C672.982 292.034 669.923 288.975 666.149 288.975ZM650.104 314.873V326.799H646.26V314.873C643.222 314.032 640.989 311.254 640.989 307.95C640.989 303.977 644.209 300.756 648.182 300.756C652.154 300.756 655.373 303.977 655.373 307.95C655.373 311.254 653.14 314.032 650.104 314.873Z" fill="url(#paint8_linear_2052_602)"/>
<path d="M151.355 314.75H136.344V396.574H151.355V314.75Z" fill="#E0E0E0"/>
<path d="M184.498 290.965H169.486V396.574H184.498V290.965Z" fill="#E0E0E0"/>
<path d="M217.636 331.446H202.625V396.574H217.636V331.446Z" fill="#E0E0E0"/>
<path d="M250.779 299.884H235.768V396.574H250.779V299.884Z" fill="#E0E0E0"/>
<path d="M283.917 277.699H268.905V396.574H283.917V277.699Z" fill="#E0E0E0"/>
<path d="M317.055 319.782H302.044V396.574H317.055V319.782Z" fill="#E0E0E0"/>
<path d="M151.355 337.341H136.344V396.574H151.355V337.341Z" fill="#4AAFFF"/>
<path d="M184.498 320.122H169.486V396.574H184.498V320.122Z" fill="#4AAFFF"/>
<path d="M217.636 349.427H202.625V396.574H217.636V349.427Z" fill="#4AAFFF"/>
<path d="M250.779 326.579H235.768V396.574H250.779V326.579Z" fill="#4AAFFF"/>
<path d="M283.917 310.519H268.905V396.574H283.917V310.519Z" fill="#4AAFFF"/>
<path d="M317.055 340.985H302.044V396.576H317.055V340.985Z" fill="#4AAFFF"/>
<path d="M71.9292 441.731C71.9292 441.731 72.7997 443.158 72.9087 444.32C72.9952 445.24 73.7695 446.617 74.1046 447.376C74.4412 448.137 75.5185 451.576 75.557 452.472C75.573 452.837 74.7571 455.146 74.8725 455.883C74.9879 456.621 75.4095 458.083 74.7474 458.181C74.0853 458.278 73.3335 457.081 73.3335 457.081C73.3335 457.081 73.3976 457.761 72.8349 458.019C71.7448 458.524 71.1677 458.08 71.1677 458.08C71.1677 458.08 70.7669 458.827 70.2604 458.926C69.1478 459.149 68.6027 458.702 68.6027 458.702C68.6027 458.702 68.1122 459.122 67.3427 459.107C66.3584 459.086 65.9448 458.237 65.9448 458.237C65.9448 458.237 64.6992 458.49 64.3385 457.908C63.9762 457.328 64.0387 456.707 63.8896 456.18C63.7389 455.654 63.8528 450.896 65.4687 447.472C67.0846 444.046 65.0567 440.705 65.0567 440.705L71.9292 441.731Z" fill="#EEA886"/>
<path d="M73.5119 456.634C73.5119 456.634 73.6225 452.367 72.5003 451.456C71.3766 450.549 71.2499 452.09 71.2499 452.09C71.2499 452.09 71.4022 450.567 70.1742 450.361C68.9463 450.156 68.895 451.965 68.895 451.965C68.895 451.965 68.693 450.791 67.4041 451.032C66.1136 451.272 66.4214 452.771 66.4214 452.771C66.4214 452.771 65.1902 451.302 64.3903 452.713C63.042 455.095 64.3422 457.909 64.3422 457.909C64.3422 457.909 64.7221 458.553 65.9485 458.237C65.9485 458.237 66.7693 459.892 68.6048 458.702C68.6048 458.702 70.4852 459.738 71.1698 458.079C71.1698 458.079 73.2426 459.065 73.5119 456.634Z" fill="#DB9C7C"/>
<path d="M86.4155 380.251C86.4155 380.251 79.1086 404.602 76.6398 413.586C75.8655 416.403 73.9915 443.306 73.6612 444.39C73.331 445.473 64.0635 446.956 64.0635 446.956C64.0635 446.956 65.1856 413.301 65.2915 411.465C65.3957 409.629 75.5176 372.045 78.4609 370.705C80.6668 369.699 81.8307 370.531 84.6088 372.595C88.5076 375.488 86.4155 380.251 86.4155 380.251Z" fill="#323657"/>
<path d="M125.454 386.775L127.343 386.077C127.343 386.077 124.988 380.552 123.962 380.686C122.777 380.842 121.301 381.231 121.301 381.231L125.454 386.775Z" fill="#EAD8CF"/>
<path d="M125.881 387.728C125.639 387.549 121.869 380.312 121.869 380.312L113.812 381.409L118.166 389.979L125.881 387.728Z" fill="#DA9B5B"/>
<path d="M80.489 546.517C80.489 546.517 79.8237 551.14 79.7403 551.834C79.657 552.528 72.3324 551.424 72.3324 551.424L71.7393 545.92C71.7393 545.92 79.572 545.866 80.489 546.517Z" fill="#424773"/>
<path d="M79.8131 551.248C79.8131 551.248 82.1344 554.034 84.3788 555.248C86.6231 556.463 90.1515 556.944 91.4789 558.2C92.4376 559.108 94.9689 563.013 85.6452 562.934C76.3216 562.854 71.8265 563.486 70.8277 561.989C69.829 560.49 72.2721 550.934 72.2721 550.934C72.2721 550.934 74.4812 551.729 79.8131 551.248Z" fill="#292C47"/>
<path d="M132.978 546.517C132.978 546.517 132.313 551.14 132.228 551.835C132.144 552.529 124.82 551.424 124.82 551.424L124.227 545.921C124.227 545.921 132.063 545.866 132.978 546.517Z" fill="#424773"/>
<path d="M132.304 551.248C132.304 551.248 134.626 554.034 136.87 555.248C139.114 556.463 147.377 557.46 148.704 558.717C149.663 559.622 151.256 563.276 138.136 562.934C128.816 562.692 124.318 563.486 123.319 561.989C122.32 560.49 124.765 550.934 124.765 550.934C124.765 550.934 126.846 551.783 132.304 551.248Z" fill="#292C47"/>
<path d="M86.5508 427.732C86.5508 427.732 79.6687 438.668 80.1817 448.553C80.6947 458.439 77.6856 469.233 76.6516 479.559C75.499 491.072 70.7811 518.326 70.6095 524.484C70.438 530.643 71.3422 550.307 71.3422 550.307L80.786 550.523C80.786 550.523 88.7166 502.874 90.7718 498.012C92.8253 493.151 103.013 458.491 103.355 454.601C103.696 450.712 86.5508 427.732 86.5508 427.732Z" fill="#292C47"/>
<path d="M122.79 429.213C122.79 429.213 127.978 456.309 128.663 462.359C129.347 468.409 129.804 491.641 130.147 495.422C130.488 499.202 133.345 544.794 134.256 550.525H122.183C122.183 550.525 112.915 517.301 112.915 501.581C112.915 485.861 105.756 467.406 101.134 457.034C96.5123 446.662 85.9335 446.416 83.0928 427.173C83.0928 427.173 118.943 423.11 122.79 429.213Z" fill="#292C47"/>
<path d="M98.0376 335.784C98.0376 335.784 107.276 332.334 111.537 339.366C115.798 346.4 115.386 360.479 110.729 362.21C106.072 363.941 99.0764 363.037 96.6926 358.637C94.3088 354.236 92.1558 347.873 92.2584 343.622C92.361 339.371 95.6121 337.012 98.0376 335.784Z" fill="#EEA886"/>
<path d="M109.726 362.534C109.726 362.534 109.341 365.03 109.976 366.256C110.611 367.486 98.0071 367.518 98.0071 367.518C98.0071 367.518 96.9827 360.833 95.043 355.187C93.1048 349.539 109.726 362.534 109.726 362.534Z" fill="#EEA886"/>
<path d="M95.0445 355.186C95.0445 355.186 95.9133 356.623 99.4658 356.065C103.017 355.509 107.35 350.783 108.833 350.265C110.316 349.747 110.33 348.875 110.33 348.875L111.258 350.233L112.832 350.331C112.832 350.331 111.396 346.105 113.563 344.38C115.731 342.658 111.314 330.701 99.9259 334.681C99.9259 334.681 91.1778 337.092 91.4968 342.067C91.8126 347.043 93.0855 352.71 95.0445 355.186Z" fill="#323657"/>
<path d="M110.73 366.109C110.73 366.109 110.692 363.76 109.627 363.536C108.563 363.311 97.8798 362.285 96.5732 362.798V365.533C96.5732 365.533 99.0917 367.082 110.73 366.109Z" fill="#E2D2CA"/>
<path d="M110.091 347.066C109.891 346.232 107.77 343.847 106.957 346.399C106.144 348.953 108.185 352.387 109.323 352.093C110.461 351.8 110.596 349.182 110.091 347.066Z" fill="#EEA886"/>
<path d="M153.12 393.849C153.115 393.847 153.111 393.847 153.103 393.847C153.176 393.881 153.186 393.882 153.12 393.849Z" fill="#323657"/>
<path d="M95.4135 336.614C95.4135 336.614 83.6323 337.536 95.0512 355.186L95.4135 336.614Z" fill="#323657"/>
<path d="M175.688 340.199C175.311 339.019 174.045 338.675 174.045 338.675C173.514 337.876 172.156 337.46 172.156 337.46C172.137 337.403 172.102 337.352 172.076 337.298C172.911 336.402 175.34 334.723 175.481 334.404C175.652 334.018 175.609 333.976 175.138 333.718C174.745 333.503 170.782 336.083 169.461 336.956C169.136 337.161 168.873 337.352 168.82 337.397C168.455 337.705 167.714 337.931 167.09 338.587C167.021 338.656 166.954 338.734 166.891 338.816C166.236 339.654 164.69 346.371 164.69 346.371L167.449 347.609L170.107 349.864C170.107 349.864 173.211 347.295 174.006 346.488C174.803 345.68 175.168 344.739 175.388 344.342C175.441 344.246 175.535 344.108 175.649 343.954C176.01 343.466 176.557 342.812 176.557 342.812C176.828 342.434 176.988 341.488 176.988 341.488C176.933 340.695 175.688 340.199 175.688 340.199Z" fill="#EFAA88"/>
<path d="M128.397 369.664C121.072 368.697 110.727 366.108 110.727 366.108L96.5704 365.531C96.5704 365.531 83.5773 368.391 78.4601 370.704C77.9744 370.922 77.9728 382.295 76.6406 385.278L80.8824 394.228C80.8824 394.228 83.3336 411.959 83.8418 419.843C84.0758 423.463 78.7872 453.787 78.7872 453.787C78.7872 453.787 84.4541 455.454 94.116 456.52C103.778 457.585 127.919 456.135 128.071 454.994C128.224 453.853 123.395 412.499 123.182 410.357C122.853 407.071 124.315 389.605 124.315 389.605C126.547 387.875 146.134 378.782 151.477 374.045C152.907 372.777 158.942 366.899 160.659 364.869C166.735 357.684 171.716 351.522 172.322 350.193C173.011 349.436 165.72 345.475 165.058 345.254C164.479 345.061 156.267 355.704 153.105 359.127C151.696 360.653 145.837 364.916 145.837 364.916C145.837 364.916 132.978 369.927 128.397 369.664Z" fill="#323657"/>
<path d="M252.731 257.344H137.894C137.038 257.344 136.344 258.04 136.344 258.896V264.486C136.344 265.342 137.038 266.036 137.894 266.036H252.731C253.587 266.036 254.281 265.342 254.281 264.486V258.895C254.279 258.039 253.585 257.344 252.731 257.344Z" fill="#E0E0E0"/>
<path d="M209.961 238.862H137.894C137.038 238.862 136.344 239.556 136.344 240.412V246.003C136.344 246.859 137.038 247.553 137.894 247.553H209.961C210.817 247.553 211.512 246.859 211.512 246.003V240.412C211.513 239.556 210.819 238.862 209.961 238.862Z" fill="#E0E0E0"/>
<path d="M228.715 221.525H137.894C137.038 221.525 136.344 222.219 136.344 223.075V228.665C136.344 229.521 137.038 230.215 137.894 230.215H228.715C229.571 230.215 230.265 229.521 230.265 228.665V223.075C230.265 222.217 229.571 221.525 228.715 221.525Z" fill="#E0E0E0"/>
<path d="M272.856 203.796H137.894C137.038 203.796 136.344 204.49 136.344 205.346V210.936C136.344 211.792 137.038 212.486 137.894 212.486H272.856C273.712 212.486 274.406 211.792 274.406 210.936V205.346C274.406 204.49 273.712 203.796 272.856 203.796Z" fill="#E0E0E0"/>
<path d="M185.032 186.986H137.894C137.038 186.986 136.344 187.68 136.344 188.536V194.126C136.344 194.982 137.038 195.676 137.894 195.676H185.032C185.888 195.676 186.582 194.982 186.582 194.126V188.536C186.582 187.68 185.888 186.986 185.032 186.986Z" fill="#E0E0E0"/>
<path d="M494.692 253.059C516.081 245.411 529.218 224.968 528.571 203.422C528.414 198.206 527.449 192.927 525.597 187.746C519.985 172.053 507.484 160.799 492.716 156.177C482.482 152.973 471.159 152.952 460.282 156.843C459.201 157.229 458.137 157.651 457.098 158.101C452.387 160.147 448.126 162.832 444.379 166.02C428.661 179.39 422.017 201.576 429.377 222.158C438.881 248.726 468.121 262.559 494.692 253.059ZM441.418 217.85C435.899 202.419 440.88 185.787 452.664 175.762C455.473 173.374 458.668 171.357 462.201 169.826C462.98 169.488 463.777 169.172 464.589 168.88C472.743 165.964 481.233 165.98 488.904 168.382C499.978 171.848 509.35 180.283 513.556 192.05C514.946 195.934 515.669 199.894 515.788 203.804C516.275 219.955 506.426 235.284 490.388 241.02C470.466 248.143 448.542 237.77 441.418 217.85Z" fill="#4AAFFF"/>
<path d="M488.911 168.382L492.723 156.176C507.491 160.799 519.99 172.051 525.605 187.744C527.458 192.925 528.423 198.204 528.578 203.421L515.795 203.802C515.677 199.892 514.954 195.933 513.564 192.048C509.357 180.283 499.984 171.849 488.911 168.382Z" fill="#1A598C"/>
<path d="M462.208 169.825L457.104 158.1C458.142 157.65 459.207 157.228 460.287 156.842C471.164 152.951 482.489 152.972 492.721 156.177L488.909 168.383C481.238 165.981 472.748 165.963 464.595 168.881C463.785 169.171 462.989 169.487 462.208 169.825Z" fill="#2273B5"/>
<path d="M444.383 166.021C448.129 162.832 452.39 160.147 457.102 158.102L462.206 169.827C458.673 171.358 455.478 173.374 452.669 175.763L444.383 166.021Z" fill="#5CAEF2"/>
<path d="M401.469 195.006H372.513C371.014 195.006 369.802 193.791 369.802 192.295V190.37C369.802 188.871 371.015 187.659 372.513 187.659H401.469C402.967 187.659 404.18 188.873 404.18 190.37V192.295C404.18 193.791 402.967 195.006 401.469 195.006Z" fill="#78C2FF"/>
<path d="M367.768 229.513H338.811C337.314 229.513 336.099 228.298 336.099 226.802V224.877C336.099 223.379 337.314 222.166 338.811 222.166H367.768C369.267 222.166 370.48 223.381 370.48 224.877V226.802C370.48 228.298 369.267 229.513 367.768 229.513Z" fill="#4AAFFF"/>
<path d="M404.92 265.365H375.962C374.463 265.365 373.251 264.15 373.251 262.654V260.729C373.251 259.231 374.465 258.018 375.962 258.018H404.92C406.418 258.018 407.631 259.233 407.631 260.729V262.654C407.633 264.15 406.418 265.365 404.92 265.365Z" fill="#2273B5"/>
<path d="M463.443 289.596H434.486C432.987 289.596 431.773 288.38 431.773 286.885V284.959C431.773 283.462 432.987 282.249 434.486 282.249H463.443C464.94 282.249 466.155 283.464 466.155 284.959V286.885C466.155 288.38 464.94 289.596 463.443 289.596Z" fill="#1A598C"/>
<path d="M349.725 389.016L348.24 387.442L386.684 351.167L425.595 359.598L462.761 317.213L495.177 319.043L520.421 284.22L522.175 285.491L496.235 321.272L463.694 319.435L426.383 361.985L387.342 353.525L349.725 389.016Z" fill="#4AAFFF"/>
<path d="M431.632 359.567C432.307 362.683 430.327 365.758 427.209 366.435C424.092 367.11 421.017 365.13 420.341 362.012C419.666 358.894 421.646 355.819 424.764 355.144C427.882 354.471 430.957 356.449 431.632 359.567Z" fill="white"/>
<path d="M427.446 367.495C423.75 368.295 420.093 365.939 419.291 362.244C418.49 358.547 420.846 354.889 424.543 354.089C428.24 353.287 431.896 355.644 432.698 359.34C433.5 363.036 431.143 366.695 427.446 367.495ZM425.002 356.205C422.472 356.753 420.861 359.255 421.409 361.784C421.956 364.312 424.46 365.924 426.988 365.376C429.517 364.829 431.129 362.327 430.58 359.797C430.035 357.269 427.531 355.656 425.002 356.205Z" fill="#4AAFFF"/>
<path d="M468.861 317.467C469.536 320.583 467.556 323.658 464.438 324.334C461.32 325.009 458.245 323.029 457.57 319.91C456.895 316.793 458.877 313.719 461.993 313.044C465.111 312.37 468.186 314.35 468.861 317.467Z" fill="white"/>
<path d="M464.674 325.393C460.977 326.193 457.319 323.836 456.519 320.141C455.719 316.444 458.076 312.786 461.771 311.986C465.468 311.184 469.126 313.541 469.926 317.238C470.726 320.934 468.369 324.591 464.674 325.393ZM462.23 314.102C459.7 314.65 458.089 317.153 458.635 319.681C459.184 322.21 461.686 323.822 464.216 323.275C466.745 322.727 468.357 320.224 467.81 317.693C467.262 315.166 464.758 313.554 462.23 314.102Z" fill="#4AAFFF"/>
<path d="M501.055 318.755C501.73 321.871 499.751 324.946 496.632 325.622C493.514 326.297 490.44 324.317 489.765 321.199C489.09 318.081 491.07 315.007 494.188 314.332C497.306 313.658 500.381 315.637 501.055 318.755Z" fill="white"/>
<path d="M496.85 326.682C493.153 327.482 489.495 325.126 488.695 321.431C487.895 317.734 490.252 314.076 493.947 313.276C497.644 312.474 501.302 314.831 502.102 318.527C502.902 322.223 500.545 325.881 496.85 326.682ZM494.405 315.392C491.876 315.94 490.264 318.442 490.811 320.971C491.358 323.5 493.862 325.111 496.39 324.563C498.92 324.016 500.531 321.514 499.984 318.984C499.436 316.456 496.935 314.844 494.405 315.392Z" fill="#4AAFFF"/>
<path d="M392.64 351.656C393.315 354.774 391.335 357.849 388.217 358.524C385.099 359.199 382.025 357.217 381.35 354.101C380.675 350.983 382.655 347.908 385.773 347.233C388.891 346.558 391.965 348.538 392.64 351.656Z" fill="white"/>
<path d="M388.432 359.583C384.735 360.383 381.077 358.028 380.277 354.331C379.475 350.634 381.832 346.976 385.528 346.176C389.225 345.376 392.883 347.733 393.685 351.428C394.485 355.125 392.128 358.783 388.432 359.583ZM385.987 348.292C383.457 348.841 381.846 351.343 382.393 353.874C382.941 356.402 385.443 358.015 387.973 357.467C390.501 356.919 392.114 354.416 391.566 351.888C391.021 349.357 388.517 347.746 385.987 348.292Z" fill="#4AAFFF"/>
<path d="M404.857 374.35H381.211V378.903H404.857V374.35Z" fill="#E0E0E0"/>
<path d="M421.3 327.623H397.654V332.177H421.3V327.623Z" fill="#E0E0E0"/>
<path d="M470.356 360.185H446.71V364.738H470.356V360.185Z" fill="#E0E0E0"/>
<path d="M491.56 296.236H467.914V300.79H491.56V296.236Z" fill="#E0E0E0"/>
<path d="M525.907 334.342H502.262V338.895H525.907V334.342Z" fill="#E0E0E0"/>
<path d="M589.542 394.105C589.542 394.105 580.784 374.262 590.945 375.905C590.945 375.905 594.404 378.765 597.955 384.591C600.643 389.004 606.233 400.681 606.027 404.633C605.82 408.581 603.011 411.528 599.978 417.871C599.978 417.871 593.67 429.646 593.405 431.063L586.738 427.602C586.738 427.602 592.386 416.345 596.368 406.449L589.542 394.105Z" fill="#275070"/>
<path d="M640.844 453.603L506.641 430.752L510.525 407.935L644.73 430.786L640.844 453.603Z" fill="url(#paint9_linear_2052_602)"/>
<path d="M510.071 410.672L502.902 409.451L499.953 426.769L507.121 427.989L510.071 410.672Z" fill="#2D3038"/>
<path d="M538.838 562.213H537.185C537.185 562.213 537.737 555.972 536.206 555.91C534.677 555.849 530.884 560.988 528.618 561.785C526.355 562.58 514.729 563.252 514.667 561.11C514.606 558.97 519.133 558.112 520.54 557.501C521.948 556.889 528.803 550.219 530.026 549.423C531.251 548.627 533.338 543.098 533.338 543.098L539.829 542.809C539.829 542.809 540.194 547.979 540.589 550.715C540.735 551.729 540.84 552.65 540.857 553.28C540.917 555.605 538.838 562.213 538.838 562.213Z" fill="#EEA886"/>
<path d="M580.648 560.98H579.27V555.171C578.124 555.267 574.267 558.915 573.074 559.972C571.882 561.027 570.245 560.98 565.219 561.299C560.195 561.618 559.721 558.609 560.516 557.586C561.311 556.564 563.882 556.115 565.219 555.477C566.556 554.836 571.835 548.883 573.244 547.476C574.652 546.067 575.51 542.033 575.51 542.033L581.383 542.545C581.383 542.545 581.346 546.235 582.013 549.329V549.331C582.017 549.339 582.018 549.347 582.02 549.355C582.076 549.619 582.138 549.877 582.207 550.129C583.081 553.346 580.648 560.98 580.648 560.98Z" fill="#EEA886"/>
<path d="M558.927 429.295C558.927 429.295 556.707 434.545 556.511 435.871C556.316 437.197 551.118 449.76 549.615 458.229C548.715 463.3 546.231 479.172 546.03 481.191C545.686 484.644 544.06 492.268 543.808 495.795C543.669 497.767 533.956 528.036 531.605 543.843C531.605 543.843 537.191 544.67 541.388 543.559C541.388 543.559 549.914 527.225 554.65 504.057C557.502 490.104 560.024 482.664 562.233 476.917C564.442 471.17 576.954 454.893 578.261 453.064C579.565 451.235 587.748 441.131 580 430.185C572.249 419.239 558.927 429.295 558.927 429.295Z" fill="#4281B5"/>
<path d="M586.9 475.796C586.192 480.508 586.935 486.701 588.417 503.934C589.898 521.166 585.825 542.033 585.825 542.033C580.711 543.784 574.819 542.033 574.819 542.033C574.954 540.821 574.819 500.03 574.819 496.394C574.819 492.759 573.776 488.634 573.506 484.463C573.322 481.617 572.001 476.377 570.512 471.025C570.066 469.422 569.606 467.81 569.157 466.248V466.247C568.904 465.371 568.659 464.512 568.418 463.678C566.321 456.41 563.503 428.338 563.503 428.338C563.503 428.338 579.127 415.752 586.733 427.601C594.34 439.446 590.435 448.063 590.167 449.544C589.898 451.027 587.609 471.085 586.9 475.796Z" fill="#4281B5"/>
<path d="M580.423 450.478C580.301 450.748 572.516 468.027 570.514 471.024C570.068 469.421 569.608 467.808 569.159 466.246C569.159 466.246 580.161 450.86 580.423 450.478Z" fill="#122536"/>
<path d="M580.648 560.98H579.27V555.17C578.124 555.267 574.267 558.915 573.074 559.972C571.882 561.027 570.245 560.98 565.219 561.299C560.195 561.618 559.721 558.609 560.516 557.586C561.311 556.564 563.882 556.115 565.219 555.477C570.596 555.764 577.156 548.205 580.306 548.221C581.98 548.229 581.964 549.156 582.013 549.33C582.017 549.338 582.018 549.348 582.02 549.356C582.076 549.62 582.138 549.879 582.207 550.13C583.081 553.346 580.648 560.98 580.648 560.98Z" fill="#172F42"/>
<path d="M538.838 562.213H537.185C537.185 562.213 537.737 555.972 536.206 555.909C534.677 555.848 530.884 560.988 528.618 561.785C526.355 562.58 514.729 563.251 514.667 561.11C514.606 558.97 519.133 558.112 520.54 557.501C525.337 557.49 533.134 552.211 535.553 551.142C537.971 550.071 540.589 550.714 540.589 550.714C540.735 551.727 540.84 552.649 540.857 553.279C540.917 555.605 538.838 562.213 538.838 562.213Z" fill="#172F42"/>
<path d="M572.726 363.396C572.726 363.396 575.218 369.991 573.28 375.091C573.28 375.091 582.421 374.496 582.767 373.428C583.114 372.362 582.4 362.479 583.659 359.558C584.912 356.637 572.726 363.396 572.726 363.396Z" fill="#EEA886"/>
<path d="M571.84 372.859C571.84 372.859 566.437 374.78 563.997 375.314C561.556 375.847 556.45 378.267 556.864 387.372C557.279 396.479 558.802 404.376 559.356 408.291C559.911 412.203 559.563 422.164 558.664 427.004C558.664 427.004 571.614 430.276 586.85 427.004C586.85 427.004 584.148 418.751 584.217 416.616C584.286 414.482 593.22 396.907 593.635 394.134C594.051 391.357 595.853 379.121 591.766 376.417C587.68 373.712 584.355 374.068 582.625 372.859C580.896 371.649 574.366 371.99 571.84 372.859Z" fill="#285173"/>
<path d="M592.678 441.315C570.552 447.186 552.945 441.339 552.945 441.339C554.55 438.038 555.732 434.747 556.588 431.557C556.588 431.557 556.589 431.557 556.589 431.554C557.194 429.303 557.636 427.105 557.952 424.991C559.751 412.935 557.405 403.708 557.405 403.708C559.959 382.69 591.763 376.417 594.31 383.079C596.857 389.742 589.374 418.375 588.996 420.829C588.616 423.283 592.678 441.315 592.678 441.315Z" fill="#4281B5"/>
<path d="M580.689 336.932C577.013 335.672 567.08 334.33 564.536 349.577C561.992 364.826 567.534 365.087 573.228 364.653C578.922 364.219 587.829 353.928 588.51 350.799C589.192 347.67 591.175 340.53 580.689 336.932Z" fill="#EEA886"/>
<path d="M566.582 342.788C566.582 342.788 569.617 349.279 573.597 351.541C573.597 351.541 576.09 358.44 581.491 361.229C581.491 361.229 595.819 351.737 587.504 340.458C579.189 329.178 567.52 338.162 566.582 342.788Z" fill="#FCCCA2"/>
<path d="M573.247 349.292C573.57 348.498 575.716 347.208 576.68 349.385C577.643 351.56 574.185 355.395 573.238 355.188C572.29 354.981 572.024 352.303 573.247 349.292Z" fill="#EEA886"/>
<path d="M587.02 342.2C587.333 341.711 596.822 337.32 598.797 346.498C600.769 355.677 591.153 366.349 589.47 370.939C587.785 375.527 590.231 386.284 590.231 386.284C590.231 386.284 584.447 380.814 582.697 375.091C580.773 368.803 580.127 352.952 587.02 342.2Z" fill="#FCCCA2"/>
<path d="M587.496 341.887C587.496 341.887 584.593 344.186 584.218 347.811C584.218 347.811 583.671 344.983 584.845 343.255C586.015 341.527 587.496 341.887 587.496 341.887Z" fill="#E54242"/>
<path d="M556.592 431.554C557.196 429.303 557.639 427.105 557.954 424.99C557.954 424.99 559.412 421.887 559.904 420.407C560.398 418.924 564.059 400.703 564.059 400.703C564.059 400.703 567.934 417.817 556.592 431.554Z" fill="#1D3B54"/>
<path d="M540.305 432.613C540.305 432.613 537.451 435.447 536.529 435.731C535.608 436.017 533.828 434.445 527.276 433.958C526.702 433.916 525.691 434.434 525.928 435.194C526.165 435.954 529.017 438.022 530.239 438.338C531.459 438.652 537.215 440.94 540.022 439.817C542.828 438.695 544.737 435.124 544.737 435.124L540.305 432.613Z" fill="#EEA886"/>
<path d="M562.468 375.814C562.468 375.814 554.892 378.816 554.443 389.346C553.996 399.875 553.584 405.373 553.172 406.999C552.762 408.625 551.974 415.157 550.068 419.088C548.218 422.902 536.078 434.97 536.078 434.97L541.954 440.494C541.954 440.494 558.879 423.511 559.907 420.407C560.936 417.3 565.166 395.694 565.503 392.052C565.774 389.115 569.645 376.032 562.468 375.814Z" fill="#285173"/>
<path opacity="0.1" d="M428.07 474.173C469.025 470.119 498.939 433.632 494.885 392.677C490.831 351.723 454.344 321.809 413.389 325.863C372.435 329.917 342.521 366.403 346.575 407.358C350.629 448.313 387.115 478.227 428.07 474.173Z" fill="#B8B8B8"/>
<path opacity="0.3" d="M468.147 347.941C468.147 347.941 376.781 336.618 358.576 433.043C353.334 423.192 350.365 411.953 350.365 400.016C350.365 361.134 381.885 329.612 420.769 329.612C439.014 329.614 455.639 336.555 468.147 347.941Z" fill="#869AC2"/>
<path d="M420.763 315.787C374.241 315.787 336.529 353.498 336.529 400.017C336.529 446.543 374.242 484.254 420.763 484.254C467.285 484.254 504.996 446.543 504.996 400.017C504.998 353.498 467.285 315.787 420.763 315.787ZM420.763 470.536C381.817 470.536 350.245 438.968 350.245 400.017C350.245 361.073 381.817 329.502 420.763 329.502C459.708 329.502 491.28 361.073 491.28 400.017C491.282 438.968 459.71 470.536 420.763 470.536Z" fill="#3F444F"/>
<path d="M187.022 149.978H138.186V154.978H187.022V149.978Z" fill="#E0E0E0"/>
<path d="M231.194 149.978H196.523V154.978H231.194V149.978Z" fill="#E0E0E0"/>
<path d="M228.896 168.805H196.523V173.805H228.896V168.805Z" fill="#E0E0E0"/>
<path d="M404.859 149.978H370.19V154.978H404.859V149.978Z" fill="#78C2FF"/>
<path d="M284.693 149.978H240.522V154.978H284.693V149.978Z" fill="#1487E3"/>
<path d="M361.533 149.978H317.362V154.978H361.533V149.978Z" fill="#FFC055"/>
<path d="M309.031 149.978H292.863V154.978H309.031V149.978Z" fill="#E0E0E0"/>
<path d="M163.479 168.805H138.186V173.805H163.479V168.805Z" fill="#78C2FF"/>
<path d="M177.855 168.805H169.688V173.805H177.855V168.805Z" fill="#1487E3"/>
<path d="M404.857 168.805H337.352V173.805H404.857V168.805Z" fill="#E0E0E0"/>
<path d="M192.183 168.805H183.85V173.805H192.183V168.805Z" fill="#FFC455"/>
<path d="M331.119 168.805H309.034V173.805H331.119V168.805Z" fill="#1487E3"/>
<path d="M303.183 168.805H256.191V173.805H303.183V168.805Z" fill="#78C2FF"/>
<path d="M249.527 168.805H233.359V173.805H249.527V168.805Z" fill="#E0E0E0"/>
<defs>
<linearGradient id="paint0_linear_2052_602" x1="519.501" y1="204.95" x2="632.387" y2="204.95" gradientUnits="userSpaceOnUse">
<stop stop-color="#40D5E6"/>
<stop offset="1" stop-color="#5577FF"/>
</linearGradient>
<linearGradient id="paint1_linear_2052_602" x1="518.912" y1="310.153" x2="583.343" y2="213.273" gradientUnits="userSpaceOnUse">
<stop stop-color="#40D5E6"/>
<stop offset="1" stop-color="#5577FF"/>
</linearGradient>
<linearGradient id="paint2_linear_2052_602" x1="144.304" y1="317.011" x2="114.32" y2="154.462" gradientUnits="userSpaceOnUse">
<stop offset="0.0052" stop-color="#3C6127"/>
<stop offset="1" stop-color="#639C38"/>
</linearGradient>
<linearGradient id="paint3_linear_2052_602" x1="176.441" y1="314.83" x2="83.5209" y2="222.799" gradientUnits="userSpaceOnUse">
<stop offset="0.0052" stop-color="#3C6127"/>
<stop offset="1" stop-color="#639C38"/>
</linearGradient>
<linearGradient id="paint4_linear_2052_602" x1="122.867" y1="254.789" x2="550.201" y2="254.789" gradientUnits="userSpaceOnUse">
<stop stop-color="white"/>
<stop offset="1" stop-color="#F2F5FF"/>
</linearGradient>
<linearGradient id="paint5_linear_2052_602" x1="619.622" y1="118.229" x2="86.9833" y2="118.229" gradientUnits="userSpaceOnUse">
<stop stop-color="#FF9F55"/>
<stop offset="1" stop-color="#FFD255"/>
</linearGradient>
<linearGradient id="paint6_linear_2052_602" x1="19.5924" y1="305.401" x2="85.0792" y2="305.401" gradientUnits="userSpaceOnUse">
<stop stop-color="#FF9F55"/>
<stop offset="1" stop-color="#FFD255"/>
</linearGradient>
<linearGradient id="paint7_linear_2052_602" x1="61.7153" y1="305.401" x2="23.1789" y2="305.401" gradientUnits="userSpaceOnUse">
<stop stop-color="#FF9F55"/>
<stop offset="1" stop-color="#FFD255"/>
</linearGradient>
<linearGradient id="paint8_linear_2052_602" x1="698.858" y1="313.778" x2="610.704" y2="313.778" gradientUnits="userSpaceOnUse">
<stop stop-color="#FF9F55"/>
<stop offset="1" stop-color="#FFD255"/>
</linearGradient>
<linearGradient id="paint9_linear_2052_602" x1="644.73" y1="430.769" x2="506.641" y2="430.769" gradientUnits="userSpaceOnUse">
<stop stop-color="#FF9F55"/>
<stop offset="1" stop-color="#FFD255"/>
</linearGradient>
</defs>
</svg>
