<svg width="687" height="629" viewBox="0 0 687 629" fill="none" xmlns="http://www.w3.org/2000/svg">
<path d="M605.248 315.587C632.183 331.138 632.356 356.356 605.596 371.907C578.837 387.458 535.268 387.458 508.334 371.907C481.4 356.356 481.289 331.138 508.048 315.587C534.808 300.036 578.314 300.036 605.248 315.587Z" fill="#156BC9"/>
<path d="M597.563 340.617C596.769 349.441 588.465 355.433 580.973 358.661C572.814 362.177 563.842 363.596 554.99 363.482C545.954 363.366 536.73 361.638 528.583 357.629C521.475 354.132 513.928 347.786 513.954 339.156C513.937 345.439 514.376 350.633 518.905 355.539C524.735 361.856 533.513 365.258 541.771 366.963C557.88 370.288 579.816 368.681 592.053 356.281C596.976 351.292 597.649 346.031 597.667 339.394C597.65 339.803 597.615 340.21 597.563 340.617Z" fill="#C8CCDA"/>
<path d="M585.301 322.118C601.7 331.586 601.804 346.939 585.513 356.407C569.222 365.875 542.696 365.875 526.299 356.407C509.9 346.939 509.833 331.586 526.126 322.118C542.417 312.651 568.903 312.651 585.301 322.118Z" fill="#D4D9DF"/>
<path d="M563.265 302.98L563.163 339.569L556.762 343.29L556.864 306.701L563.265 302.98Z" fill="#E1E8F2"/>
<path d="M556.865 306.701L556.762 343.29L550.319 339.569L550.424 302.98L556.865 306.701Z" fill="#C8CCDA"/>
<path d="M563.266 302.98L556.865 306.701L550.424 302.98L556.823 299.261L563.266 302.98Z" fill="#4DA5DC"/>
<path d="M613.617 277.801C613.607 277.838 613.597 277.876 613.585 277.913C613.528 278.1 613.452 278.285 613.35 278.463C613.338 278.485 613.321 278.505 613.308 278.527C613.212 278.682 613.094 278.83 612.965 278.976C612.919 279.027 612.876 279.077 612.825 279.126C612.659 279.291 612.477 279.452 612.262 279.602L549.468 323.281C549.285 323.409 549.063 323.505 548.856 323.612C548.591 323.75 548.313 323.88 548.016 323.987C547.815 324.06 547.612 324.127 547.4 324.186C547.22 324.234 547.04 324.281 546.854 324.322C546.484 324.399 546.107 324.471 545.714 324.512H545.707C545.238 324.559 544.755 324.574 544.269 324.566C544.251 324.566 544.232 324.567 544.214 324.566C543.736 324.556 543.254 324.515 542.773 324.453C542.744 324.45 542.717 324.448 542.689 324.443C542.247 324.382 541.81 324.292 541.377 324.187C541.287 324.165 541.196 324.145 541.107 324.12C540.656 324.001 540.212 323.861 539.787 323.691C539.319 323.506 538.87 323.293 538.448 323.049L476.406 287.228C474.643 286.21 473.753 284.922 473.757 283.706L473.736 291.018C473.733 292.232 474.622 293.522 476.386 294.541L538.428 330.361C538.85 330.605 539.299 330.819 539.767 331.004C539.77 331.005 539.773 331.007 539.777 331.009C540.132 331.148 540.498 331.273 540.871 331.379C540.942 331.399 541.014 331.412 541.087 331.431C541.177 331.454 541.268 331.476 541.359 331.498C541.503 331.533 541.648 331.575 541.794 331.606C542.068 331.663 542.344 331.71 542.62 331.749C542.637 331.75 542.654 331.752 542.67 331.754C542.699 331.757 542.728 331.76 542.754 331.764C542.97 331.792 543.187 331.819 543.402 331.836C543.656 331.856 543.91 331.87 544.16 331.876C544.172 331.876 544.182 331.876 544.194 331.876C544.212 331.876 544.231 331.876 544.249 331.876C544.473 331.88 544.696 331.881 544.917 331.873C545.176 331.865 545.431 331.848 545.682 331.823C545.687 331.823 545.69 331.823 545.695 331.821H545.699C545.988 331.792 546.272 331.752 546.551 331.703C546.65 331.685 546.738 331.653 546.834 331.633C547.02 331.594 547.2 331.547 547.38 331.496C547.506 331.461 547.642 331.441 547.763 331.401C547.847 331.374 547.913 331.327 547.995 331.298C548.295 331.19 548.569 331.063 548.836 330.923C548.937 330.871 549.058 330.839 549.154 330.782C549.255 330.721 549.354 330.657 549.45 330.592L612.243 286.912C612.415 286.793 612.571 286.669 612.711 286.539C612.746 286.507 612.771 286.472 612.805 286.438C612.854 286.389 612.899 286.339 612.945 286.289C612.993 286.233 613.054 286.181 613.098 286.124C613.17 286.031 613.23 285.935 613.289 285.84C613.303 285.818 613.32 285.798 613.331 285.777C613.336 285.767 613.345 285.759 613.35 285.749C613.419 285.626 613.478 285.502 613.525 285.376C613.543 285.327 613.552 285.278 613.567 285.229C613.578 285.191 613.59 285.152 613.6 285.113C613.61 285.073 613.627 285.033 613.636 284.992C613.663 284.858 613.678 284.721 613.681 284.584C613.681 284.562 613.683 284.542 613.683 284.52L613.703 277.207C613.698 277.406 613.666 277.604 613.617 277.801Z" fill="#E39A00"/>
<path d="M611.048 273.67C614.046 275.4 614.574 277.991 612.26 279.6L549.466 323.279C546.85 325.087 541.789 324.976 538.448 323.047L476.406 287.227C473.047 285.286 472.858 282.366 475.971 280.846L551.173 244.331C553.944 242.986 558.416 243.283 561.414 245.013L611.048 273.67Z" fill="#DCC900"/>
<path d="M626.3 165.147L563.081 128.407L566.541 128.54L629.762 165.28L626.3 165.147Z" fill="#EFD600"/>
<path d="M604.638 280.974C604.618 243.588 609.916 204.468 624.322 169.788C624.954 168.264 626.743 166.042 625.76 164.833C625.238 164.194 623.824 163.708 623.115 163.296C619.58 161.243 616.046 159.188 612.513 157.135C602.543 151.341 592.572 145.547 582.601 139.753C576.094 135.971 569.587 132.19 563.08 128.408C547.526 163.308 541.886 202.984 541.439 240.951C541.414 243.112 540.746 246.283 542.564 247.764C543.201 248.284 544.081 248.647 544.792 249.059C548.198 251.038 551.605 253.019 555.011 254.998C565.098 260.859 575.185 266.722 585.271 272.584C592.021 276.506 598.768 280.427 605.517 284.348C604.418 283.709 604.638 282.038 604.638 280.974Z" fill="#E39A00"/>
<path d="M626.298 165.147L629.761 165.28C628.642 168.226 607.403 224.196 616.667 274.766C617.036 276.706 615.63 279.539 613.72 280.642L607.669 284.136C606.007 285.095 604.649 284.341 604.642 282.435C604.545 268.141 605.569 211.653 626.298 165.147Z" fill="#EFBD00"/>
<path d="M486.716 101.6C486.716 101.6 482.9 99.8379 481.432 102.187C479.964 104.536 482.019 107.472 482.9 111.877C483.781 116.282 486.422 122.448 486.422 122.448L497.286 106.005L486.716 101.6Z" fill="#BF483E"/>
<path d="M474.862 207.044C470.323 205.442 467.942 200.465 469.543 195.925L481.484 162.082C483.086 157.542 488.063 155.161 492.603 156.762C497.143 158.364 499.524 163.343 497.923 167.881L485.982 201.724C484.381 206.264 479.402 208.646 474.862 207.044Z" fill="#E1E8F2"/>
<path d="M498.881 146.43C498.881 146.43 498.972 146.662 498.98 147.057C499.007 148.516 498.913 152.278 499.037 153.819C499.157 155.299 501.237 157.545 505.159 156.802C509.082 156.059 515.483 153.285 516.914 148.22C516.593 147.417 515.409 138.684 515.232 134.26L498.881 146.43Z" fill="#E16B40"/>
<path d="M484.274 119.927C484.496 107.51 492.881 99.0662 504.095 99.7707C504.095 99.7707 515.985 98.9687 522.913 108.364C529.84 117.758 523.666 127.682 519.7 133.952C518.017 136.536 516.75 138.524 515.953 139.788C515.668 140.262 515.388 140.743 515.082 141.182C515.027 141.271 514.998 141.318 514.998 141.318L514.985 141.31C512.211 145.209 508.702 147.744 506.015 149.063C501.547 151.257 495.849 151.393 492.306 148.698C488.762 146.001 484.052 132.346 484.274 119.927Z" fill="#FF8654"/>
<path d="M512.827 350.582C512.827 350.582 511.216 354.695 506.903 357.984C502.592 361.272 500.273 364.225 500.608 366.216C500.944 368.208 504.1 368.699 508.292 367.736C512.484 366.772 514.175 361.622 516.955 359.873C519.732 358.125 523.177 357.287 523.921 355.625C524.666 353.962 522.66 348.154 522.66 348.154L512.827 350.582Z" fill="#E1E8F2"/>
<path d="M545.926 356.267C545.926 356.267 546.141 359.816 544.399 361.645C542.659 363.477 541.585 366.219 538.558 368.01C535.53 369.8 534.002 372.876 534.294 374.619C534.588 376.363 541.771 376.432 545.504 374.264C549.237 372.099 552.546 365.906 554.163 364.865C555.781 363.825 556.689 361.622 556.727 360.334C556.768 359.046 554.972 354.484 554.972 354.484L545.926 356.267Z" fill="#E1E8F2"/>
<path d="M546.47 233.001C546.47 233.001 548.188 250.787 548.069 262.747C547.949 274.707 557.848 351.843 555.785 355.302C553.723 358.76 549.928 359.07 545.96 356.332C541.992 353.593 522.856 259.665 522.856 259.665L508.835 239.897L546.47 233.001Z" fill="#514C51"/>
<path d="M496.239 232.497C496.239 232.497 507.136 327.466 511.332 349.296C512.424 355.771 522.552 355.086 523.95 348.191C525.348 341.297 520.267 247.394 517.253 235.609C514.24 223.826 496.305 223.779 496.239 232.497Z" fill="#514C51"/>
<path d="M515.04 143.849C515.04 143.849 536.806 154.452 539.506 158.744C542.205 163.037 544.784 175.817 542.225 185.058C539.666 194.299 546.446 225.568 546.044 231.976C545.642 238.384 529.344 243.134 518.721 242.878C508.098 242.624 494.4 237.281 492.765 225.22C491.131 213.159 487.102 190.835 485.539 185.542C483.973 180.249 482.394 166.558 483.368 157.036C483.573 155.027 489.693 151.923 489.693 151.923C489.693 151.923 495.753 146.266 515.04 143.849Z" fill="#FF8654"/>
<path d="M489.946 209.8C491.007 215.922 492.253 223.219 492.882 227.858C494.516 239.919 509.274 244.973 519.895 245.227C530.519 245.481 546.815 240.731 547.216 234.323C547.618 227.915 540.839 196.646 543.398 187.405C544.661 182.849 544.669 177.433 544.034 172.597L530.463 170.013C530.466 170.015 521.901 210.531 489.946 209.8Z" fill="#FF6D2B"/>
<path d="M535.162 212.956C530.356 212.669 526.696 208.539 526.984 203.734L529.131 167.91C529.418 163.104 533.548 159.442 538.353 159.731C543.159 160.019 546.821 164.148 546.532 168.954L544.384 204.778C544.095 209.583 539.966 213.245 535.162 212.956Z" fill="#E1E8F2"/>
<path d="M541.3 201.242C544.021 205.213 543.005 210.637 539.034 213.358L509.424 233.637C505.453 236.358 500.028 235.342 497.308 231.371C494.587 227.399 495.603 221.975 499.574 219.255L529.184 198.975C533.155 196.255 538.58 197.27 541.3 201.242Z" fill="#E1E8F2"/>
<path d="M516.217 146.198C499.773 148.259 492.963 152.662 491.309 153.918C491.741 157.224 492.548 161.537 494.059 165.315C496.995 172.656 504.63 192.915 504.63 192.915C504.63 192.915 510.796 173.537 515.788 165.021C519.301 159.028 522.806 153.338 524.58 150.487C519.99 148.039 516.217 146.198 516.217 146.198Z" fill="#E1E8F2"/>
<path d="M498.886 146.43C498.886 146.43 498.977 146.662 498.985 147.057C499.012 148.516 498.918 152.278 499.042 153.819C499.162 155.299 501.241 157.545 505.164 156.802C509.087 156.059 515.488 153.285 516.919 148.22C516.598 147.417 515.414 138.684 515.237 134.26L498.886 146.43Z" fill="#FF8654"/>
<path d="M484.279 119.927C484.501 107.51 492.886 99.0662 504.099 99.7707C504.099 99.7707 515.99 98.9687 522.918 108.364C529.845 117.758 523.671 127.682 519.704 133.952C518.021 136.536 516.755 138.524 515.958 139.788C515.672 140.262 515.393 140.743 515.087 141.182C515.032 141.271 515.003 141.318 515.003 141.318L514.99 141.31C512.216 145.209 508.706 147.744 506.02 149.063C501.552 151.257 495.854 151.393 492.311 148.698C488.767 146.001 484.057 132.346 484.279 119.927Z" fill="#FF9F75"/>
<path d="M502.867 160.814L500.713 164.533L501.105 166.882L498.855 177.7C501.754 185.29 504.629 192.917 504.629 192.917C504.629 192.917 505.734 189.448 507.38 184.818L504.434 167.274L505.61 165.12L502.867 160.814Z" fill="#852200"/>
<path d="M515.199 122.154C513.436 127.146 513.144 127.732 513.144 129.787C513.144 131.842 512.85 139.183 512.85 139.183L515.785 137.421C515.785 137.421 516.32 133.809 517.961 130.624C518.832 128.933 521.142 128.309 523.12 128.092C525.648 123.11 527.379 117.148 524.598 111.219L513.731 110.115C513.731 110.115 516.961 117.163 515.199 122.154Z" fill="#FF895F"/>
<path d="M527.826 115.107C527.826 115.107 528.12 109.528 524.596 104.83C521.072 100.132 519.604 98.6644 510.208 96.6081C500.812 94.5534 493.766 98.3702 489.36 98.0759C484.957 97.7817 483.487 97.7817 483.487 97.7817C483.487 97.7817 483.487 103.947 487.012 107.177C490.536 110.407 493.471 113.637 500.812 113.05C508.153 112.464 514.613 112.756 515.493 113.932C516.374 115.107 516.374 118.335 518.723 119.51C521.072 120.686 524.007 121.565 525.769 121.859C527.533 122.154 529.295 119.218 527.826 115.107Z" fill="#CE5E4A"/>
<path d="M619.042 478.419C624.483 481.56 624.511 486.638 619.105 489.78L383.593 626.645C378.188 629.785 369.421 629.785 363.98 626.645L4.09954 419.246C-1.34147 416.105 -1.37006 411.027 4.03564 407.884L239.548 271.02C244.953 267.879 253.72 267.879 259.16 271.02L619.042 478.419Z" fill="#156BC9"/>
<path d="M138.234 524.195C112.344 539.143 112.178 563.384 137.9 578.331C163.622 593.279 205.5 593.279 231.391 578.331C257.281 563.384 257.387 539.143 231.665 524.195C205.943 509.247 164.124 509.247 138.234 524.195Z" fill="#156BC9"/>
<path d="M607.166 540.638C633.056 555.585 633.222 579.826 607.5 594.774C581.778 609.721 539.9 609.721 514.009 594.774C488.119 579.826 488.013 555.585 513.735 540.638C539.457 525.69 581.277 525.69 607.166 540.638Z" fill="#156BC9"/>
<path d="M339.025 402.798L338.783 488.289L323.827 496.98L324.069 411.489L339.025 402.798Z" fill="#3EABFF"/>
<path d="M324.069 411.489L323.827 496.98L308.773 488.289L309.016 402.798L324.069 411.489Z" fill="#1991DB"/>
<path d="M339.025 402.798L324.069 411.489L309.016 402.798L323.972 394.107L339.025 402.798Z" fill="#4DA5DC"/>
<path d="M655.898 351.936C655.882 351.984 655.872 352.035 655.856 352.085C655.703 352.524 655.474 352.954 655.193 353.377C655.143 353.452 655.096 353.528 655.04 353.602C654.736 354.021 654.371 354.426 653.939 354.816C653.655 355.071 653.295 355.303 652.955 355.544C652.669 355.746 652.425 355.963 652.101 356.151L416.589 493.015C415.755 493.499 414.822 493.883 413.853 494.219C413.512 494.337 413.16 494.439 412.807 494.539C412.352 494.666 411.893 494.786 411.422 494.883C410.869 494.998 410.31 495.102 409.739 495.172C409.601 495.189 409.465 495.214 409.327 495.23C404.994 495.695 400.348 494.961 396.977 493.015L396.943 504.909C400.269 506.83 404.834 507.561 409.117 507.134V507.149C409.176 507.144 409.234 507.131 409.293 507.124C409.431 507.109 409.566 507.083 409.703 507.067C410.099 507.016 410.495 506.973 410.884 506.902C411.057 506.872 411.217 506.811 411.388 506.776C411.861 506.678 412.316 506.559 412.774 506.431C413.016 506.364 413.275 506.323 413.51 506.248C413.621 506.213 413.712 506.149 413.821 506.112C414.791 505.777 415.723 505.394 416.557 504.908L652.069 368.043C652.126 368.01 652.183 367.976 652.239 367.942C652.499 367.786 652.683 367.605 652.918 367.44C653.259 367.199 653.621 366.966 653.907 366.707C653.934 366.683 653.974 366.661 654.001 366.638C654.325 366.338 654.613 366.029 654.862 365.713C654.917 365.642 654.956 365.567 655.008 365.496C655.064 365.42 655.111 365.345 655.161 365.269C655.247 365.141 655.346 365.015 655.42 364.886C655.566 364.627 655.689 364.363 655.788 364.099C655.803 364.06 655.808 364.02 655.822 363.979C655.839 363.929 655.849 363.879 655.866 363.828C655.919 363.658 655.978 363.49 656.012 363.319C656.064 363.055 656.094 362.789 656.103 362.525C656.104 362.485 656.104 362.444 656.104 362.404L656.138 350.51C656.135 350.989 656.046 351.465 655.898 351.936Z" fill="#3EABFF"/>
<path d="M652.034 344.792C657.475 347.932 657.504 353.01 652.098 356.153L416.586 493.017C411.18 496.158 402.414 496.158 396.973 493.017L74.7978 306.104C69.3568 302.963 69.3282 297.885 74.7339 294.743L310.246 157.879C315.652 154.738 324.419 154.738 329.858 157.879L652.034 344.792Z" fill="#7CCCFF"/>
<path d="M407.616 495.358C407.144 495.374 406.671 495.376 406.199 495.364C405.743 495.353 405.288 495.329 404.835 495.29C404.383 495.253 403.934 495.203 403.489 495.141C403.026 495.075 402.567 494.996 402.115 494.902C401.624 494.801 401.141 494.682 400.669 494.547C400.089 494.382 399.525 494.192 398.982 493.977C398.276 493.698 397.604 493.377 396.975 493.015L74.7999 306.104C72.0626 304.524 70.6956 302.452 70.7007 300.384L70.667 312.278C70.6603 314.346 72.029 316.418 74.7663 317.998L396.943 504.91C397.572 505.273 398.243 505.592 398.95 505.871C399.493 506.087 400.057 506.275 400.637 506.441C401.109 506.576 401.594 506.694 402.085 506.796C402.537 506.89 402.994 506.969 403.458 507.035C403.904 507.099 404.353 507.148 404.805 507.185C405.257 507.222 405.713 507.247 406.169 507.257C406.641 507.269 407.114 507.267 407.586 507.25C408.101 507.233 408.612 507.198 409.121 507.148L409.155 495.253C408.642 495.305 408.129 495.341 407.616 495.358Z" fill="#3EABFF"/>
<path d="M512.344 522.552C512.344 522.552 514.424 529.054 512.864 532.694C511.303 536.335 507.142 535.815 504.021 535.815C500.901 535.815 497.519 535.555 494.14 536.076C490.758 536.595 495.18 542.837 501.422 544.397C507.663 545.957 509.223 544.658 514.685 546.738C520.146 548.817 524.307 547.257 526.387 545.957C528.467 544.658 530.808 539.977 529.768 537.895C528.728 535.815 525.607 530.354 525.348 528.272C525.087 526.192 524.307 522.031 524.307 522.031L512.344 522.552Z" fill="#2F3B40"/>
<path d="M566.376 457.927C566.376 457.927 510.005 449.218 501.684 454.938C493.363 460.66 499.604 503.828 502.725 512.669C505.845 521.511 505.845 529.311 510.526 530.872C515.207 532.432 521.449 530.352 524.569 527.231C527.69 524.111 520.929 499.145 523.009 488.744C525.089 478.341 534.972 491.345 549.535 484.583C564.096 477.823 569.696 465.078 566.376 457.927Z" fill="#494549"/>
<path d="M600.742 564.696C599.979 573.177 591.997 578.938 584.796 582.04C576.954 585.42 568.33 586.783 559.822 586.674C551.138 586.563 542.27 584.902 534.44 581.048C527.606 577.685 520.353 571.587 520.376 563.291C520.36 569.33 520.783 574.322 525.136 579.039C530.741 585.11 539.178 588.381 547.116 590.018C562.6 593.215 583.685 591.671 595.448 579.75C600.181 574.955 600.826 569.899 600.845 563.519C600.825 563.913 600.793 564.305 600.742 564.696Z" fill="#C8CCDA"/>
<path d="M588.957 546.916C604.718 556.015 604.821 570.773 589.16 579.874C573.5 588.974 548.005 588.974 532.243 579.874C516.48 570.775 516.416 556.017 532.077 546.916C547.736 537.816 573.195 537.816 588.957 546.916Z" fill="#D4D9DF"/>
<path d="M567.775 528.52L567.675 563.689L561.521 567.266L561.622 532.096L567.775 528.52Z" fill="#E1E8F2"/>
<path d="M561.624 532.096L561.523 567.266L555.33 563.689L555.429 528.52L561.624 532.096Z" fill="#C8CCDA"/>
<path d="M567.774 528.519L561.622 532.096L555.428 528.519L561.582 524.945L567.774 528.519Z" fill="#4DA5DC"/>
<path d="M623.144 507.302L623.121 515.706C623.121 515.726 623.121 515.746 623.119 515.766L623.143 507.363C623.144 507.343 623.144 507.322 623.144 507.302Z" fill="#948700"/>
<path d="M623.147 507.363L623.123 515.766C623.12 515.899 623.105 516.034 623.078 516.168L623.102 507.765C623.129 507.63 623.144 507.496 623.147 507.363Z" fill="#998C00"/>
<path d="M623.099 507.763L623.075 516.167C623.049 516.304 623.008 516.442 622.956 516.58L622.98 508.177C623.032 508.039 623.07 507.901 623.099 507.763Z" fill="#9E9000"/>
<path d="M622.978 508.177L622.954 516.58C622.901 516.725 622.832 516.87 622.751 517.014L622.775 508.611C622.855 508.466 622.924 508.321 622.978 508.177Z" fill="#A39500"/>
<path d="M622.778 508.609L622.755 517.012C622.664 517.172 622.558 517.332 622.434 517.488L622.457 509.085C622.582 508.93 622.688 508.77 622.778 508.609Z" fill="#A89A00"/>
<path d="M622.453 509.086L622.43 517.49C622.282 517.678 622.112 517.861 621.917 518.041L621.941 509.638C622.136 509.458 622.307 509.273 622.453 509.086Z" fill="#AD9E00"/>
<path d="M621.942 509.638L621.918 518.041C621.616 518.32 621.259 518.586 620.846 518.835L620.869 510.431C621.283 510.182 621.641 509.915 621.942 509.638Z" fill="#B3A300"/>
<path d="M620.871 510.431L620.848 518.835C620.812 518.857 620.775 518.879 620.738 518.899L620.762 510.495C620.799 510.473 620.836 510.452 620.871 510.431Z" fill="#B8A800"/>
<path d="M496.807 503.907C496.676 503.843 496.55 503.778 496.43 503.709C495.312 503.063 494.756 502.186 494.759 501.261L494.735 509.664C494.734 510.587 495.289 511.465 496.407 512.113C496.526 512.181 496.652 512.247 496.783 512.311L566.126 545.806L566.149 537.402L496.807 503.907Z" fill="#E39A00"/>
<path d="M620.762 510.495L575.529 536.782C574.885 537.157 574.156 537.445 573.397 537.67C573.273 537.707 573.143 537.732 573.016 537.764C572.306 537.947 571.575 538.084 570.842 538.136C570.803 538.139 570.763 538.141 570.724 538.144C569.912 538.195 569.105 538.164 568.343 538.048C568.325 538.045 568.306 538.042 568.288 538.038C567.512 537.914 566.784 537.705 566.151 537.403L566.127 545.806C566.263 545.872 566.403 545.932 566.547 545.99C566.766 546.075 566.991 546.151 567.227 546.218C567.427 546.275 567.632 546.326 567.84 546.368C567.978 546.396 568.121 546.418 568.262 546.442C568.281 546.445 568.299 546.449 568.318 546.452C568.357 546.459 568.393 546.467 568.432 546.472C568.631 546.501 568.834 546.523 569.039 546.539C569.249 546.556 569.463 546.568 569.676 546.573C569.907 546.578 570.14 546.578 570.374 546.57C570.482 546.566 570.589 546.554 570.697 546.548C570.737 546.544 570.776 546.543 570.818 546.539C570.934 546.531 571.05 546.528 571.166 546.516C571.491 546.484 571.813 546.438 572.135 546.38C572.425 546.328 572.706 546.24 572.99 546.166C573.12 546.132 573.246 546.109 573.374 546.07C573.46 546.045 573.549 546.033 573.634 546.005C574.302 545.789 574.934 545.515 575.508 545.182L620.741 518.895C622.308 517.984 623.121 516.814 623.125 515.702L623.148 507.299C623.143 508.414 622.329 509.584 620.762 510.495Z" fill="#E39A00"/>
<path d="M563.41 464.786C563.53 464.855 563.644 464.927 563.753 465.003L621.804 505.059C623.934 506.542 623.487 508.91 620.763 510.493L575.53 536.78C572.804 538.364 568.717 538.63 566.151 537.401L496.808 503.907C496.677 503.843 496.551 503.778 496.432 503.709C493.975 502.292 494.236 499.759 497.146 498.068L553.672 465.218C556.584 463.527 560.955 463.369 563.41 464.786Z" fill="#DCC900"/>
<path d="M479.579 542.317C479.579 542.317 481.659 548.819 480.099 552.459C478.539 556.1 474.377 555.58 471.257 555.58C468.136 555.58 464.755 555.319 461.375 555.841C457.994 556.36 462.416 562.602 468.657 564.162C474.898 565.722 476.459 564.423 481.92 566.502C487.381 568.582 491.543 567.022 493.623 565.722C495.702 564.423 498.043 559.741 497.004 557.66C495.963 555.58 492.842 550.119 492.583 548.037C492.323 545.957 491.543 541.796 491.543 541.796L479.579 542.317Z" fill="#2F3B40"/>
<path d="M516.767 459.621C516.767 459.621 507.405 462.222 492.842 464.821C478.28 467.422 464.756 478.345 466.316 493.427C467.877 508.509 475.159 543.877 476.719 545.957C478.28 548.037 479.32 550.119 487.642 548.558C495.963 546.998 495.963 543.877 495.963 541.798C495.963 539.718 492.842 507.601 492.842 501.36C492.842 501.36 492.087 494.587 495.183 493.948C498.278 493.309 517.286 498.11 530.81 501.23C544.333 504.351 555.775 496.549 558.896 491.349C562.017 486.148 568.258 487.187 571.898 482.506C575.539 477.825 575.539 456.502 567.737 449.22C559.935 441.938 516.767 459.621 516.767 459.621Z" fill="#514C51"/>
<path d="M575.558 447.047L636.325 411.735L639.641 415.696L578.873 451.01L575.558 447.047Z" fill="#EFD600"/>
<path d="M626.538 506.465C626.017 498.468 624.655 490.613 624.473 482.564C624.276 473.894 624.698 465.23 625.889 456.638C627.819 442.694 631.559 427.461 639.639 415.696C625.031 424.185 610.422 432.675 595.814 441.164C591.987 443.389 588.158 445.613 584.33 447.838C582.665 448.805 580.431 449.664 578.981 450.947C578.031 451.786 577.369 453.385 576.763 454.473C574.976 457.681 573.458 461.038 572.121 464.457C569.227 471.858 567.176 479.594 565.823 487.423C564.203 496.8 563.554 506.327 563.67 515.837C563.733 520.952 563.988 526.075 564.493 531.166C564.738 533.646 565.019 536.126 565.342 538.598C565.518 539.953 566.561 542.993 564.925 543.945C584 532.859 603.076 521.774 622.151 510.688C623.854 509.698 626.684 508.837 626.538 506.465Z" fill="#EFBD00"/>
<path d="M575.555 447.047L578.871 451.01C577.783 452.594 557.131 482.683 565.731 541.397C566.055 543.654 564.71 544.801 562.876 543.74L557.058 540.382C555.463 539.46 554.163 537.253 554.149 535.408C554.153 521.597 555.442 468.615 575.555 447.047Z" fill="#E39A00"/>
<path d="M504.321 259.092L476.06 242.697L442.145 262.406L470.474 278.763L504.321 259.092Z" fill="#3EABFF"/>
<path d="M332.817 377.505L292.543 400.91L264.213 384.553L304.487 361.148L332.817 377.505Z" fill="#3EABFF"/>
<path d="M332.425 366.214L332.41 371.959L292.12 395.373L292.135 389.629L332.425 366.214Z" fill="#D4D9DF"/>
<path d="M292.136 389.629L292.121 395.373L263.791 379.016L263.806 373.272L292.136 389.629Z" fill="#C8CCDA"/>
<path d="M332.427 366.214L292.138 389.629L263.808 373.272L304.097 349.859L332.427 366.214Z" fill="#E1E8F2"/>
<path d="M395.848 408.496L395.831 409.542L355.543 432.955L355.558 431.91L395.848 408.496Z" fill="#E16B40"/>
<path d="M355.559 431.91L355.544 432.955L327.214 416.601L327.229 415.553L355.559 431.91Z" fill="#E16B40"/>
<path d="M395.85 408.496L355.56 431.91L327.23 415.553L367.52 392.139L395.85 408.496Z" fill="#FF8654"/>
<path d="M379.548 410.172L358.4 422.462L343.529 413.877L364.678 401.587L379.548 410.172Z" fill="#E1E8F2"/>
<path d="M330.801 401.542C331.328 401.844 331.329 402.337 330.808 402.64L313.35 412.785C312.827 413.09 311.982 413.09 311.455 412.785L300.688 406.569C300.163 406.267 300.16 405.776 300.681 405.471L318.139 395.326C318.66 395.023 319.509 395.023 320.034 395.326L330.801 401.542Z" fill="#514C51"/>
<path d="M331.193 402.134C331.191 402.147 331.191 402.162 331.188 402.176C331.186 402.187 331.183 402.199 331.18 402.209C331.176 402.223 331.173 402.236 331.168 402.25C331.165 402.261 331.159 402.272 331.154 402.282C331.148 402.295 331.143 402.31 331.134 402.324C331.129 402.334 331.122 402.344 331.116 402.354C331.106 402.369 331.096 402.386 331.084 402.401C331.077 402.409 331.07 402.42 331.062 402.428C331.045 402.448 331.027 402.468 331.005 402.488C330.996 402.495 330.99 402.504 330.983 402.51C330.969 402.522 330.956 402.532 330.943 402.544C330.931 402.554 330.917 402.564 330.904 402.574C330.889 402.586 330.872 402.596 330.855 402.606C330.838 402.618 330.822 402.628 330.805 402.64L313.347 412.785C313.288 412.819 313.226 412.848 313.16 412.874C313.143 412.881 313.125 412.888 313.108 412.895C313.068 412.91 313.024 412.922 312.982 412.933C312.938 412.945 312.893 412.957 312.847 412.967C312.794 412.979 312.74 412.987 312.684 412.996C312.671 412.997 312.657 412.999 312.644 413.001C312.57 413.009 312.494 413.012 312.419 413.012C312.407 413.012 312.395 413.012 312.383 413.012C312.309 413.012 312.234 413.007 312.161 413.001C312.15 412.999 312.139 412.999 312.128 412.997C312.055 412.989 311.983 412.975 311.912 412.96C311.899 412.957 311.887 412.953 311.874 412.95C311.81 412.935 311.748 412.915 311.687 412.893C311.677 412.89 311.665 412.886 311.655 412.881C311.583 412.853 311.514 412.821 311.45 412.785L300.682 406.569C300.484 406.455 300.361 406.314 300.311 406.166C300.294 406.117 300.286 406.066 300.286 406.016L300.282 406.633C300.282 406.658 300.284 406.684 300.289 406.709C300.318 406.884 300.447 407.053 300.679 407.186L311.447 413.402C311.507 413.438 311.573 413.468 311.64 413.495C311.643 413.497 311.647 413.497 311.65 413.498C311.66 413.502 311.672 413.505 311.682 413.51C311.721 413.523 311.761 413.539 311.801 413.55C311.823 413.557 311.845 413.56 311.867 413.567C311.881 413.571 311.892 413.574 311.906 413.577C311.918 413.581 311.929 413.584 311.941 413.586C311.985 413.594 312.028 413.602 312.074 413.609C312.089 413.611 312.106 413.613 312.121 413.614C312.133 413.616 312.143 413.616 312.155 413.618C312.171 413.619 312.188 413.623 312.203 413.623C312.247 413.626 312.291 413.629 312.335 413.629C312.348 413.629 312.361 413.629 312.377 413.629C312.388 413.629 312.4 413.629 312.412 413.629C312.432 413.629 312.452 413.629 312.472 413.629C312.523 413.628 312.572 413.624 312.62 413.619C312.625 413.619 312.632 413.618 312.637 413.618C312.651 413.616 312.664 413.614 312.678 413.613C312.716 413.608 312.755 413.604 312.792 413.597C312.809 413.594 312.824 413.589 312.841 413.586C312.886 413.576 312.931 413.564 312.975 413.552C312.999 413.545 313.024 413.542 313.046 413.535C313.064 413.529 313.083 413.522 313.101 413.515C313.12 413.508 313.137 413.502 313.153 413.495C313.219 413.468 313.283 413.439 313.34 413.406L330.798 403.26C330.803 403.257 330.81 403.254 330.815 403.25C330.827 403.242 330.838 403.235 330.85 403.227C330.867 403.217 330.884 403.205 330.899 403.195C330.912 403.185 330.924 403.174 330.936 403.164C330.949 403.153 330.964 403.143 330.978 403.131C330.981 403.129 330.983 403.126 330.986 403.124C330.991 403.119 330.995 403.114 331 403.109C331.02 403.089 331.038 403.069 331.057 403.048C331.06 403.043 331.065 403.04 331.07 403.035C331.074 403.03 331.075 403.026 331.079 403.021C331.091 403.006 331.101 402.991 331.111 402.974C331.114 402.968 331.121 402.961 331.124 402.954C331.126 402.951 331.128 402.947 331.129 402.944C331.136 402.931 331.143 402.916 331.149 402.902C331.153 402.894 331.158 402.885 331.161 402.879C331.163 402.875 331.163 402.873 331.163 402.87C331.168 402.857 331.171 402.843 331.175 402.83C331.176 402.821 331.181 402.811 331.183 402.803V402.796C331.186 402.783 331.186 402.768 331.188 402.754C331.19 402.746 331.191 402.736 331.191 402.727C331.191 402.724 331.191 402.719 331.191 402.715L331.195 402.098C331.196 402.108 331.195 402.12 331.193 402.134Z" fill="#3D3B36"/>
<path d="M329.212 401.737C329.38 401.834 329.38 401.992 329.213 402.09L314.572 410.598C314.403 410.695 314.129 410.695 313.963 410.598L304.265 404.999C304.096 404.901 304.095 404.743 304.263 404.646L318.905 396.138C319.073 396.04 319.345 396.04 319.515 396.138L329.212 401.737Z" fill="url(#paint0_linear_2052_990)"/>
<path d="M308.665 408.817C308.85 408.925 308.852 409.098 308.667 409.206L308.425 409.347C308.24 409.454 307.941 409.454 307.756 409.347L306.281 408.494C306.096 408.387 306.095 408.214 306.279 408.106L306.522 407.965C306.707 407.857 307.006 407.857 307.191 407.965L308.665 408.817Z" fill="#DCDCDC"/>
<path d="M445.539 434.427C445.012 434.731 445.011 435.222 445.532 435.525L462.99 445.67C463.513 445.975 464.359 445.975 464.885 445.67L475.653 439.454C476.177 439.151 476.181 438.661 475.659 438.356L458.201 428.211C457.68 427.908 456.831 427.908 456.306 428.211L445.539 434.427Z" fill="#514C51"/>
<path d="M445.146 435.02C445.148 435.034 445.148 435.049 445.151 435.062C445.153 435.074 445.156 435.086 445.159 435.096C445.163 435.109 445.166 435.123 445.171 435.136C445.175 435.148 445.18 435.158 445.185 435.168C445.191 435.182 445.196 435.197 445.205 435.21C445.21 435.22 445.217 435.23 445.223 435.24C445.233 435.255 445.243 435.272 445.255 435.287C445.262 435.296 445.269 435.306 445.277 435.314C445.294 435.334 445.314 435.355 445.334 435.375C445.343 435.382 445.349 435.39 445.356 435.397C445.37 435.408 445.383 435.419 445.396 435.43C445.408 435.44 445.42 435.45 445.433 435.461C445.449 435.472 445.465 435.482 445.482 435.493C445.499 435.504 445.514 435.514 445.533 435.524L462.991 445.67C463.049 445.704 463.112 445.732 463.177 445.759C463.194 445.766 463.213 445.773 463.229 445.779C463.27 445.794 463.313 445.806 463.356 445.818C463.399 445.83 463.445 445.842 463.49 445.852C463.544 445.863 463.598 445.874 463.651 445.88C463.665 445.882 463.678 445.885 463.692 445.885C463.766 445.894 463.841 445.897 463.917 445.899C463.929 445.899 463.941 445.899 463.952 445.899C464.026 445.899 464.102 445.894 464.174 445.887C464.186 445.885 464.196 445.885 464.208 445.884C464.28 445.875 464.353 445.862 464.423 445.847C464.437 445.843 464.448 445.84 464.462 445.837C464.526 445.821 464.588 445.801 464.648 445.779C464.659 445.776 464.67 445.773 464.68 445.768C464.753 445.739 464.822 445.707 464.886 445.672L475.653 439.456C475.852 439.341 475.974 439.2 476.025 439.052C476.042 439.003 476.05 438.953 476.05 438.902L476.053 439.519C476.053 439.545 476.052 439.57 476.047 439.593C476.018 439.768 475.889 439.938 475.657 440.071L464.889 446.287C464.828 446.322 464.763 446.353 464.696 446.38C464.692 446.381 464.689 446.381 464.685 446.383C464.675 446.386 464.664 446.39 464.654 446.395C464.615 446.408 464.575 446.423 464.534 446.435C464.512 446.442 464.49 446.445 464.469 446.452C464.455 446.455 464.443 446.459 464.43 446.462C464.418 446.465 464.406 446.469 464.395 446.47C464.351 446.479 464.307 446.487 464.262 446.494C464.247 446.496 464.23 446.497 464.215 446.499C464.203 446.501 464.193 446.501 464.181 446.502C464.164 446.504 464.147 446.507 464.132 446.507C464.089 446.511 464.045 446.514 464.001 446.514C463.988 446.514 463.974 446.514 463.959 446.514C463.947 446.514 463.936 446.514 463.924 446.514C463.904 446.514 463.883 446.514 463.863 446.514C463.813 446.512 463.764 446.509 463.715 446.504C463.71 446.504 463.704 446.502 463.698 446.502C463.685 446.501 463.672 446.499 463.658 446.497C463.619 446.492 463.583 446.489 463.544 446.482C463.527 446.479 463.512 446.474 463.495 446.47C463.45 446.46 463.404 446.449 463.361 446.437C463.337 446.43 463.312 446.427 463.29 446.418C463.271 446.412 463.253 446.405 463.234 446.398C463.218 446.391 463.199 446.385 463.182 446.378C463.117 446.351 463.053 446.322 462.996 446.289L445.538 436.143C445.533 436.14 445.526 436.136 445.521 436.133C445.509 436.126 445.497 436.118 445.486 436.11C445.469 436.1 445.452 436.089 445.437 436.078C445.423 436.068 445.412 436.057 445.4 436.047C445.386 436.036 445.371 436.026 445.359 436.014C445.356 436.012 445.351 436.007 445.351 436.007C445.346 436.002 445.343 435.997 445.338 435.992C445.317 435.972 445.299 435.952 445.28 435.931C445.277 435.926 445.272 435.923 445.269 435.918C445.265 435.913 445.262 435.91 445.26 435.904C445.248 435.889 445.238 435.874 445.228 435.857C445.223 435.851 445.218 435.844 445.215 435.837C445.213 435.834 445.211 435.831 445.21 435.827C445.203 435.814 445.196 435.8 445.19 435.785C445.186 435.777 445.181 435.768 445.178 435.76C445.176 435.757 445.176 435.755 445.176 435.751C445.171 435.738 445.168 435.725 445.164 435.711C445.163 435.703 445.158 435.693 445.156 435.684L445.154 435.677C445.153 435.664 445.151 435.649 445.149 435.635C445.148 435.627 445.146 435.617 445.146 435.609C445.146 435.605 445.146 435.6 445.146 435.597L445.143 434.98C445.143 434.993 445.144 435.007 445.146 435.02Z" fill="#3D3B36"/>
<path d="M447.127 434.623C446.959 434.721 446.959 434.879 447.126 434.976L461.767 443.484C461.935 443.582 462.208 443.582 462.376 443.484L472.074 437.885C472.244 437.788 472.244 437.63 472.076 437.532L457.434 429.024C457.266 428.927 456.994 428.927 456.824 429.024L447.127 434.623Z" fill="url(#paint1_linear_2052_990)"/>
<path d="M467.675 441.702C467.49 441.81 467.488 441.983 467.673 442.091L467.915 442.232C468.1 442.339 468.399 442.339 468.584 442.232L470.059 441.379C470.244 441.272 470.246 441.099 470.061 440.991L469.818 440.85C469.634 440.742 469.334 440.742 469.149 440.85L467.675 441.702Z" fill="#DCDCDC"/>
<path d="M454.788 381.935C454.783 381.876 454.786 381.819 454.791 381.76L454.831 380.028C454.867 380.459 455.188 380.911 455.79 381.276L485.078 399.114C486.263 399.835 488.078 399.953 489.132 399.378L535.08 374.266C535.53 374.019 535.767 373.686 535.801 373.33H535.804L535.761 375.188C535.749 375.566 535.51 375.922 535.036 376.181L489.088 401.293C488.034 401.87 486.22 401.752 485.034 401.031L455.746 383.193C455.147 382.828 454.825 382.379 454.788 381.95V381.935Z" fill="#3D3B36"/>
<path d="M522.896 364.642L534.843 371.917C536.028 372.639 536.132 373.691 535.08 374.266L489.132 399.378C488.078 399.955 486.264 399.835 485.078 399.114L473.127 391.837L522.896 364.642Z" fill="url(#paint2_linear_2052_990)"/>
<path d="M534.846 371.917C535.423 372.269 535.739 372.697 535.795 373.113C535.778 373.486 535.551 373.837 535.082 374.093L489.134 399.205C488.08 399.781 486.266 399.662 485.08 398.941L473.28 391.754L522.898 364.64L534.846 371.917Z" fill="#F1F1F1"/>
<path d="M473.129 391.837L455.792 381.278C454.607 380.556 454.501 379.504 455.555 378.929L501.503 353.817C502.557 353.24 504.373 353.36 505.557 354.081L522.897 364.642L473.129 391.837Z" fill="#9EADD3"/>
<path d="M515.501 384.56L508.005 388.656C507.804 388.765 507.799 388.95 507.994 389.069L516.216 384.575C516.022 384.457 515.703 384.45 515.501 384.56Z" fill="url(#paint3_linear_2052_990)"/>
<path d="M498.473 356.07L459.621 377.304L459.104 376.99L497.957 355.756L498.473 356.07Z" fill="#1E1E1E"/>
<path opacity="0.4" d="M514.558 378.639L508.382 374.878C508.014 374.655 507.407 374.641 507.027 374.85L491.659 383.248C491.279 383.457 491.269 383.806 491.637 384.03L497.813 387.791L514.558 378.639Z" fill="#9EADD3"/>
<g opacity="0.4">
<path d="M506.311 383.443L498.07 387.948L501.413 389.984C501.781 390.208 502.388 390.221 502.768 390.013L510.319 385.885L506.311 383.443Z" fill="#9EADD3"/>
<path d="M506.576 383.299L510.586 385.74L518.137 381.614C518.517 381.405 518.528 381.056 518.159 380.832L514.817 378.796L506.576 383.299Z" fill="#9EADD3"/>
</g>
<path opacity="0.6" d="M491.65 383.586L507.017 375.187C507.397 374.979 508.004 374.992 508.373 375.216L514.259 378.801L514.557 378.638L508.381 374.876C508.013 374.653 507.406 374.639 507.026 374.848L491.658 383.246C491.389 383.393 491.31 383.61 491.412 383.805C491.459 383.724 491.535 383.648 491.65 383.586Z" fill="#9EADD3"/>
<path opacity="0.6" d="M506.3 383.783L510.02 386.048L510.317 385.886L506.309 383.443L498.068 387.948L498.358 388.124L506.3 383.783Z" fill="#9EADD3"/>
<path opacity="0.6" d="M514.804 379.136L518.147 381.172C518.256 381.237 518.327 381.315 518.37 381.397C518.481 381.209 518.412 380.99 518.155 380.832L514.811 378.796L506.57 383.299L506.86 383.475L514.804 379.136Z" fill="#9EADD3"/>
<path d="M465.843 381.508L463.545 382.764C463.404 382.841 463.162 382.824 463.003 382.729L460.86 381.422C460.702 381.326 460.688 381.185 460.828 381.109L463.126 379.853C463.267 379.776 463.51 379.793 463.668 379.889L465.811 381.195C465.971 381.291 465.985 381.432 465.843 381.508Z" fill="#1E1E1E"/>
<path d="M468.957 379.808L466.656 381.064C466.517 381.142 466.275 381.125 466.117 381.029L463.973 379.722C463.815 379.627 463.801 379.485 463.941 379.41L466.239 378.154C466.381 378.076 466.623 378.093 466.781 378.189L468.925 379.495C469.083 379.591 469.096 379.731 468.957 379.808Z" fill="#1E1E1E"/>
<path d="M472.064 378.108L469.766 379.364C469.625 379.441 469.382 379.425 469.226 379.329L467.082 378.022C466.924 377.926 466.911 377.785 467.05 377.71L469.349 376.454C469.49 376.376 469.732 376.393 469.89 376.489L472.034 377.795C472.19 377.891 472.206 378.031 472.064 378.108Z" fill="#1E1E1E"/>
<path d="M475.179 376.408L472.879 377.664C472.738 377.742 472.497 377.725 472.337 377.629L470.194 376.323C470.036 376.227 470.022 376.085 470.162 376.01L472.46 374.754C472.601 374.676 472.844 374.693 473.002 374.789L475.145 376.096C475.305 376.191 475.32 376.331 475.179 376.408Z" fill="#1E1E1E"/>
<path d="M478.288 374.708L475.989 375.964C475.848 376.042 475.606 376.025 475.45 375.929L473.306 374.623C473.148 374.527 473.134 374.386 473.274 374.31L475.572 373.054C475.714 372.977 475.956 372.993 476.112 373.089L478.256 374.396C478.414 374.49 478.429 374.631 478.288 374.708Z" fill="#1E1E1E"/>
<path d="M481.399 373.007L479.101 374.263C478.959 374.34 478.717 374.323 478.559 374.228L476.415 372.921C476.257 372.825 476.244 372.684 476.383 372.608L478.684 371.352C478.825 371.275 479.065 371.292 479.225 371.388L481.369 372.694C481.525 372.79 481.539 372.931 481.399 373.007Z" fill="#1E1E1E"/>
<path d="M484.51 371.307L482.21 372.563C482.069 372.64 481.828 372.624 481.67 372.528L479.527 371.221C479.369 371.125 479.355 370.984 479.495 370.908L481.793 369.653C481.934 369.575 482.177 369.592 482.333 369.688L484.477 370.994C484.636 371.09 484.65 371.23 484.51 371.307Z" fill="#1E1E1E"/>
<path d="M487.622 369.607L485.323 370.863C485.182 370.94 484.94 370.924 484.784 370.828L482.64 369.521C482.482 369.425 482.468 369.284 482.608 369.209L484.908 367.953C485.048 367.875 485.29 367.892 485.448 367.988L487.592 369.294C487.748 369.39 487.763 369.53 487.622 369.607Z" fill="#1E1E1E"/>
<path d="M490.733 367.907L488.435 369.163C488.293 369.24 488.051 369.224 487.893 369.128L485.749 367.821C485.591 367.725 485.578 367.584 485.717 367.509L488.016 366.253C488.157 366.175 488.399 366.192 488.556 366.288L490.699 367.594C490.859 367.69 490.874 367.83 490.733 367.907Z" fill="#1E1E1E"/>
<path d="M493.842 366.207L491.544 367.463C491.403 367.541 491.161 367.524 491.002 367.428L488.859 366.121C488.701 366.026 488.687 365.884 488.827 365.809L491.127 364.553C491.268 364.475 491.509 364.492 491.667 364.588L493.81 365.894C493.97 365.989 493.984 366.13 493.842 366.207Z" fill="#1E1E1E"/>
<path d="M496.955 364.506L494.656 365.762C494.515 365.839 494.273 365.822 494.115 365.726L491.971 364.42C491.813 364.324 491.8 364.183 491.939 364.107L494.239 362.851C494.38 362.774 494.621 362.791 494.779 362.887L496.923 364.193C497.081 364.289 497.094 364.43 496.955 364.506Z" fill="#1E1E1E"/>
<path d="M500.066 362.806L497.766 364.062C497.625 364.139 497.384 364.122 497.226 364.026L495.082 362.72C494.924 362.624 494.911 362.483 495.05 362.407L497.349 361.151C497.49 361.074 497.732 361.091 497.89 361.187L500.034 362.493C500.192 362.589 500.206 362.728 500.066 362.806Z" fill="#1E1E1E"/>
<path d="M503.175 361.106L500.877 362.362C500.736 362.439 500.494 362.422 500.335 362.327L498.192 361.02C498.034 360.924 498.02 360.783 498.16 360.707L500.458 359.451C500.599 359.374 500.842 359.391 501 359.487L503.143 360.793C503.302 360.889 503.317 361.029 503.175 361.106Z" fill="#1E1E1E"/>
<path d="M507.693 358.638L503.988 360.662C503.847 360.739 503.605 360.723 503.449 360.627L501.305 359.32C501.147 359.224 501.133 359.083 501.273 359.007L504.977 356.983C505.118 356.906 505.361 356.923 505.517 357.018L507.661 358.325C507.819 358.421 507.834 358.56 507.693 358.638Z" fill="#1E1E1E"/>
<path d="M505.683 360.072L507.981 358.816C508.122 358.739 508.365 358.755 508.523 358.851L510.666 360.158C510.824 360.253 510.838 360.395 510.698 360.47L508.4 361.726C508.259 361.804 508.016 361.787 507.86 361.691L505.716 360.385C505.557 360.29 505.541 360.149 505.683 360.072Z" fill="#1E1E1E"/>
<path d="M502.574 361.773L504.873 360.517C505.014 360.44 505.256 360.457 505.414 360.553L507.558 361.859C507.716 361.955 507.729 362.096 507.59 362.172L505.29 363.428C505.148 363.505 504.908 363.488 504.75 363.392L502.606 362.086C502.446 361.99 502.433 361.849 502.574 361.773Z" fill="#1E1E1E"/>
<path d="M499.459 363.473L501.76 362.217C501.899 362.14 502.143 362.157 502.299 362.253L504.443 363.559C504.601 363.655 504.615 363.796 504.475 363.872L502.177 365.128C502.035 365.205 501.793 365.188 501.637 365.092L499.493 363.786C499.333 363.69 499.32 363.549 499.459 363.473Z" fill="#1E1E1E"/>
<path d="M496.348 365.173L498.647 363.917C498.788 363.84 499.03 363.857 499.188 363.952L501.332 365.259C501.49 365.355 501.503 365.496 501.364 365.572L499.065 366.828C498.924 366.905 498.682 366.888 498.524 366.792L496.38 365.486C496.222 365.39 496.209 365.251 496.348 365.173Z" fill="#1E1E1E"/>
<path d="M493.24 366.873L495.538 365.617C495.679 365.54 495.922 365.557 496.078 365.652L498.222 366.959C498.38 367.055 498.393 367.196 498.254 367.272L495.953 368.528C495.814 368.605 495.572 368.588 495.414 368.492L493.27 367.186C493.114 367.09 493.098 366.95 493.24 366.873Z" fill="#1E1E1E"/>
<path d="M490.126 368.573L492.426 367.317C492.566 367.24 492.808 367.257 492.966 367.352L495.11 368.659C495.268 368.755 495.281 368.896 495.142 368.972L492.843 370.228C492.702 370.305 492.46 370.288 492.302 370.192L490.158 368.886C490 368.79 489.985 368.65 490.126 368.573Z" fill="#1E1E1E"/>
<path d="M487.018 370.273L489.317 369.017C489.458 368.94 489.7 368.956 489.858 369.052L492.002 370.359C492.16 370.455 492.174 370.596 492.034 370.672L489.734 371.928C489.593 372.005 489.352 371.988 489.194 371.892L487.05 370.586C486.891 370.492 486.877 370.35 487.018 370.273Z" fill="#1E1E1E"/>
<path d="M483.906 371.974L486.206 370.718C486.347 370.641 486.588 370.658 486.747 370.754L488.891 372.06C489.049 372.156 489.063 372.297 488.923 372.373L486.625 373.629C486.483 373.706 486.241 373.689 486.083 373.594L483.939 372.287C483.78 372.191 483.766 372.05 483.906 371.974Z" fill="#1E1E1E"/>
<path d="M480.796 373.674L483.095 372.418C483.236 372.341 483.478 372.358 483.636 372.454L485.78 373.76C485.938 373.856 485.952 373.997 485.812 374.073L483.514 375.329C483.372 375.406 483.13 375.389 482.972 375.294L480.828 373.987C480.67 373.891 480.657 373.752 480.796 373.674Z" fill="#1E1E1E"/>
<path d="M477.684 375.374L479.982 374.118C480.123 374.041 480.366 374.058 480.524 374.153L482.667 375.46C482.825 375.556 482.839 375.697 482.699 375.773L480.401 377.029C480.26 377.106 480.019 377.089 479.861 376.993L477.717 375.687C477.558 375.591 477.542 375.451 477.684 375.374Z" fill="#1E1E1E"/>
<path d="M474.574 377.074L476.875 375.818C477.016 375.741 477.256 375.758 477.414 375.854L479.558 377.16C479.716 377.256 479.73 377.397 479.59 377.473L477.292 378.729C477.15 378.806 476.908 378.789 476.75 378.693L474.606 377.387C474.448 377.291 474.433 377.152 474.574 377.074Z" fill="#1E1E1E"/>
<path d="M471.464 378.774L473.762 377.518C473.903 377.441 474.146 377.457 474.302 377.553L476.446 378.86C476.604 378.956 476.617 379.097 476.478 379.173L474.179 380.429C474.038 380.506 473.796 380.489 473.639 380.393L471.496 379.087C471.336 378.991 471.323 378.851 471.464 378.774Z" fill="#1E1E1E"/>
<path d="M468.35 380.476L470.649 379.22C470.79 379.142 471.032 379.159 471.19 379.255L473.334 380.561C473.492 380.657 473.505 380.798 473.366 380.874L471.067 382.13C470.928 382.208 470.684 382.191 470.527 382.095L468.384 380.788C468.224 380.693 468.21 380.551 468.35 380.476Z" fill="#1E1E1E"/>
<path d="M463.835 382.944L467.539 380.919C467.68 380.842 467.922 380.859 468.08 380.955L470.224 382.261C470.382 382.357 470.395 382.498 470.256 382.574L466.552 384.598C466.41 384.676 466.168 384.659 466.01 384.563L463.867 383.256C463.708 383.161 463.695 383.019 463.835 382.944Z" fill="#1E1E1E"/>
<path d="M506.447 363.132L510.991 360.649C511.133 360.571 511.375 360.588 511.533 360.684L513.677 361.99C513.835 362.086 513.848 362.227 513.709 362.303L509.164 364.787C509.022 364.864 508.78 364.847 508.622 364.751L506.478 363.445C506.32 363.349 506.305 363.209 506.447 363.132Z" fill="#1E1E1E"/>
<path d="M466.87 384.762L471.415 382.278C471.556 382.201 471.797 382.218 471.955 382.314L474.099 383.62C474.257 383.716 474.27 383.857 474.131 383.933L469.586 386.416C469.445 386.493 469.202 386.477 469.046 386.381L466.902 385.074C466.744 384.979 466.729 384.839 466.87 384.762Z" fill="#1E1E1E"/>
<path d="M503.335 364.832L505.634 363.576C505.775 363.499 506.017 363.515 506.173 363.611L508.317 364.918C508.475 365.013 508.49 365.155 508.349 365.23L506.051 366.486C505.909 366.564 505.667 366.547 505.511 366.451L503.367 365.145C503.209 365.049 503.194 364.909 503.335 364.832Z" fill="#1E1E1E"/>
<path d="M500.226 366.532L502.525 365.276C502.666 365.198 502.908 365.215 503.065 365.311L505.208 366.618C505.366 366.713 505.38 366.855 505.24 366.93L502.942 368.186C502.801 368.264 502.559 368.247 502.402 368.151L500.258 366.845C500.099 366.75 500.085 366.609 500.226 366.532Z" fill="#1E1E1E"/>
<path d="M497.116 368.233L499.414 366.977C499.556 366.9 499.798 366.917 499.956 367.013L502.1 368.319C502.258 368.415 502.271 368.556 502.131 368.632L499.831 369.888C499.69 369.965 499.45 369.948 499.292 369.853L497.148 368.546C496.99 368.45 496.976 368.309 497.116 368.233Z" fill="#1E1E1E"/>
<path d="M494.003 369.933L496.303 368.677C496.444 368.6 496.685 368.617 496.845 368.713L498.988 370.019C499.146 370.115 499.16 370.256 499.02 370.332L496.722 371.588C496.581 371.665 496.338 371.648 496.18 371.553L494.037 370.246C493.877 370.15 493.862 370.011 494.003 369.933Z" fill="#1E1E1E"/>
<path d="M490.892 371.633L493.19 370.377C493.332 370.3 493.574 370.317 493.732 370.412L495.876 371.719C496.034 371.815 496.047 371.956 495.908 372.032L493.609 373.288C493.468 373.365 493.226 373.348 493.068 373.252L490.924 371.946C490.766 371.85 490.751 371.71 490.892 371.633Z" fill="#1E1E1E"/>
<path d="M487.783 373.333L490.082 372.077C490.223 372 490.465 372.017 490.623 372.112L492.767 373.419C492.925 373.515 492.939 373.656 492.799 373.732L490.501 374.988C490.359 375.065 490.119 375.048 489.959 374.952L487.815 373.646C487.657 373.55 487.642 373.41 487.783 373.333Z" fill="#1E1E1E"/>
<path d="M484.67 375.033L486.97 373.777C487.109 373.7 487.351 373.717 487.509 373.812L489.653 375.119C489.811 375.215 489.825 375.356 489.685 375.432L487.387 376.688C487.245 376.765 487.003 376.748 486.845 376.652L484.701 375.346C484.543 375.252 484.53 375.11 484.67 375.033Z" fill="#1E1E1E"/>
<path d="M481.558 376.735L483.857 375.479C483.998 375.401 484.24 375.418 484.398 375.514L486.542 376.82C486.7 376.916 486.713 377.057 486.574 377.133L484.274 378.389C484.134 378.467 483.892 378.45 483.734 378.354L481.59 377.047C481.432 376.952 481.419 376.81 481.558 376.735Z" fill="#1E1E1E"/>
<path d="M478.45 378.434L480.75 377.178C480.891 377.101 481.133 377.118 481.289 377.214L483.433 378.52C483.591 378.616 483.605 378.757 483.465 378.833L481.167 380.089C481.025 380.166 480.783 380.149 480.625 380.054L478.481 378.747C478.323 378.651 478.308 378.51 478.45 378.434Z" fill="#1E1E1E"/>
<path d="M475.336 380.134L477.635 378.878C477.776 378.801 478.018 378.818 478.176 378.914L480.32 380.22C480.478 380.316 480.491 380.457 480.352 380.533L478.053 381.789C477.912 381.866 477.67 381.849 477.513 381.754L475.37 380.447C475.21 380.351 475.195 380.212 475.336 380.134Z" fill="#1E1E1E"/>
<path d="M472.228 381.834L474.526 380.578C474.667 380.501 474.909 380.518 475.067 380.614L477.211 381.92C477.369 382.016 477.383 382.157 477.243 382.233L474.943 383.489C474.802 383.566 474.561 383.549 474.402 383.453L472.258 382.147C472.1 382.051 472.086 381.912 472.228 381.834Z" fill="#1E1E1E"/>
<path d="M507.91 365.809L514 362.481C514.142 362.404 514.382 362.421 514.54 362.517L516.684 363.823C516.842 363.919 516.855 364.06 516.716 364.136L510.627 367.463C510.488 367.541 510.244 367.524 510.088 367.428L507.944 366.122C507.784 366.026 507.769 365.886 507.91 365.809Z" fill="#1E1E1E"/>
<path d="M504.799 367.509L507.099 366.253C507.239 366.176 507.481 366.192 507.639 366.288L509.783 367.595C509.941 367.69 509.954 367.832 509.815 367.907L507.515 369.163C507.373 369.241 507.133 369.224 506.973 369.128L504.83 367.822C504.673 367.726 504.658 367.586 504.799 367.509Z" fill="#1E1E1E"/>
<path d="M501.69 369.209L503.989 367.953C504.13 367.875 504.372 367.892 504.529 367.988L506.672 369.294C506.83 369.39 506.844 369.531 506.704 369.607L504.406 370.863C504.265 370.94 504.023 370.924 503.865 370.828L501.721 369.521C501.563 369.425 501.549 369.286 501.69 369.209Z" fill="#1E1E1E"/>
<path d="M498.576 370.91L500.874 369.654C501.015 369.577 501.258 369.594 501.416 369.69L503.559 370.996C503.718 371.092 503.731 371.233 503.591 371.309L501.293 372.565C501.152 372.642 500.91 372.625 500.752 372.529L498.608 371.223C498.45 371.127 498.436 370.986 498.576 370.91Z" fill="#1E1E1E"/>
<path d="M495.467 372.61L497.766 371.354C497.907 371.277 498.149 371.294 498.307 371.389L500.451 372.696C500.609 372.792 500.623 372.933 500.483 373.009L498.185 374.265C498.043 374.342 497.801 374.325 497.643 374.229L495.499 372.923C495.341 372.827 495.328 372.686 495.467 372.61Z" fill="#1E1E1E"/>
<path d="M492.357 374.31L494.655 373.054C494.795 372.977 495.039 372.994 495.195 373.089L497.339 374.396C497.497 374.492 497.51 374.633 497.371 374.709L495.072 375.965C494.931 376.042 494.689 376.025 494.532 375.929L492.389 374.623C492.231 374.527 492.215 374.387 492.357 374.31Z" fill="#1E1E1E"/>
<path d="M489.244 376.01L491.542 374.754C491.683 374.676 491.925 374.693 492.083 374.789L494.227 376.096C494.385 376.191 494.399 376.333 494.259 376.408L491.959 377.664C491.818 377.742 491.577 377.725 491.418 377.629L489.274 376.323C489.118 376.227 489.102 376.087 489.244 376.01Z" fill="#1E1E1E"/>
<path d="M486.133 377.71L488.434 376.454C488.575 376.376 488.815 376.393 488.973 376.489L491.117 377.796C491.275 377.891 491.289 378.033 491.149 378.108L488.851 379.364C488.709 379.442 488.467 379.425 488.309 379.329L486.165 378.023C486.007 377.927 485.994 377.787 486.133 377.71Z" fill="#1E1E1E"/>
<path d="M483.024 379.411L485.322 378.155C485.464 378.078 485.706 378.095 485.864 378.191L488.008 379.497C488.166 379.593 488.179 379.734 488.04 379.81L485.741 381.066C485.6 381.143 485.358 381.126 485.2 381.03L483.056 379.724C482.898 379.628 482.884 379.487 483.024 379.411Z" fill="#1E1E1E"/>
<path d="M479.912 381.111L482.21 379.855C482.351 379.778 482.593 379.795 482.751 379.891L484.895 381.197C485.053 381.293 485.067 381.434 484.927 381.51L482.627 382.766C482.486 382.843 482.245 382.826 482.086 382.731L479.942 381.424C479.785 381.328 479.77 381.187 479.912 381.111Z" fill="#1E1E1E"/>
<path d="M476.801 382.811L479.1 381.555C479.241 381.478 479.483 381.495 479.641 381.59L481.785 382.897C481.943 382.993 481.956 383.134 481.817 383.21L479.518 384.466C479.377 384.543 479.135 384.526 478.977 384.43L476.833 383.124C476.675 383.028 476.66 382.888 476.801 382.811Z" fill="#1E1E1E"/>
<path d="M469.877 386.594L475.989 383.255C476.13 383.178 476.373 383.195 476.531 383.29L478.674 384.597C478.832 384.693 478.846 384.834 478.706 384.91L472.594 388.249C472.453 388.326 472.211 388.309 472.055 388.213L469.911 386.909C469.751 386.811 469.738 386.672 469.877 386.594Z" fill="#1E1E1E"/>
<path d="M486.036 381.242L500.778 373.185C500.919 373.108 501.162 373.125 501.318 373.221L503.462 374.527C503.62 374.623 503.633 374.764 503.494 374.84L488.751 382.897C488.61 382.974 488.368 382.958 488.21 382.862L486.066 381.555C485.909 381.461 485.894 381.32 486.036 381.242Z" fill="#1E1E1E"/>
<path d="M505.377 370.671L507.676 369.415C507.817 369.338 508.059 369.355 508.217 369.451L510.361 370.757C510.519 370.853 510.532 370.994 510.393 371.07L508.093 372.326C507.953 372.403 507.711 372.387 507.553 372.291L505.409 370.984C505.251 370.888 505.236 370.747 505.377 370.671Z" fill="#1E1E1E"/>
<path d="M501.587 372.743L504.565 371.115C504.706 371.038 504.947 371.055 505.105 371.151L507.248 372.457C507.407 372.553 507.42 372.694 507.28 372.77L504.303 374.397C504.161 374.475 503.919 374.458 503.763 374.362L501.619 373.056C501.461 372.96 501.446 372.819 501.587 372.743Z" fill="#1E1E1E"/>
<path d="M481.434 383.758L479.135 385.014C478.994 385.091 479.009 385.231 479.167 385.327L481.311 386.633C481.469 386.729 481.711 386.744 481.852 386.668L484.151 385.412C484.292 385.335 484.277 385.195 484.119 385.1L481.975 383.793C481.817 383.697 481.575 383.68 481.434 383.758Z" fill="#1E1E1E"/>
<path d="M485.222 381.686L482.244 383.314C482.103 383.391 482.118 383.531 482.276 383.627L484.42 384.933C484.578 385.029 484.82 385.044 484.96 384.969L487.938 383.341C488.079 383.264 488.064 383.124 487.906 383.028L485.762 381.722C485.606 381.626 485.363 381.609 485.222 381.686Z" fill="#1E1E1E"/>
<path d="M514.711 365.57L517.009 364.314C517.151 364.237 517.393 364.254 517.551 364.349L519.695 365.656C519.853 365.752 519.866 365.893 519.726 365.969L517.426 367.225C517.285 367.302 517.045 367.285 516.887 367.189L514.743 365.883C514.583 365.787 514.57 365.648 514.711 365.57Z" fill="#1E1E1E"/>
<path d="M511.6 367.27L513.899 366.014C514.04 365.937 514.28 365.954 514.44 366.049L516.584 367.356C516.742 367.452 516.755 367.593 516.616 367.669L514.317 368.925C514.176 369.002 513.934 368.985 513.776 368.889L511.632 367.583C511.474 367.487 511.461 367.347 511.6 367.27Z" fill="#1E1E1E"/>
<path d="M508.489 368.97L510.787 367.714C510.929 367.636 511.171 367.653 511.329 367.749L513.473 369.056C513.631 369.151 513.644 369.293 513.504 369.368L511.206 370.624C511.065 370.702 510.823 370.685 510.665 370.589L508.521 369.283C508.363 369.187 508.349 369.047 508.489 368.97Z" fill="#1E1E1E"/>
<path d="M472.889 388.427L478.321 385.458C478.463 385.38 478.703 385.397 478.863 385.493L481.007 386.799C481.165 386.895 481.178 387.036 481.039 387.112L475.606 390.082C475.465 390.159 475.224 390.142 475.066 390.046L472.922 388.74C472.763 388.644 472.748 388.504 472.889 388.427Z" fill="#1E1E1E"/>
<path d="M462.834 379.675L460.535 380.931C460.394 381.009 460.152 380.992 459.994 380.896L458.928 380.247C458.77 380.151 458.757 380.01 458.896 379.934L461.195 378.678C461.336 378.601 461.578 378.618 461.736 378.713L462.802 379.363C462.96 379.458 462.973 379.6 462.834 379.675Z" fill="#1E1E1E"/>
<path d="M465.943 377.975L463.645 379.232C463.504 379.309 463.261 379.292 463.103 379.196L462.037 378.547C461.879 378.451 461.866 378.31 462.005 378.234L464.304 376.978C464.445 376.901 464.687 376.918 464.845 377.014L465.911 377.663C466.069 377.759 466.085 377.898 465.943 377.975Z" fill="#1E1E1E"/>
<path d="M469.055 376.276L466.754 377.532C466.613 377.609 466.373 377.592 466.215 377.496L465.149 376.847C464.991 376.751 464.977 376.61 465.117 376.535L467.415 375.278C467.556 375.201 467.797 375.218 467.955 375.314L469.021 375.963C469.182 376.059 469.196 376.198 469.055 376.276Z" fill="#1E1E1E"/>
<path d="M472.168 374.576L469.87 375.832C469.73 375.909 469.486 375.892 469.33 375.796L468.264 375.147C468.106 375.051 468.092 374.91 468.232 374.835L470.53 373.579C470.672 373.501 470.914 373.518 471.07 373.614L472.136 374.263C472.294 374.359 472.308 374.498 472.168 374.576Z" fill="#1E1E1E"/>
<path d="M475.276 372.876L472.978 374.132C472.837 374.209 472.594 374.192 472.436 374.096L471.37 373.447C471.212 373.352 471.199 373.21 471.338 373.135L473.637 371.879C473.777 371.801 474.02 371.818 474.177 371.914L475.243 372.563C475.402 372.657 475.416 372.798 475.276 372.876Z" fill="#1E1E1E"/>
<path d="M478.39 371.174L476.089 372.43C475.95 372.507 475.708 372.491 475.55 372.395L474.484 371.746C474.326 371.65 474.312 371.509 474.452 371.433L476.75 370.177C476.891 370.1 477.134 370.116 477.292 370.212L478.358 370.861C478.516 370.957 478.531 371.098 478.39 371.174Z" fill="#1E1E1E"/>
<path d="M481.499 369.474L479.201 370.73C479.061 370.808 478.817 370.791 478.661 370.695L477.595 370.046C477.437 369.95 477.424 369.809 477.563 369.733L479.862 368.477C480.003 368.4 480.245 368.417 480.403 368.513L481.469 369.162C481.625 369.257 481.64 369.399 481.499 369.474Z" fill="#1E1E1E"/>
<path d="M484.61 367.774L482.312 369.03C482.171 369.108 481.928 369.091 481.77 368.995L480.704 368.346C480.546 368.25 480.533 368.109 480.672 368.033L482.973 366.777C483.114 366.7 483.354 366.717 483.512 366.813L484.578 367.462C484.738 367.557 484.752 367.697 484.61 367.774Z" fill="#1E1E1E"/>
<path d="M487.724 366.074L485.425 367.33C485.284 367.408 485.042 367.391 484.884 367.295L483.818 366.646C483.66 366.55 483.646 366.409 483.786 366.333L486.084 365.077C486.225 365 486.468 365.017 486.624 365.113L487.69 365.762C487.85 365.857 487.863 365.997 487.724 366.074Z" fill="#1E1E1E"/>
<path d="M490.833 364.375L488.534 365.631C488.393 365.708 488.151 365.691 487.993 365.595L486.927 364.946C486.769 364.851 486.756 364.709 486.895 364.634L489.194 363.378C489.335 363.3 489.577 363.317 489.735 363.413L490.801 364.062C490.959 364.158 490.973 364.297 490.833 364.375Z" fill="#1E1E1E"/>
<path d="M493.943 362.675L491.645 363.931C491.504 364.008 491.261 363.991 491.103 363.895L490.037 363.246C489.879 363.151 489.866 363.009 490.005 362.934L492.304 361.678C492.443 361.6 492.687 361.617 492.844 361.713L493.91 362.362C494.069 362.458 494.085 362.597 493.943 362.675Z" fill="#1E1E1E"/>
<path d="M497.055 360.973L494.756 362.229C494.617 362.306 494.373 362.29 494.217 362.194L493.151 361.545C492.993 361.449 492.979 361.308 493.119 361.232L495.419 359.976C495.56 359.899 495.801 359.915 495.959 360.011L497.025 360.66C497.181 360.756 497.196 360.897 497.055 360.973Z" fill="#1E1E1E"/>
<path d="M500.162 359.273L497.864 360.529C497.722 360.606 497.48 360.59 497.322 360.494L496.256 359.845C496.098 359.749 496.085 359.608 496.224 359.532L498.523 358.276C498.664 358.199 498.904 358.216 499.064 358.311L500.13 358.96C500.29 359.056 500.303 359.197 500.162 359.273Z" fill="#1E1E1E"/>
<path d="M504.681 356.805L500.977 358.829C500.836 358.907 500.594 358.89 500.435 358.794L499.369 358.145C499.211 358.049 499.198 357.908 499.337 357.832L503.042 355.808C503.183 355.73 503.425 355.747 503.583 355.843L504.649 356.492C504.807 356.588 504.821 356.727 504.681 356.805Z" fill="#1E1E1E"/>
<path d="M455.603 382.17C455.433 382.439 465.893 389.062 468.903 390.954C471.912 392.846 487.706 401.707 487.875 401.438C488.045 401.169 472.526 391.869 469.516 389.979C466.505 388.087 455.771 381.901 455.603 382.17Z" fill="url(#paint4_linear_2052_990)"/>
<path d="M437.917 339.525L482.451 316.535C483.157 316.169 483.929 316.08 484.648 316.219L484.652 316.218C484.652 316.218 484.664 316.221 484.68 316.226C484.875 316.266 485.065 316.322 485.25 316.394C485.827 316.571 486.664 316.841 487.014 317.035C487.295 317.189 487.327 317.912 487.288 318.595L501.163 350.875C501.491 351.636 501.187 352.521 500.46 352.919L454.523 377.912L455.136 378.438C455.136 378.438 454.583 379.336 453.961 379.411C453.339 379.487 452.112 378.779 452.112 378.779C451.624 378.673 451.189 378.342 450.975 377.843L436.372 343.865C435.669 342.236 436.345 340.342 437.917 339.525Z" fill="#514C51"/>
<path d="M452.05 378.93C451.502 378.803 451.044 378.421 450.822 377.905L436.219 343.927C435.49 342.23 436.203 340.233 437.84 339.382L482.374 316.392C483.082 316.024 483.872 315.908 484.661 316.056H484.662L484.713 316.066C484.918 316.108 485.118 316.167 485.298 316.238C485.92 316.428 486.737 316.695 487.094 316.892C487.28 316.994 487.521 317.282 487.453 318.565L501.313 350.811C501.675 351.653 501.342 352.62 500.538 353.062L454.807 377.942L455.347 378.404L455.275 378.522C455.251 378.561 454.673 379.487 453.98 379.571C453.943 379.576 453.906 379.578 453.866 379.578C453.223 379.578 452.216 379.025 452.05 378.93ZM454.239 377.881L500.382 352.776C501.037 352.416 501.31 351.624 501.014 350.937L487.124 318.622L487.126 318.583C487.194 317.381 486.979 317.199 486.936 317.174C486.677 317.031 486.061 316.809 485.19 316.544C485.017 316.475 484.834 316.421 484.647 316.384L484.617 316.377C483.896 316.238 483.171 316.342 482.524 316.68L437.99 339.67C436.502 340.443 435.855 342.257 436.517 343.799L451.12 377.777C451.303 378.204 451.687 378.518 452.142 378.619L452.189 378.636C452.517 378.826 453.467 379.307 453.938 379.248C454.323 379.201 454.723 378.74 454.918 378.465L454.239 377.881Z" fill="black"/>
<path d="M445.162 349.679C445.141 349.691 445.117 349.676 445.092 349.649C445.169 349.649 445.201 349.657 445.162 349.679Z" fill="url(#paint5_linear_2052_990)"/>
<path d="M452.782 378.436C453.157 379.309 454.203 379.668 455.035 379.211L502.269 353.513C502.995 353.114 503.3 352.228 502.972 351.468L488.929 318.797C488.152 316.991 486.005 316.224 484.259 317.13L439.726 340.12C438.154 340.937 437.479 342.831 438.179 344.458" fill="#1E1E1E"/>
<path d="M454.782 378.733C455.096 378.733 455.409 378.653 455.686 378.5L501.41 353.623C502.265 353.154 502.619 352.125 502.234 351.231L488.64 319.604C488.07 318.28 486.772 317.425 485.329 317.425C484.749 317.425 484.191 317.561 483.672 317.831L440.561 340.086C438.896 340.952 438.173 342.978 438.913 344.702L453.05 377.595C453.349 378.286 454.029 378.733 454.782 378.733Z" fill="url(#paint6_linear_2052_990)"/>
<path d="M501.938 351.359L488.344 319.732C487.592 317.983 485.512 317.241 483.824 318.119L440.713 340.374C439.191 341.166 438.537 342.997 439.215 344.573L453.352 377.466C453.715 378.31 454.728 378.658 455.533 378.216L501.259 353.339C501.96 352.953 502.254 352.097 501.938 351.359Z" fill="#514C51"/>
<path d="M499.153 351.07L486.763 322.244C486.077 320.65 484.182 319.974 482.643 320.774L443.35 341.058C441.963 341.78 441.368 343.449 441.985 344.885L454.87 374.865C455.201 375.635 456.122 375.953 456.857 375.547L498.532 352.874C499.173 352.521 499.442 351.74 499.153 351.07Z" fill="#1AE5FF"/>
<path d="M421.244 259.855L284.733 339.187L188.708 283.746L325.219 204.416L421.244 259.855Z" fill="#E1E8F2"/>
<path opacity="0.32" d="M281.005 310.24C305.701 310.24 325.72 299.076 325.72 285.303C325.72 271.531 305.701 260.366 281.005 260.366C256.31 260.366 236.29 271.531 236.29 285.303C236.29 299.076 256.31 310.24 281.005 310.24Z" fill="#94A3C0"/>
<path d="M303.961 252.023L303.946 257.143L280.718 270.643L280.731 265.523L303.961 252.023Z" fill="#FF5668"/>
<path d="M280.734 265.523L280.72 270.643L251.301 261.976L251.316 256.856L280.734 265.523Z" fill="#E02D66"/>
<path d="M303.962 252.023L280.733 265.523L251.315 256.856C259.527 247.462 279.354 243.726 295.602 248.513C298.849 249.469 301.379 250.534 303.962 252.023Z" fill="#FF9A00"/>
<path d="M321.023 275.96C320.656 282.63 315.566 287.681 310.213 291.017C304.378 294.653 297.495 296.631 290.731 297.579C284.032 298.517 277.183 298.433 270.508 297.364C263.791 296.288 257.077 294.115 251.349 290.384C246.143 286.995 241.202 281.771 241.22 275.163C241.217 276.551 241.212 277.939 241.208 279.326C241.203 280.883 241.153 282.433 241.46 283.971C242.557 289.436 246.839 293.65 251.345 296.582C256.961 300.236 263.512 302.381 270.088 303.487C276.711 304.601 283.512 304.715 290.171 303.839C296.93 302.951 303.713 301.034 309.619 297.562C314.911 294.452 320.01 289.645 320.898 283.275C321.097 281.855 321.041 280.41 321.044 278.979C321.048 277.739 321.051 276.499 321.055 275.258C321.053 275.492 321.034 275.726 321.023 275.96Z" fill="#6C2ABB"/>
<path d="M309.29 258.823C324.904 267.837 324.983 282.453 309.472 291.467C293.959 300.481 268.73 300.481 253.117 291.467C240.625 284.256 237.693 273.752 245.636 264.666L281.201 275.146L309.29 258.823Z" fill="#7F5EFF"/>
<path d="M340.457 223.031L334.532 226.474C329.155 223.538 320.703 223.589 315.472 226.63C315.364 226.693 315.263 226.758 315.159 226.822L309.193 223.379C309.299 223.315 309.404 223.251 309.511 223.189C318.012 218.245 331.786 218.193 340.457 223.031Z" fill="#7CCCFF"/>
<path d="M341.368 223.569C348.407 227.976 349.135 234.541 343.532 239.375L337.383 235.826C339.85 233.001 339.198 229.494 335.435 227.017L341.368 223.569Z" fill="#7CCCFF"/>
<path d="M342.766 239.996C342.181 240.44 341.539 240.869 340.838 241.275C332.458 246.145 318.959 246.266 310.271 241.64L316.203 238.193C321.592 240.921 329.771 240.803 334.879 237.834C335.588 237.422 336.199 236.974 336.717 236.502L342.766 239.996Z" fill="#3EABFF"/>
<path d="M314.31 227.397C310.261 230.446 310.584 234.816 315.26 237.671L309.335 241.114C301.368 236.352 301.02 228.906 308.318 223.937L314.31 227.397Z" fill="#3EABFF"/>
<path d="M391.916 265.795C392.648 266.217 392.653 266.892 391.925 267.314C391.198 267.736 390.035 267.736 389.303 267.314L352.02 245.788C351.287 245.366 351.283 244.692 352.012 244.27C352.74 243.848 353.901 243.848 354.633 244.27L391.916 265.795Z" fill="#D4D9DF"/>
<path d="M366.158 255.9C366.876 256.316 366.881 257.003 366.167 257.419C365.439 257.841 364.25 257.841 363.532 257.427L347.71 248.292C346.978 247.87 346.987 247.189 347.715 246.765C348.429 246.35 349.605 246.343 350.336 246.765L366.158 255.9Z" fill="#D4D9DF"/>
<path d="M371.063 263.399C371.794 263.821 371.813 264.502 371.085 264.926C370.357 265.348 369.181 265.341 368.45 264.918L343.693 250.624C342.962 250.202 342.957 249.528 343.685 249.106C344.413 248.684 345.575 248.684 346.306 249.106L371.063 263.399Z" fill="#D4D9DF"/>
<path d="M454.126 235.198C454.126 235.198 452.168 238.133 451.385 239.112C450.601 240.09 443.36 245.767 441.402 246.942C439.445 248.117 445.317 252.618 449.233 252.815C453.147 253.01 455.106 246.355 457.258 246.552C457.258 246.552 455.301 248.509 455.888 249.88C456.475 251.25 458.237 249.88 459.02 248.901C459.804 247.922 461.369 245.965 462.153 243.811C462.936 241.657 462.348 237.548 462.348 237.548L454.126 235.198Z" fill="#FF9F75"/>
<path d="M480.814 192.246C485.095 194.447 486.782 199.702 484.581 203.982L468.172 235.9C465.971 240.181 460.717 241.868 456.436 239.667C452.155 237.466 450.468 232.211 452.669 227.931L469.078 196.013C471.279 191.732 476.533 190.045 480.814 192.246Z" fill="#E1E8F2"/>
<path d="M509.571 242.438L469.297 265.843L440.967 249.486L481.241 226.083L509.571 242.438Z" fill="#E1E8F2"/>
<path d="M500.232 236.951C500.853 235.71 501.887 234.058 502.712 232.817C503.54 231.576 503.54 229.923 501.885 228.062C500.231 226.202 498.578 226.409 497.544 227.028C497.544 227.028 495.682 228.475 494.443 228.475C493.202 228.475 489.275 228.475 488.654 228.682C488.034 228.889 484.933 230.543 485.967 231.576C487.001 232.61 488.24 232.403 489.688 232.196C491.136 231.989 492.945 233.328 493.565 233.533" fill="#FF9F75"/>
<path d="M475.787 256.56C476.13 256.758 476.132 257.072 475.791 257.271C475.449 257.469 474.906 257.469 474.563 257.271L457.107 247.193C456.764 246.994 456.762 246.68 457.104 246.481C457.445 246.283 457.988 246.283 458.331 246.481L475.787 256.56Z" fill="#D4D9DF"/>
<path d="M463.726 251.927C464.063 252.122 464.064 252.444 463.73 252.639C463.388 252.837 462.832 252.837 462.495 252.642L455.087 248.365C454.744 248.166 454.749 247.848 455.089 247.65C455.423 247.455 455.973 247.452 456.316 247.65L463.726 251.927Z" fill="#D4D9DF"/>
<path d="M466.025 255.438C466.368 255.637 466.377 255.954 466.035 256.153C465.694 256.351 465.144 256.348 464.801 256.149L453.209 249.457C452.866 249.259 452.865 248.945 453.206 248.746C453.547 248.548 454.091 248.548 454.434 248.746L466.025 255.438Z" fill="#D4D9DF"/>
<path d="M445.029 138.216C447.467 139.623 449.435 143.031 449.426 145.833L449.268 201.657C449.26 204.458 447.279 205.586 444.843 204.179L363.14 157.009C360.702 155.602 358.735 152.193 358.743 149.392L358.901 93.568C358.91 90.7668 360.89 89.6386 363.328 91.0459L445.029 138.216Z" fill="#7CCCFF"/>
<path d="M384.683 116.719C377.157 112.373 370.031 113.482 367.089 120.331C363.405 128.892 367.593 143.314 376.461 153.29L378.519 148.501C372.512 141.493 369.715 131.588 372.263 125.668C374.339 120.84 379.36 120.06 384.666 123.124C385.959 123.87 387.269 124.845 388.559 126.046L390.615 121.257C388.655 119.371 386.656 117.857 384.683 116.719Z" fill="#F1F1F1"/>
<path d="M390.614 121.254L388.559 126.039C388.884 126.342 389.208 126.658 389.528 126.989C396.356 134.024 399.69 144.831 396.981 151.136C396.882 151.361 396.778 151.578 396.663 151.792C396.625 151.869 396.581 151.943 396.537 152.017C394.562 155.492 390.778 156.341 386.585 154.66C385.931 154.399 385.263 154.073 384.591 153.685C384.411 153.581 384.233 153.473 384.053 153.362C383.725 153.159 383.474 152.989 383.229 152.822L383.116 152.743C382.578 152.363 382.044 151.95 381.504 151.491C381.438 151.433 381.371 151.375 381.3 151.314C381.102 151.139 380.904 150.961 380.705 150.778C380.631 150.71 380.559 150.643 380.485 150.571C380.226 150.327 379.969 150.073 379.713 149.812C379.3 149.385 378.904 148.948 378.516 148.501L376.458 153.29C376.85 153.728 377.247 154.167 377.655 154.586C378.022 154.961 378.388 155.322 378.758 155.671C378.861 155.77 378.965 155.869 379.073 155.966C379.353 156.227 379.638 156.481 379.922 156.73C380.016 156.814 380.112 156.898 380.206 156.979C380.969 157.628 381.736 158.225 382.499 158.759C382.56 158.805 382.62 158.843 382.681 158.884C383.031 159.131 383.379 159.356 383.725 159.576L383.846 159.65C384.085 159.798 384.322 159.94 384.559 160.077C385.124 160.404 385.686 160.7 386.245 160.965C386.667 161.165 387.066 161.335 387.463 161.493C393.862 164.032 399.591 162.43 402.153 156.467C405.997 147.527 401.262 132.19 391.584 122.212C391.261 121.881 390.938 121.562 390.614 121.254Z" fill="#3EABFF"/>
<path d="M420.04 147.649L420.035 149.113C420.033 149.976 419.096 150.514 418.35 150.08L411.441 146.071C411.095 145.87 410.881 145.5 410.883 145.098L410.886 143.633C410.89 142.771 411.824 142.233 412.571 142.667L419.48 146.675C419.828 146.875 420.04 147.247 420.04 147.649Z" fill="white"/>
<path d="M441.901 167.546L441.896 169.014C441.892 169.877 440.959 170.413 440.213 169.983L411.429 153.364C411.081 153.162 410.866 152.79 410.867 152.388L410.872 150.92C410.874 150.058 411.809 149.522 412.555 149.952L441.339 166.571C441.687 166.773 441.902 167.144 441.901 167.546Z" fill="white"/>
<g opacity="0.53">
<path d="M429.989 175.279L429.986 176.747C429.982 177.609 429.049 178.146 428.303 177.715L411.386 167.948C411.038 167.748 410.825 167.375 410.826 166.973L410.83 165.505C410.833 164.642 411.766 164.106 412.513 164.536L429.429 174.304C429.777 174.505 429.991 174.877 429.989 175.279Z" fill="#3EABFF"/>
</g>
<path d="M437.414 172.261L437.411 173.729C437.408 174.592 436.475 175.128 435.728 174.697L411.407 160.656C411.059 160.456 410.845 160.083 410.847 159.681L410.85 158.213C410.852 157.35 411.787 156.814 412.533 157.244L436.855 171.286C437.201 171.488 437.414 171.859 437.414 172.261Z" fill="#3EABFF"/>
<path d="M644.57 269.868V272.684C644.57 274.344 642.774 275.383 641.335 274.554L628.026 266.887C627.357 266.502 626.945 265.791 626.945 265.019V262.203C626.945 260.543 628.741 259.504 630.179 260.333L643.489 268C644.156 268.385 644.568 269.096 644.57 269.868Z" fill="#1CE5FF"/>
<path d="M686.711 308.002V310.825C686.711 312.483 684.919 313.522 683.481 312.697L628.032 280.91C627.361 280.526 626.947 279.812 626.947 279.04V276.217C626.947 274.559 628.74 273.52 630.177 274.344L685.626 306.132C686.297 306.516 686.711 307.229 686.711 308.002Z" fill="#1CE5FF"/>
<g opacity="0.53">
<path d="M663.858 322.943V325.766C663.858 327.424 662.066 328.463 660.629 327.637L628.04 308.955C627.369 308.57 626.955 307.857 626.955 307.084V304.261C626.955 302.603 628.746 301.564 630.185 302.39L662.774 321.072C663.445 321.455 663.858 322.17 663.858 322.943Z" fill="#1CE5FF"/>
</g>
<path d="M678.118 317.097L678.12 319.92C678.12 321.578 676.327 322.617 674.89 321.791L628.037 294.933C627.368 294.549 626.953 293.835 626.953 293.061L626.951 290.238C626.951 288.58 628.744 287.541 630.181 288.367L677.033 315.226C677.704 315.609 678.118 316.323 678.118 317.097Z" fill="#1CE5FF"/>
<path d="M62.7498 256.761C61.1945 257.659 59.9334 259.843 59.9385 261.632C59.9435 263.436 61.213 264.161 62.7683 263.262C64.3387 262.355 65.5998 260.171 65.5947 258.365C65.588 256.578 64.3185 255.855 62.7498 256.761Z" fill="#7CCCFF"/>
<path d="M70.9975 254.226C71.0294 254.542 71.0462 254.873 71.0479 255.218C71.0479 255.499 71.0378 255.785 71.0176 256.072C70.6612 261.143 67.1067 267.033 62.7855 269.528C58.2205 272.165 54.4996 270.028 54.4844 264.782C54.4693 259.536 58.165 253.133 62.7317 250.497C66.9991 248.032 70.5384 249.715 70.9975 254.226ZM62.7805 267.672C66.4594 265.548 69.4455 260.376 69.4338 256.148C69.422 251.937 66.4157 250.224 62.7367 252.349C59.0713 254.465 56.0868 259.637 56.0986 263.847C56.1103 268.076 59.1167 269.789 62.7805 267.672Z" fill="#7CCCFF"/>
<path d="M153.609 174.077L153.613 175.014L153.665 193.578L120.96 212.46L109.77 231.842L70.9971 254.226C71.029 254.542 71.0475 254.873 71.0475 255.218C71.0475 255.501 71.0374 255.785 71.0172 256.072L110.443 233.309L121.632 213.928L155.282 194.501L155.223 174.082L155.222 173.146L153.609 174.077Z" fill="#7CCCFF"/>
<path d="M132.268 121.308L137.786 131.142L146.206 126.282L140.688 116.447L132.268 121.308Z" fill="url(#paint7_linear_2052_990)"/>
<path d="M117.202 130.005L122.721 139.842L131.141 134.979L125.621 125.145L117.202 130.005Z" fill="url(#paint8_linear_2052_990)"/>
<path d="M102.136 138.704L107.654 148.54L116.075 143.679L110.555 133.843L102.136 138.704Z" fill="url(#paint9_linear_2052_990)"/>
<path d="M163.954 144.856L157.83 153.011L157.854 161.399L218.959 126.12L218.922 113.119L163.954 144.856Z" fill="url(#paint10_linear_2052_990)"/>
<path d="M72.1619 175.074C70.6066 175.972 69.3456 178.156 69.3506 179.962C69.3556 181.749 70.6251 182.472 72.1804 181.574C73.7508 180.668 75.0119 178.484 75.0068 176.695C75.0001 174.891 73.7323 174.168 72.1619 175.074Z" fill="#7CCCFF"/>
<path d="M80.4143 172.634C80.4412 172.927 80.4564 173.231 80.4564 173.547C80.4581 173.858 80.4446 174.171 80.4211 174.489C80.031 179.54 76.4916 185.361 72.1957 187.841C67.6307 190.477 63.9097 188.357 63.8946 183.109C63.8794 177.862 67.5752 171.444 72.1419 168.807C76.4328 166.331 79.9906 168.061 80.4143 172.634ZM72.1906 185.986C75.8695 183.863 78.8557 178.691 78.8439 174.479C78.8322 170.252 75.8275 168.538 72.1469 170.662C68.4831 172.777 65.497 177.949 65.5087 182.176C65.5205 186.388 68.5268 188.101 72.1906 185.986Z" fill="url(#paint11_linear_2052_990)"/>
<path d="M295.201 116.899C299.767 114.263 303.502 116.375 303.517 121.622C303.532 126.868 299.821 133.296 295.255 135.933C290.964 138.409 287.419 136.671 286.997 132.097C286.97 131.805 286.955 131.501 286.955 131.184C286.954 130.873 286.967 130.559 286.991 130.243C287.379 125.194 290.905 119.379 295.201 116.899ZM295.251 134.076C298.93 131.953 301.916 126.781 301.905 122.554C301.893 118.344 298.886 116.63 295.208 118.754C291.544 120.869 288.558 126.041 288.569 130.253C288.581 134.48 291.586 136.193 295.251 134.076Z" fill="#7CCCFF"/>
<path d="M242.53 162.038L242.54 165.429L281.324 143.038L281.313 139.647L242.53 162.038Z" fill="#7CCCFF"/>
<path d="M268.203 155.8L269.622 158.394L281.343 151.627L281.333 148.219L268.203 155.8Z" fill="#7CCCFF"/>
<path d="M80.4141 172.634C80.441 172.927 80.4561 173.231 80.4561 173.547C80.4578 173.857 80.4443 174.171 80.4208 174.489L145.622 136.846L145.743 179.555L153.61 175.013L153.607 174.077L155.221 173.145L155.223 174.082L199.531 148.501L229.25 165.436L286.993 132.099C286.966 131.806 286.951 131.502 286.951 131.186C286.951 130.877 286.962 130.562 286.988 130.244L229.916 163.195L200.197 146.26L147.352 176.77L147.231 134.061L80.4141 172.634Z" fill="#7CCCFF"/>
<path d="M295.217 123.166C293.661 124.064 292.4 126.248 292.405 128.037C292.41 129.841 293.68 130.564 295.235 129.666C296.806 128.76 298.067 126.576 298.062 124.77C298.056 122.983 296.787 122.258 295.217 123.166Z" fill="#7CCCFF"/>
<path d="M252.627 96.5476C254.793 95.2967 256.559 96.3022 256.565 98.7923L256.609 114.455C256.616 116.956 254.864 119.98 252.696 121.231C250.531 122.482 248.765 121.488 248.759 118.986L248.715 103.324C248.71 100.835 250.462 97.7986 252.627 96.5476Z" fill="#1CE5FF"/>
<path d="M268.278 66.2454C270.444 64.9944 272.209 65.9999 272.216 68.4901L272.32 105.385C272.327 107.887 270.575 110.91 268.407 112.161C266.242 113.412 264.476 112.418 264.469 109.916L264.365 73.0231C264.36 70.5313 266.112 67.4964 268.278 66.2454Z" fill="#1CE5FF"/>
<path d="M284.029 70.7046C286.194 69.4536 287.96 70.4591 287.967 72.961L288.032 96.3123C288.039 98.8142 286.287 101.837 284.12 103.088C281.954 104.339 280.189 103.346 280.182 100.844L280.116 77.4924C280.11 74.9921 281.863 71.9555 284.029 70.7046Z" fill="#1CE5FF"/>
<path d="M299.633 25.5403C301.799 24.2894 303.564 25.2948 303.571 27.785L303.739 87.2427C303.746 89.7446 301.994 92.7678 299.827 94.0187C297.649 95.2747 295.896 94.276 295.889 91.7741L295.721 32.3164C295.714 29.8279 297.456 26.798 299.633 25.5403Z" fill="#1CE5FF"/>
<path d="M315.303 0.537879C317.468 -0.713083 319.234 0.292393 319.24 2.78255L319.454 78.1732C319.461 80.6751 317.709 83.6983 315.541 84.9492C313.364 86.2069 311.6 85.2132 311.593 82.7113L311.38 7.32065C311.373 4.8305 313.125 1.79389 315.303 0.537879Z" fill="#1CE5FF"/>
<path d="M456.477 351.276H416.544V408.434H456.477V351.276Z" fill="#E1E8F2"/>
<path d="M458.32 396.622C458.32 396.622 456.174 394.672 453.834 394.282C451.493 393.892 442.326 394.867 439.205 393.111C436.085 391.356 436.28 385.115 438.815 383.554C441.351 381.994 447.397 382.969 451.688 382.774C455.979 382.579 452.663 375.168 455.199 374.387C457.734 373.607 458.32 375.558 458.905 377.703C459.49 379.849 459.49 384.92 461.245 386.87C463.001 388.82 466.316 390.186 466.316 390.186L458.32 396.622Z" fill="#FF8654"/>
<path d="M583.031 412.954C578.454 415.38 572.778 413.638 570.35 409.061L552.255 374.941C549.829 370.364 551.57 364.687 556.147 362.259C560.724 359.833 566.4 361.575 568.828 366.152L586.922 400.273C589.35 404.849 587.606 410.527 583.031 412.954Z" fill="#392869"/>
<path d="M511.722 457.233C513.119 464.216 534.148 469.619 545.787 467.756C557.426 465.893 572.37 458.839 571.956 445.344C571.956 445.344 571.314 392.77 571.314 382.162C571.314 371.556 564.642 363.704 564.642 363.704C564.642 363.704 558.125 356.255 537.641 360.445C537.641 360.445 520.951 364.08 513.271 376.419C513.271 376.419 506.841 388.062 508.61 416.347C510.375 444.633 511.722 457.233 511.722 457.233Z" fill="#392869"/>
<path d="M553.637 345.479C553.637 345.479 551.868 355.791 553.637 360.506C553.931 362.863 543.619 370.818 534.485 368.756C529.182 367.578 529.477 364.926 529.477 364.926C529.477 364.926 533.897 357.56 533.307 350.488C532.717 343.418 547.447 344.006 553.637 345.479Z" fill="#FF7C40"/>
<path d="M519.163 324.707C519.163 338.133 530.047 349.015 543.471 349.015C556.897 349.015 567.779 338.131 567.779 324.707C567.779 311.283 556.895 300.399 543.471 300.399C530.045 300.399 519.163 311.283 519.163 324.707Z" fill="#FF8654"/>
<path d="M519.162 326.328C519.162 326.328 518.868 350.678 524.171 355.593C529.474 360.507 537.616 350.991 550.635 347.941C563.652 344.595 540.082 319.278 540.082 319.278L519.162 326.328Z" fill="#FF8654"/>
<path d="M528.924 304.189C528.924 304.189 520.177 306.09 517.514 319.402C518.655 325.107 526.642 320.544 529.684 328.149C532.725 335.755 534.627 338.037 534.627 338.037L536.529 337.277C536.529 337.277 536.529 331.192 539.192 331.192C541.854 331.192 542.614 338.417 541.094 341.46C539.572 344.502 536.149 346.024 536.149 346.024C536.149 346.024 539.952 352.489 541.854 353.25C543.755 354.012 550.6 352.49 553.264 351.349C555.925 350.207 560.87 344.884 564.672 338.799C568.475 332.714 571.897 322.065 569.615 314.839C567.334 307.612 562.009 305.712 562.009 305.712C562.009 305.712 558.967 301.529 553.642 299.627C548.319 297.724 538.43 296.962 528.924 304.189Z" fill="#5D4270"/>
<path d="M524.738 365.545L531.077 361.995C531.077 361.995 547.304 360.474 553.135 356.67L556.179 360.982C556.179 360.982 552.122 368.84 541.727 369.856C531.333 370.87 526.516 366.814 526.516 366.814L524.738 365.545Z" fill="#E1E8F2"/>
<path d="M492.746 414.722C490.608 417.803 486.376 418.566 483.295 416.427L460.326 400.481C457.245 398.342 456.482 394.11 458.619 391.03C460.758 387.949 464.99 387.186 468.07 389.325L491.04 405.271C494.122 407.41 494.885 411.642 492.746 414.722Z" fill="#E1E8F2"/>
<path d="M498.446 428.353C493.707 426.26 491.564 420.722 493.657 415.983L509.265 380.657C511.359 375.919 516.897 373.775 521.635 375.869C526.374 377.962 528.517 383.5 526.424 388.239L510.816 423.565C508.722 428.303 503.184 430.447 498.446 428.353Z" fill="#392869"/>
<path d="M508.025 426.065C505.07 430.321 499.226 431.375 494.972 428.421L463.247 406.396C458.992 403.442 457.937 397.597 460.892 393.342C463.846 389.086 469.69 388.032 473.946 390.986L505.671 413.011C509.925 415.965 510.979 421.81 508.025 426.065Z" fill="#392869"/>
<path d="M532.563 332.026C532.563 332.026 534.493 339.199 532.287 343.888C530.08 348.578 526.495 348.578 525.39 347.751C524.287 346.923 521.804 342.234 519.046 341.958C516.563 341.682 519.873 359.061 525.114 359.337C530.355 359.613 532.563 356.302 534.218 353.545C535.872 350.786 536.701 333.958 536.701 333.958L532.563 332.026Z" fill="#5D4270"/>
<path d="M240.08 476.724C240.08 476.724 227.54 519.299 225.109 529.67C225.109 529.67 226.979 531.977 231.681 533.678C236.383 535.38 240.786 536.634 241.837 539.166C242.888 541.699 233.127 544.037 228.872 542.037C224.616 540.036 217.015 541.25 213.58 539.022C211.557 535.523 214.965 528.059 215.407 525.821C215.848 523.583 215.76 492.568 219.237 482.792C222.715 473.017 221.01 476.131 222.61 462.111C224.211 448.087 245.21 444.799 240.08 476.724Z" fill="#FF9F75"/>
<path d="M213.816 530.445C213.816 530.445 216.033 530.496 218.873 532.799C221.713 535.103 226.621 537.231 229.453 536.628C232.284 536.024 232.151 535.222 231.627 533.956C231.755 533.303 235.487 534.522 237.352 535.375C239.218 536.227 242.206 538.269 242.601 539.703C242.717 541.082 238.344 543.61 233.703 543.567C229.063 543.525 223.538 541.08 221.991 541.065C220.444 541.051 219.517 542.805 218.1 542.623C216.682 542.44 214.11 542.225 213.399 541.406C212.687 540.587 212.358 535.874 212.893 533.653C213.427 531.435 213.816 530.445 213.816 530.445Z" fill="#E1E8F2"/>
<path d="M144.664 548.252C145.427 556.733 153.409 562.494 160.61 565.596C168.453 568.976 177.076 570.339 185.584 570.23C194.269 570.119 203.136 568.458 210.967 564.604C217.8 561.241 225.054 555.143 225.03 546.847C225.047 552.886 224.623 557.878 220.27 562.595C214.666 568.666 206.229 571.937 198.291 573.574C182.807 576.771 161.722 575.227 149.959 563.306C145.226 558.511 144.58 553.455 144.562 547.075C144.582 547.471 144.614 547.862 144.664 548.252Z" fill="#C8CCDA"/>
<path d="M156.452 530.473C140.69 539.573 140.588 554.331 156.248 563.432C171.909 572.532 197.404 572.532 213.165 563.432C228.927 554.332 228.992 539.575 213.333 530.473C197.673 521.372 172.213 521.372 156.452 530.473Z" fill="#D4D9DF"/>
<path d="M177.637 512.077L177.736 547.247L183.89 550.822L183.789 515.653L177.637 512.077Z" fill="#E1E8F2"/>
<path d="M183.787 515.653L183.888 550.822L190.081 547.247L189.981 512.077L183.787 515.653Z" fill="#C8CCDA"/>
<path d="M177.637 512.077L183.789 515.653L189.983 512.077L183.829 508.502L177.637 512.077Z" fill="#4DA5DC"/>
<path d="M122.263 490.859L122.286 499.263C122.286 499.283 122.286 499.303 122.288 499.324L122.264 490.92C122.263 490.898 122.263 490.878 122.263 490.859Z" fill="#948700"/>
<path d="M122.267 490.918L122.29 499.322C122.294 499.455 122.309 499.589 122.336 499.724L122.312 491.32C122.285 491.186 122.27 491.053 122.267 490.918Z" fill="#998C00"/>
<path d="M122.309 491.32L122.332 499.724C122.359 499.862 122.399 499.999 122.452 500.137L122.428 491.734C122.376 491.596 122.337 491.458 122.309 491.32Z" fill="#9E9000"/>
<path d="M122.431 491.734L122.454 500.138C122.508 500.282 122.577 500.427 122.658 500.571L122.634 492.168C122.553 492.023 122.484 491.878 122.431 491.734Z" fill="#A39500"/>
<path d="M122.634 492.166L122.657 500.57C122.748 500.729 122.856 500.889 122.978 501.046L122.955 492.642C122.831 492.485 122.725 492.327 122.634 492.166Z" fill="#A89A00"/>
<path d="M122.953 492.643L122.977 501.047C123.125 501.235 123.294 501.419 123.489 501.598L123.466 493.195C123.271 493.015 123.099 492.83 122.953 492.643Z" fill="#AD9E00"/>
<path d="M123.467 493.193L123.49 501.597C123.791 501.876 124.149 502.142 124.561 502.39L124.538 493.987C124.126 493.74 123.768 493.472 123.467 493.193Z" fill="#B3A300"/>
<path d="M124.538 493.987L124.562 502.39C124.597 502.412 124.634 502.434 124.671 502.454L124.647 494.051C124.61 494.031 124.573 494.009 124.538 493.987Z" fill="#B8A800"/>
<path d="M248.6 487.465C248.732 487.401 248.858 487.335 248.977 487.266C250.095 486.621 250.65 485.743 250.648 484.818L250.672 493.222C250.674 494.145 250.119 495.024 249.001 495.67C248.881 495.739 248.757 495.805 248.624 495.869L179.281 529.362L179.258 520.958L248.6 487.465Z" fill="#E39A00"/>
<path d="M124.648 494.053L169.881 520.34C170.525 520.715 171.255 521.002 172.015 521.227C172.139 521.264 172.269 521.29 172.397 521.323C173.106 521.506 173.838 521.643 174.571 521.695C174.611 521.698 174.65 521.7 174.688 521.703C175.5 521.754 176.308 521.723 177.069 521.607C177.088 521.604 177.106 521.601 177.125 521.597C177.9 521.473 178.628 521.264 179.262 520.962L179.285 529.365C179.149 529.431 179.01 529.491 178.865 529.549C178.646 529.634 178.419 529.71 178.186 529.777C177.986 529.834 177.78 529.885 177.572 529.927C177.434 529.956 177.291 529.977 177.15 530.001C177.131 530.004 177.113 530.008 177.094 530.011C177.056 530.016 177.019 530.026 176.98 530.031C176.782 530.06 176.578 530.082 176.373 530.098C176.163 530.115 175.949 530.127 175.736 530.132C175.505 530.139 175.272 530.137 175.038 530.129C174.93 530.125 174.823 530.114 174.715 530.107C174.675 530.105 174.636 530.102 174.594 530.098C174.478 530.09 174.362 530.087 174.246 530.075C173.922 530.043 173.599 529.998 173.278 529.939C172.987 529.887 172.706 529.799 172.422 529.725C172.292 529.692 172.166 529.668 172.04 529.629C171.954 529.604 171.864 529.592 171.78 529.564C171.112 529.349 170.48 529.074 169.906 528.742L124.673 502.454C123.106 501.543 122.293 500.373 122.289 499.262L122.266 490.858C122.267 491.971 123.081 493.141 124.648 494.053Z" fill="#E39A00"/>
<path d="M181.999 448.344C181.879 448.413 181.765 448.485 181.656 448.56L123.605 488.616C121.475 490.099 121.922 492.467 124.646 494.051L169.879 520.338C172.605 521.922 176.692 522.187 179.258 520.958L248.601 487.463C248.732 487.399 248.858 487.334 248.977 487.265C251.432 485.847 251.173 483.315 248.263 481.624L191.737 448.776C188.825 447.084 184.453 446.926 181.999 448.344Z" fill="#DCC900"/>
<path d="M217.696 371.506C210.562 360.047 195.063 356.672 195.063 356.672C176.038 352.78 169.985 359.699 169.985 359.699C169.985 359.699 163.789 366.991 163.789 376.842C163.789 383.598 170.886 403.092 171.372 418.56C171.17 429.284 168.003 447.214 167.732 449.94C167.199 455.26 181.861 470.587 214.85 462.074C218.574 459.946 220.171 457.284 220.171 457.284L220.53 417.406C220.678 415.175 220.829 412.855 220.985 410.363C222.625 384.094 217.696 371.506 217.696 371.506Z" fill="#159BEB"/>
<path d="M180.208 342.772C180.208 342.772 181.851 352.349 180.208 356.728C179.934 358.917 189.513 366.307 197.995 364.39C202.922 363.295 202.648 360.832 202.648 360.832C202.648 360.832 198.544 353.99 199.09 347.423C199.636 340.857 185.953 341.403 180.208 342.772Z" fill="#FF9F75"/>
<path d="M212.226 323.48C212.226 335.949 202.117 346.056 189.649 346.056C177.18 346.056 167.073 335.949 167.073 323.48C167.073 311.01 177.18 300.904 189.649 300.904C202.117 300.904 212.226 311.01 212.226 323.48Z" fill="#FF8654"/>
<path d="M212.225 324.985C212.225 324.985 212.933 346.298 208.009 350.863C203.082 355.426 195.087 347.89 182.996 345.059C170.905 341.952 192.797 318.439 192.797 318.439L212.225 324.985Z" fill="#FF9F75"/>
<path d="M207.045 361.409L201.159 358.112C201.159 358.112 186.088 356.699 180.672 353.167L177.848 357.17C177.848 357.17 181.614 364.471 191.269 365.412C200.923 366.354 205.397 362.586 205.397 362.586L207.045 361.409Z" fill="white"/>
<path d="M195.695 297.766C195.695 297.766 214.009 300.971 214.924 317.453C214.466 330.272 203.936 333.02 202.562 334.394C201.188 335.767 197.984 329.815 194.779 335.767C191.574 341.719 196.152 343.093 197.984 345.381C198.898 347.672 195.236 350.417 191.574 350.876C187.912 351.334 186.71 355.456 180.672 353.166C174.634 350.876 173.718 344.467 169.139 338.057C164.561 331.648 162.73 318.37 167.765 308.756C172.805 299.14 189.743 296.85 195.695 297.766Z" fill="#852200"/>
<path d="M270.202 385.821C270.202 385.821 272.84 377.298 274.666 375.472C276.492 373.646 283.798 371.413 285.42 372.428C287.043 373.444 284.203 375.27 284.203 375.27C284.203 375.27 288.059 376.082 288.059 378.313C288.059 380.546 284.407 382.777 284.407 382.777C284.407 382.777 282.986 388.866 279.739 390.083C276.492 391.3 274.463 392.518 274.463 392.518L270.202 385.821Z" fill="#FF9F75"/>
<path d="M209.55 363.643C209.55 363.643 219.434 368.205 224.757 376.948C230.079 385.692 239.204 403.56 241.104 405.08C243.004 406.6 265.433 386.072 268.475 384.552C271.517 383.412 276.838 387.593 275.698 393.295C274.558 398.998 248.707 420.666 241.484 423.328C234.26 425.99 213.732 403.94 207.65 394.056C201.567 384.172 200.807 365.543 209.55 363.643Z" fill="#159BEB"/>
<path d="M176.164 315.651C176.164 321.489 171.431 326.222 165.593 326.222C159.756 326.222 155.022 321.489 155.022 315.651C155.022 309.813 159.756 305.08 165.593 305.08C171.431 305.08 176.164 309.813 176.164 315.651Z" fill="#852200"/>
<path d="M220.171 457.285L220.454 425.902C213.276 425.186 208.28 417.11 206.9 399.627C205.138 377.311 199.266 376.138 176.364 369.091C171.22 367.509 167.684 367.473 165.282 368.359C164.424 370.826 163.792 373.701 163.792 376.842C163.792 383.598 170.889 403.092 171.373 418.559C171.173 429.283 168.004 447.214 167.733 449.939C167.36 453.67 174.472 462.314 190.126 464.214L218.088 459.698C219.517 458.365 220.171 457.285 220.171 457.285Z" fill="#0B83CE"/>
<path d="M277.168 486.734C277.168 486.734 273.098 530.929 272.718 541.574C272.718 541.574 274.999 543.476 279.941 544.236C284.883 544.996 289.444 545.376 290.966 547.657C292.486 549.939 283.363 554.121 278.801 552.979C274.239 551.839 267.016 554.499 263.214 552.979C260.553 549.937 262.454 541.954 262.454 539.674C262.454 537.394 256.373 506.981 257.893 496.716C259.413 486.453 258.343 489.837 257.203 475.772C256.062 461.706 276.028 454.42 277.168 486.734Z" fill="#FF9F75"/>
<path d="M261.789 544.522C261.789 544.522 263.975 544.142 267.207 545.852C270.438 547.562 275.666 548.703 278.326 547.562C280.987 546.422 280.702 545.662 279.942 544.52C279.942 543.854 283.837 544.33 285.833 544.806C287.829 545.282 291.155 546.706 291.821 548.037C292.201 549.367 288.399 552.695 283.837 553.549C279.276 554.405 273.382 553.073 271.862 553.359C270.342 553.645 269.772 555.545 268.347 555.641C266.921 555.737 264.355 556.021 263.499 555.355C262.643 554.689 261.407 550.127 261.503 547.847C261.599 545.566 261.789 544.522 261.789 544.522Z" fill="#E1E8F2"/>
<path d="M168.334 436.623C168.334 436.623 185.952 453.065 221.186 443.278V450.325C221.186 450.325 221.186 449.541 227.059 450.325C232.932 451.108 238.022 449.933 242.719 450.325C247.417 450.716 256.029 455.022 261.511 459.328C266.992 463.635 270.515 471.465 270.515 474.205C270.515 476.946 268.166 484.776 266.6 485.558C265.035 486.342 251.32 485.449 245.845 486.483C240.37 487.517 229.408 494.172 214.531 495.737C199.654 497.303 180.471 492.997 171.075 485.167C161.679 477.336 164.42 457.761 165.594 451.106C166.769 444.453 168.334 436.623 168.334 436.623Z" fill="#0046A6"/>
<path d="M169.848 430.605L109.08 395.291L105.765 399.254L166.532 434.568L169.848 430.605Z" fill="#EFD600"/>
<path d="M118.866 490.022C119.387 482.026 120.748 474.17 120.931 466.121C121.128 457.452 120.706 448.788 119.515 440.196C117.585 426.252 113.845 411.018 105.765 399.254C120.373 407.743 134.982 416.232 149.59 424.722C153.419 426.946 157.246 429.171 161.074 431.395C162.739 432.364 164.973 433.221 166.423 434.504C167.373 435.343 168.035 436.942 168.641 438.028C170.428 441.237 171.946 444.594 173.283 448.013C176.177 455.414 178.228 463.15 179.582 470.979C181.201 480.356 181.85 489.883 181.734 499.393C181.671 504.508 181.416 509.631 180.911 514.722C180.666 517.202 180.385 519.682 180.062 522.152C179.886 523.508 178.843 526.547 180.479 527.499C161.404 516.414 142.328 505.328 123.253 494.243C121.55 493.254 118.72 492.395 118.866 490.022Z" fill="#EFBD00"/>
<path d="M169.846 430.605L166.53 434.568C167.616 436.152 188.271 466.241 179.67 524.955C179.346 527.212 180.691 528.357 182.525 527.297L188.343 523.94C189.939 523.018 191.238 520.81 191.252 518.966C191.249 505.155 189.959 452.171 169.846 430.605Z" fill="#E39A00"/>
<defs>
<linearGradient id="paint0_linear_2052_990" x1="306.419" y1="417.519" x2="320.121" y2="398.727" gradientUnits="userSpaceOnUse">
<stop stop-color="#574BAA"/>
<stop offset="1" stop-color="#3EABFF"/>
</linearGradient>
<linearGradient id="paint1_linear_2052_990" x1="469.92" y1="450.405" x2="456.218" y2="431.613" gradientUnits="userSpaceOnUse">
<stop stop-color="#574BAA"/>
<stop offset="1" stop-color="#3EABFF"/>
</linearGradient>
<linearGradient id="paint2_linear_2052_990" x1="500.622" y1="368.845" x2="507.784" y2="394.226" gradientUnits="userSpaceOnUse">
<stop stop-color="#D0D3D4"/>
<stop offset="0.1236" stop-color="#889299"/>
<stop offset="0.1492" stop-color="#929BA1"/>
<stop offset="0.2727" stop-color="#BCC0C3"/>
<stop offset="0.3695" stop-color="#D6D7D8"/>
<stop offset="0.427" stop-color="#E0E0E0"/>
<stop offset="0.4651" stop-color="#D5D6D6"/>
<stop offset="0.5325" stop-color="#B7BBBC"/>
<stop offset="0.621" stop-color="#879092"/>
<stop offset="0.7264" stop-color="#455558"/>
<stop offset="0.736" stop-color="#3F4F52"/>
<stop offset="0.7986" stop-color="#6C7577"/>
<stop offset="0.8939" stop-color="#AAABAA"/>
<stop offset="0.9636" stop-color="#D1CCCA"/>
<stop offset="1" stop-color="#E6E2DF"/>
</linearGradient>
<linearGradient id="paint3_linear_2052_990" x1="508.607" y1="383.332" x2="513.892" y2="388.617" gradientUnits="userSpaceOnUse">
<stop stop-color="#D0D3D4"/>
<stop offset="0.1236" stop-color="#889299"/>
<stop offset="0.1492" stop-color="#929BA1"/>
<stop offset="0.2727" stop-color="#BCC0C3"/>
<stop offset="0.3695" stop-color="#D6D7D8"/>
<stop offset="0.427" stop-color="#E0E0E0"/>
<stop offset="0.4651" stop-color="#D5D6D6"/>
<stop offset="0.5325" stop-color="#B7BBBC"/>
<stop offset="0.621" stop-color="#879092"/>
<stop offset="0.7264" stop-color="#455558"/>
<stop offset="0.736" stop-color="#3F4F52"/>
<stop offset="0.7986" stop-color="#6C7577"/>
<stop offset="0.8939" stop-color="#AAABAA"/>
<stop offset="0.9636" stop-color="#D1CCCA"/>
<stop offset="1" stop-color="#E6E2DF"/>
</linearGradient>
<linearGradient id="paint4_linear_2052_990" x1="487.585" y1="401.898" x2="455.765" y2="381.911" gradientUnits="userSpaceOnUse">
<stop stop-color="#555555" stop-opacity="0"/>
<stop offset="0.5076" stop-color="#4C4C4C"/>
<stop offset="1" stop-color="#5C5C5C" stop-opacity="0"/>
</linearGradient>
<linearGradient id="paint5_linear_2052_990" x1="446.926" y1="340.71" x2="445.309" y2="348.802" gradientUnits="userSpaceOnUse">
<stop stop-color="#555555" stop-opacity="0"/>
<stop offset="0.4067" stop-color="#606466" stop-opacity="0.7932"/>
<stop offset="0.5127" stop-color="#63696B"/>
<stop offset="1" stop-color="#5C5C5C" stop-opacity="0"/>
</linearGradient>
<linearGradient id="paint6_linear_2052_990" x1="502.389" y1="348.079" x2="438.625" y2="348.079" gradientUnits="userSpaceOnUse">
<stop stop-color="#D0D3D4"/>
<stop offset="0.1236" stop-color="#889299"/>
<stop offset="0.1492" stop-color="#929BA1"/>
<stop offset="0.2727" stop-color="#BCC0C3"/>
<stop offset="0.3695" stop-color="#D6D7D8"/>
<stop offset="0.427" stop-color="#E0E0E0"/>
<stop offset="0.4651" stop-color="#D5D6D6"/>
<stop offset="0.5325" stop-color="#B7BBBC"/>
<stop offset="0.621" stop-color="#879092"/>
<stop offset="0.7264" stop-color="#455558"/>
<stop offset="0.736" stop-color="#3F4F52"/>
<stop offset="0.7986" stop-color="#6C7577"/>
<stop offset="0.8939" stop-color="#AAABAA"/>
<stop offset="0.9636" stop-color="#D1CCCA"/>
<stop offset="1" stop-color="#E6E2DF"/>
</linearGradient>
<linearGradient id="paint7_linear_2052_990" x1="181.335" y1="10.6219" x2="71.435" y2="306.068" gradientUnits="userSpaceOnUse">
<stop stop-color="#05CCFF"/>
<stop offset="0.2003" stop-color="#05C7FF"/>
<stop offset="0.4427" stop-color="#05B8FF"/>
<stop offset="0.7068" stop-color="#04A0FF"/>
<stop offset="0.9848" stop-color="#047EFF"/>
<stop offset="1" stop-color="#047CFF"/>
</linearGradient>
<linearGradient id="paint8_linear_2052_990" x1="170.943" y1="6.75728" x2="61.0436" y2="302.201" gradientUnits="userSpaceOnUse">
<stop stop-color="#05CCFF"/>
<stop offset="0.2003" stop-color="#05C7FF"/>
<stop offset="0.4427" stop-color="#05B8FF"/>
<stop offset="0.7068" stop-color="#04A0FF"/>
<stop offset="0.9848" stop-color="#047EFF"/>
<stop offset="1" stop-color="#047CFF"/>
</linearGradient>
<linearGradient id="paint9_linear_2052_990" x1="160.548" y1="2.89515" x2="50.6523" y2="298.331" gradientUnits="userSpaceOnUse">
<stop stop-color="#05CCFF"/>
<stop offset="0.2003" stop-color="#05C7FF"/>
<stop offset="0.4427" stop-color="#05B8FF"/>
<stop offset="0.7068" stop-color="#04A0FF"/>
<stop offset="0.9848" stop-color="#047EFF"/>
<stop offset="1" stop-color="#047CFF"/>
</linearGradient>
<linearGradient id="paint10_linear_2052_990" x1="229.669" y1="28.6038" x2="119.77" y2="324.047" gradientUnits="userSpaceOnUse">
<stop stop-color="#05CCFF"/>
<stop offset="0.2003" stop-color="#05C7FF"/>
<stop offset="0.4427" stop-color="#05B8FF"/>
<stop offset="0.7068" stop-color="#04A0FF"/>
<stop offset="0.9848" stop-color="#047EFF"/>
<stop offset="1" stop-color="#047CFF"/>
</linearGradient>
<linearGradient id="paint11_linear_2052_990" x1="140.243" y1="-4.66148" x2="30.3436" y2="290.782" gradientUnits="userSpaceOnUse">
<stop stop-color="#05CCFF"/>
<stop offset="0.2003" stop-color="#05C7FF"/>
<stop offset="0.4427" stop-color="#05B8FF"/>
<stop offset="0.7068" stop-color="#04A0FF"/>
<stop offset="0.9848" stop-color="#047EFF"/>
<stop offset="1" stop-color="#047CFF"/>
</linearGradient>
</defs>
</svg>
