<svg width="711" height="622" viewBox="0 0 711 622" fill="none" xmlns="http://www.w3.org/2000/svg">
<path d="M470.727 363.667C525.245 299.254 537.183 271.864 535.856 192.917C534.529 113.969 594.07 2.73359 562.381 27.1727C530.692 51.6117 486.148 133.148 505.166 196.094C524.184 259.04 519.701 279.747 513.023 297.072C506.345 314.396 469.811 358.438 469.811 358.438L470.727 363.667Z" fill="#9CD499"/>
<path d="M503.979 321.074C504.158 320.812 504.337 320.55 504.512 320.284C507.131 313.938 520.444 281.179 521.57 265.88C522.818 248.896 508.065 209.573 516.904 175.994C525.743 142.415 526.214 112.703 528.584 89.6168C531.709 59.1498 556.166 30.3327 571.133 25.0163C571.009 24.7676 570.847 24.5394 570.653 24.3397L566.646 24.427C565.133 25.1936 563.704 26.1151 562.382 27.1769C530.692 51.6203 486.149 133.152 505.167 196.098C524.184 259.045 519.702 279.752 513.023 297.076C511.216 301.746 507.24 308.364 502.399 315.535L503.979 321.074Z" fill="#74B570"/>
<path d="M460.584 454.082C498.528 363.497 504.316 330.014 505.106 248.988C505.896 167.962 691.609 36.5528 678.729 64.8592C665.848 93.1655 630.143 162.519 579.3 197.805C528.458 233.091 514.7 269.743 510.453 311.48C506.206 353.217 470.82 442.986 470.82 442.986L461.714 458.315L460.584 454.082Z" fill="#9CD499"/>
<path d="M477.094 416.984C476.955 416.986 476.816 416.964 476.684 416.919C476.521 416.865 476.369 416.78 476.239 416.667C476.109 416.555 476.002 416.418 475.924 416.265C475.847 416.111 475.8 415.943 475.788 415.772C475.775 415.6 475.796 415.428 475.85 415.265C475.946 414.981 485.379 386.408 491.703 362.55C498.028 338.691 503.362 296.203 503.489 281.11C503.611 267.316 511.498 223.235 546.077 185.387C563.288 166.566 575.959 155.173 593.493 139.46C610.813 123.908 632.371 104.541 667.762 69.7088C667.883 69.5811 668.028 69.4791 668.189 69.4088C668.35 69.3385 668.524 69.3013 668.699 69.2995C668.875 69.2977 669.049 69.3313 669.212 69.3983C669.374 69.4653 669.522 69.5644 669.645 69.6895C669.769 69.8147 669.866 69.9634 669.93 70.1269C669.995 70.2903 670.026 70.4651 670.022 70.6408C670.017 70.8165 669.978 70.9896 669.905 71.1497C669.833 71.3097 669.729 71.4536 669.599 71.5726C634.165 106.457 612.581 125.837 595.243 141.411C577.762 157.125 565.125 168.473 548.019 187.177C513.973 224.418 506.234 267.644 506.116 281.158C505.981 296.374 500.608 339.211 494.235 363.244C487.893 387.181 478.434 415.823 478.338 416.111C478.247 416.368 478.079 416.59 477.856 416.747C477.633 416.903 477.367 416.986 477.094 416.984Z" fill="#74B570"/>
<path d="M509.483 494.243C522.049 429.817 520.295 461.986 500.286 371.122C477.388 267.12 599.548 187.583 614.948 225.885C630.347 264.187 641.691 381.249 633.808 376.775C625.925 372.301 580.945 260.511 579.051 264.859C577.156 269.206 501.29 300.088 500.858 338.468C500.426 376.849 522.652 439.887 522.652 439.887L516.89 495.661L509.483 494.243Z" fill="#9CD499"/>
<path d="M517.042 495.273C516.96 495.272 516.878 495.265 516.797 495.251L509.377 493.833C509.207 493.8 509.046 493.735 508.901 493.64C508.757 493.545 508.633 493.422 508.537 493.279C508.44 493.135 508.373 492.975 508.339 492.805C508.305 492.636 508.304 492.461 508.338 492.292C509.787 484.872 511.075 478.586 512.105 473.554C517.696 446.308 517.696 446.308 511.276 421.969C508.36 410.93 504.37 395.815 498.993 371.402C494.962 353.195 495.167 334.306 499.591 316.19C503.493 300.04 510.564 284.392 520.603 269.704C537.823 244.519 563.227 223.833 585.33 217.011C600.848 212.21 612.079 215.265 616.147 225.396C622.694 241.686 629.333 274.405 633.899 312.921C635.815 329.071 637.102 344.392 637.526 356.029C638.229 375.352 636.356 376.98 635.557 377.687C635.234 377.981 634.825 378.161 634.39 378.202C633.956 378.243 633.52 378.142 633.148 377.914C628.744 375.418 616.216 347.823 598.997 309.115C590.616 290.276 581.974 270.843 579.185 266.609C577.727 267.81 574.671 269.529 568.674 272.856C547.186 284.776 502.48 309.577 502.153 338.482C501.716 376.199 523.65 438.826 523.873 439.455C523.936 439.637 523.958 439.831 523.938 440.022L518.334 494.099C518.315 494.28 518.258 494.455 518.168 494.613C518.078 494.77 517.956 494.908 517.81 495.016C517.587 495.181 517.318 495.271 517.042 495.273ZM511.171 491.506L515.889 492.41L521.315 440.031C519.709 435.396 499.132 375.317 499.547 338.442C499.892 308.015 545.496 282.711 567.417 270.551C572.45 267.757 577.207 265.121 577.893 264.261C578.01 264.012 578.195 263.8 578.426 263.651C578.658 263.501 578.927 263.419 579.202 263.414H579.259C580.337 263.414 581.153 263.641 587.552 277.308C591.319 285.352 596.221 296.374 601.411 308.037C607.993 322.842 615.457 339.621 621.616 352.559C629.59 369.289 632.786 374.082 634.064 375.313C634.527 374.174 635.457 370.049 634.907 355.671C634.47 344.047 633.161 328.827 631.262 312.803C626.723 274.698 620.171 242.389 613.737 226.378C610.245 217.679 600.171 215.178 586.12 219.516C547.605 231.411 484.619 293.864 501.568 370.843C506.933 395.204 510.913 410.289 513.825 421.306C520.403 446.238 520.403 446.238 514.698 474.082C513.654 479.049 512.511 484.662 511.171 491.506Z" fill="#74B570"/>
<path d="M471.9 368.224L472.773 367.386C472.821 359.417 473.31 351.456 474.235 343.54C472.599 351.664 471.816 359.937 471.9 368.224Z" fill="#74B570"/>
<path d="M508.941 310.887C506.319 316.134 504.367 321.691 503.131 327.425C516.108 295.457 574.536 270.817 578.613 266.138L579.368 264.937C558.954 257.198 522.821 283.61 508.941 310.887Z" fill="#74B570"/>
<path d="M634.125 375.125C633.809 375.128 633.503 375.018 633.262 374.813C633.022 374.609 632.863 374.324 632.816 374.012L627.425 338.726C627.082 336.477 626.734 334.197 626.382 331.886C621.375 298.901 615.142 257.853 605.723 239.019C604.204 235.963 596.74 231.397 585.54 231.188C570.302 230.904 540.145 238.77 509.477 294.688C509.398 294.845 509.288 294.984 509.154 295.097C509.02 295.211 508.864 295.296 508.696 295.348C508.529 295.4 508.352 295.418 508.178 295.4C508.003 295.383 507.834 295.33 507.68 295.246C507.526 295.161 507.39 295.047 507.281 294.909C507.172 294.772 507.092 294.614 507.046 294.444C506.999 294.275 506.987 294.098 507.011 293.924C507.034 293.75 507.092 293.583 507.181 293.431C538.495 236.304 569.769 228.272 585.588 228.569C598.006 228.8 606.207 234.134 608.062 237.849C617.665 257.054 623.676 296.596 628.975 331.489C629.324 333.802 629.67 336.082 630.014 338.329L635.404 373.615C635.457 373.958 635.371 374.308 635.165 374.588C634.96 374.868 634.652 375.055 634.309 375.107C634.248 375.119 634.187 375.124 634.125 375.125Z" fill="#74B570"/>
<path d="M609.245 318.687C609.155 318.686 609.064 318.678 608.975 318.66C608.804 318.628 608.642 318.562 608.497 318.467C608.352 318.371 608.228 318.247 608.131 318.103C608.034 317.959 607.967 317.797 607.934 317.627C607.9 317.456 607.901 317.281 607.936 317.111C608.006 316.775 614.828 283.296 609.127 246.941C609.101 246.771 609.108 246.597 609.148 246.43C609.189 246.263 609.262 246.105 609.363 245.966C609.464 245.827 609.592 245.71 609.739 245.62C609.886 245.53 610.049 245.47 610.219 245.444C610.389 245.417 610.562 245.424 610.729 245.465C610.897 245.505 611.054 245.578 611.193 245.679C611.332 245.781 611.45 245.908 611.54 246.055C611.629 246.202 611.689 246.365 611.716 246.535C617.491 283.379 610.572 317.307 610.498 317.643C610.438 317.933 610.281 318.194 610.054 318.384C609.826 318.573 609.541 318.68 609.245 318.687Z" fill="#74B570"/>
<path d="M600.647 296.806C600.556 296.806 600.465 296.797 600.376 296.779C600.208 296.744 600.048 296.676 599.905 296.579C599.763 296.481 599.641 296.357 599.547 296.213C599.453 296.068 599.389 295.907 599.357 295.737C599.326 295.568 599.328 295.394 599.364 295.225C599.425 294.92 605.806 264.261 605.597 238.443C605.597 238.095 605.735 237.762 605.98 237.517C606.226 237.271 606.559 237.133 606.906 237.133C607.253 237.133 607.586 237.271 607.832 237.517C608.078 237.762 608.216 238.095 608.216 238.443C608.425 264.549 601.991 295.479 601.926 295.789C601.859 296.078 601.697 296.336 601.464 296.521C601.232 296.706 600.944 296.806 600.647 296.806Z" fill="#74B570"/>
<path d="M593.968 142.005C593.62 142.033 593.276 141.922 593.01 141.697C592.745 141.471 592.58 141.149 592.551 140.802C592.523 140.455 592.634 140.11 592.859 139.845C593.085 139.579 593.406 139.414 593.754 139.386C594.046 139.333 623.461 134.187 646.373 110.831C646.619 110.596 646.946 110.467 647.285 110.47C647.625 110.472 647.95 110.606 648.193 110.844C648.435 111.082 648.576 111.405 648.585 111.744C648.594 112.084 648.47 112.413 648.241 112.664C624.714 136.671 594.487 141.909 594.186 141.97C594.114 141.986 594.041 141.997 593.968 142.005Z" fill="#74B570"/>
<path d="M568.504 169.316C566.583 169.316 565.475 169.237 565.278 169.22C564.931 169.192 564.609 169.027 564.383 168.762C564.157 168.497 564.046 168.153 564.074 167.805C564.101 167.458 564.266 167.136 564.531 166.91C564.796 166.684 565.14 166.573 565.488 166.601C565.71 166.601 588.133 168.198 619.089 155.178C619.247 155.111 619.417 155.076 619.589 155.075C619.761 155.074 619.932 155.107 620.091 155.172C620.25 155.237 620.395 155.332 620.518 155.453C620.64 155.574 620.737 155.718 620.804 155.876C620.871 156.035 620.906 156.205 620.907 156.377C620.908 156.549 620.875 156.719 620.81 156.879C620.745 157.038 620.65 157.183 620.529 157.305C620.408 157.428 620.264 157.525 620.106 157.592C595.06 168.137 575.854 169.316 568.504 169.316Z" fill="#74B570"/>
<path d="M550.373 197.461C543.315 197.461 539.684 196.151 539.387 196.059C539.074 195.93 538.823 195.684 538.687 195.373C538.552 195.062 538.542 194.711 538.66 194.393C538.778 194.075 539.015 193.816 539.321 193.669C539.627 193.522 539.977 193.5 540.299 193.606C540.439 193.654 554.703 198.617 583.036 187.906C583.198 187.839 583.372 187.805 583.547 187.807C583.722 187.808 583.896 187.845 584.056 187.914C584.217 187.984 584.363 188.085 584.484 188.212C584.605 188.339 584.699 188.489 584.761 188.653C584.823 188.817 584.851 188.992 584.844 189.167C584.838 189.342 584.796 189.514 584.721 189.673C584.646 189.832 584.541 189.974 584.41 190.091C584.28 190.208 584.127 190.298 583.961 190.354C568.937 196.042 557.772 197.461 550.373 197.461Z" fill="#74B570"/>
<path d="M148.993 540.332C148.042 537.442 81.5948 452.759 84.7332 383.121C86.9156 334.365 72.4023 281.506 72.4023 281.506C72.4023 281.506 119.6 316.862 121.049 394.217C121.922 441.82 120.442 455.583 123.476 468.678C126.51 481.772 153.79 543.234 153.79 543.234L148.993 540.332Z" fill="#9CD499"/>
<path d="M153.791 544.544C153.552 544.545 153.317 544.478 153.114 544.352L148.313 541.467C148.061 541.316 147.868 541.086 147.763 540.812C147.558 540.376 146.248 538.516 144.734 536.343C137.946 526.604 122.036 503.807 108.068 475.609C90.5391 440.284 82.2501 409.154 83.4243 383.073C85.6067 335.09 71.2855 282.388 71.1415 281.86C71.0701 281.597 71.0825 281.319 71.177 281.063C71.2715 280.807 71.4434 280.588 71.6687 280.434C71.894 280.281 72.1616 280.202 72.434 280.208C72.7065 280.214 72.9702 280.305 73.1886 280.468C73.6775 280.834 85.3099 289.66 97.2828 308.159C108.304 325.182 121.604 353.942 122.359 394.204C122.66 410.306 122.691 422.436 122.713 432.179C122.756 451.192 122.778 459.865 124.751 468.407C127.719 481.227 154.716 542.113 154.991 542.728C155.104 542.983 155.133 543.268 155.074 543.54C155.014 543.812 154.869 544.059 154.659 544.243C154.416 544.445 154.107 544.552 153.791 544.544ZM149.993 539.402L150.914 539.965C144.873 526.247 124.817 480.289 122.198 468.97C120.159 460.162 120.137 451.393 120.094 432.179C120.072 422.441 120.041 410.324 119.74 394.243C118.998 354.649 105.973 326.408 95.1528 309.691C87.0471 297.142 78.9503 289.019 74.6901 285.173C77.9725 298.451 87.8721 342.48 86.0389 383.196C84.2318 423.314 104.703 474.335 146.886 534.841C148.828 537.613 149.622 538.783 149.993 539.402Z" fill="#74B570"/>
<path d="M454.204 562.549C505.033 461.991 558.656 421.79 630.301 406.522C701.946 391.253 710.371 381.345 710.371 381.345C710.371 381.345 656.089 459.651 612.357 472.571C568.625 485.491 516.408 483.828 502.174 495.334C487.94 506.84 461.812 557.752 461.812 557.752L452.981 564.666L454.204 562.549Z" fill="#9CD499"/>
<path d="M477.862 597.979C477.425 596.107 499.219 494.282 544.003 492.379C588.787 490.476 598.128 501.746 628.852 499.747C642.093 498.882 655.207 496.632 667.979 493.034C667.979 493.034 653.763 521.148 613.23 529.437C584.575 535.299 549.542 517.953 528.001 519.594C506.461 521.236 491.293 565.635 491.293 565.635L485.439 588.913L477.862 597.979Z" fill="#9CD499"/>
<path d="M456.98 557.743C456.793 557.742 456.609 557.702 456.438 557.626C456.28 557.555 456.138 557.453 456.019 557.326C455.901 557.2 455.809 557.051 455.748 556.889C455.688 556.726 455.66 556.553 455.667 556.38C455.674 556.207 455.715 556.037 455.788 555.88C455.862 555.714 463.483 538.97 477.7 518.381C490.829 499.367 512.444 473.056 540.86 455.714C568.926 438.586 592.287 432.694 614.88 426.997C635.901 421.698 655.753 416.692 676.573 402.737C676.863 402.544 677.217 402.473 677.558 402.541C677.9 402.609 678.2 402.81 678.393 403.099C678.587 403.389 678.657 403.743 678.589 404.085C678.521 404.426 678.32 404.726 678.031 404.92C656.835 419.127 636.765 424.186 615.521 429.546C593.116 435.195 569.952 441.035 542.222 457.958C514.221 475.05 492.868 501.039 479.887 519.834C465.792 540.236 458.245 556.801 458.171 556.967C458.069 557.197 457.902 557.393 457.69 557.531C457.479 557.669 457.232 557.743 456.98 557.743Z" fill="#74B570"/>
<path d="M483.795 568.686C483.63 568.686 483.467 568.653 483.315 568.59C482.992 568.463 482.733 568.212 482.595 567.894C482.456 567.575 482.45 567.215 482.577 566.892C497.946 527.975 513.472 505.88 531.464 497.359C547.549 489.73 563.005 493.981 579.365 498.486C583.359 499.586 587.492 500.72 591.586 501.659C627.265 509.791 645.532 502.676 645.711 502.606C645.872 502.533 646.046 502.493 646.223 502.489C646.4 502.485 646.575 502.517 646.739 502.582C646.904 502.648 647.053 502.746 647.178 502.871C647.303 502.996 647.402 503.145 647.468 503.309C647.534 503.473 647.566 503.648 647.562 503.825C647.559 504.002 647.519 504.176 647.446 504.337C647.374 504.498 647.269 504.643 647.139 504.762C647.009 504.882 646.856 504.974 646.689 505.033C645.921 505.343 627.483 512.523 591.001 504.212C586.842 503.261 582.682 502.117 578.658 501.008C562.778 496.644 547.78 492.51 532.573 499.725C515.244 507.944 500.133 529.594 485.022 567.857C484.925 568.103 484.756 568.313 484.537 568.461C484.318 568.61 484.059 568.688 483.795 568.686Z" fill="#74B570"/>
<path d="M644.799 442.654C644.65 442.656 644.503 442.633 644.362 442.584C615.99 432.955 589.565 436.517 589.303 436.557C588.963 436.599 588.619 436.505 588.346 436.297C588.074 436.088 587.894 435.78 587.846 435.44C587.798 435.1 587.885 434.755 588.089 434.479C588.293 434.203 588.598 434.018 588.937 433.964C589.203 433.924 616.209 430.267 645.205 440.105C645.5 440.205 645.749 440.408 645.908 440.675C646.068 440.943 646.126 441.259 646.074 441.566C646.021 441.873 645.861 442.151 645.621 442.351C645.382 442.55 645.08 442.658 644.768 442.654H644.799Z" fill="#74B570"/>
<path d="M535.064 462.17C534.776 462.169 534.496 462.073 534.268 461.898C534.04 461.722 533.876 461.475 533.802 461.197C533.728 460.919 533.748 460.623 533.858 460.357C533.969 460.091 534.164 459.869 534.414 459.725C561.441 444.287 580.922 447.604 622.406 456.57C622.746 456.643 623.042 456.849 623.231 457.141C623.419 457.433 623.483 457.788 623.41 458.128C623.336 458.468 623.131 458.764 622.839 458.953C622.546 459.141 622.191 459.205 621.852 459.132C581.049 450.31 561.904 447.041 535.71 462C535.513 462.11 535.291 462.169 535.064 462.17Z" fill="#74B570"/>
<path d="M187.51 58.2726H426.161C426.161 54.4083 425.401 50.5817 423.922 47.0113C422.444 43.4409 420.276 40.1968 417.544 37.464C414.812 34.7313 411.568 32.5636 407.998 31.0847C404.428 29.6057 400.601 28.8445 396.737 28.8445H216.938C213.073 28.8439 209.246 29.6047 205.676 31.0834C202.105 32.5621 198.861 34.7297 196.128 37.4625C193.395 40.1953 191.227 43.4396 189.749 47.0103C188.27 50.5809 187.509 54.4079 187.51 58.2726Z" fill="#93B1C2"/>
<path d="M499.05 44.0736H110.028V567.386H499.05V44.0736Z" fill="#BDCCD4"/>
<path d="M482.463 66.3915H126.619V545.072H482.463V66.3915Z" fill="white"/>
<path opacity="0.7" d="M455.151 164.724H159.499C157.178 164.724 155.296 166.606 155.296 168.927V169.215C155.296 171.537 157.178 173.419 159.499 173.419H455.151C457.473 173.419 459.355 171.537 459.355 169.215V168.927C459.355 166.606 457.473 164.724 455.151 164.724Z" fill="#9EC8FF"/>
<path opacity="0.7" d="M455.151 181.599H159.499C157.178 181.599 155.296 183.48 155.296 185.802V186.09C155.296 188.411 157.178 190.293 159.499 190.293H455.151C457.473 190.293 459.355 188.411 459.355 186.09V185.802C459.355 183.48 457.473 181.599 455.151 181.599Z" fill="#9EC8FF"/>
<path opacity="0.7" d="M392.454 229.66H159.53C158.407 229.66 157.33 229.214 156.536 228.42C155.742 227.626 155.296 226.549 155.296 225.426C155.296 224.303 155.742 223.226 156.536 222.432C157.33 221.638 158.407 221.192 159.53 221.192H392.454C393.577 221.192 394.654 221.638 395.448 222.432C396.242 223.226 396.688 224.303 396.688 225.426C396.688 226.549 396.242 227.626 395.448 228.42C394.654 229.214 393.577 229.66 392.454 229.66Z" fill="#9EC8FF"/>
<path opacity="0.7" d="M392.454 244.837H159.53C158.407 244.837 157.33 244.391 156.536 243.597C155.742 242.803 155.296 241.726 155.296 240.603C155.296 239.48 155.742 238.403 156.536 237.609C157.33 236.815 158.407 236.369 159.53 236.369H392.454C393.577 236.369 394.654 236.815 395.448 237.609C396.242 238.403 396.688 239.48 396.688 240.603C396.688 241.726 396.242 242.803 395.448 243.597C394.654 244.391 393.577 244.837 392.454 244.837Z" fill="#9EC8FF"/>
<path opacity="0.7" d="M392.455 288.739H159.531C158.431 288.704 157.388 288.242 156.622 287.452C155.857 286.661 155.429 285.604 155.429 284.503C155.429 283.403 155.857 282.345 156.622 281.555C157.388 280.764 158.431 280.302 159.531 280.267H392.455C393.023 280.249 393.588 280.345 394.118 280.55C394.648 280.754 395.131 281.063 395.54 281.459C395.948 281.854 396.272 282.327 396.494 282.85C396.715 283.373 396.829 283.935 396.829 284.503C396.829 285.071 396.715 285.633 396.494 286.156C396.272 286.68 395.948 287.153 395.54 287.548C395.131 287.943 394.648 288.252 394.118 288.457C393.588 288.661 393.023 288.758 392.455 288.739Z" fill="#9EC8FF"/>
<path opacity="0.7" d="M392.454 303.894H159.53C158.407 303.894 157.33 303.448 156.536 302.654C155.742 301.86 155.296 300.783 155.296 299.66C155.296 298.538 155.742 297.461 156.536 296.667C157.33 295.873 158.407 295.427 159.53 295.427H392.454C393.577 295.427 394.654 295.873 395.448 296.667C396.242 297.461 396.688 298.538 396.688 299.66C396.688 300.783 396.242 301.86 395.448 302.654C394.654 303.448 393.577 303.894 392.454 303.894Z" fill="#9EC8FF"/>
<path opacity="0.7" d="M392.455 358.237H159.531C158.431 358.202 157.388 357.74 156.622 356.95C155.857 356.159 155.429 355.102 155.429 354.001C155.429 352.901 155.857 351.843 156.622 351.053C157.388 350.262 158.431 349.8 159.531 349.765H392.455C393.023 349.747 393.588 349.843 394.118 350.048C394.648 350.252 395.131 350.561 395.54 350.956C395.948 351.352 396.272 351.825 396.494 352.348C396.715 352.871 396.829 353.433 396.829 354.001C396.829 354.569 396.715 355.131 396.494 355.654C396.272 356.177 395.948 356.651 395.54 357.046C395.131 357.441 394.648 357.75 394.118 357.955C393.588 358.159 393.023 358.255 392.455 358.237Z" fill="#9EC8FF"/>
<path opacity="0.7" d="M392.454 373.418H159.53C158.407 373.418 157.33 372.972 156.536 372.178C155.742 371.384 155.296 370.307 155.296 369.184C155.296 368.061 155.742 366.984 156.536 366.19C157.33 365.396 158.407 364.95 159.53 364.95H392.454C393.577 364.95 394.654 365.396 395.448 366.19C396.242 366.984 396.688 368.061 396.688 369.184C396.688 370.307 396.242 371.384 395.448 372.178C394.654 372.972 393.577 373.418 392.454 373.418Z" fill="#9EC8FF"/>
<path opacity="0.7" d="M392.455 412.519H159.531C158.431 412.484 157.388 412.022 156.622 411.231C155.857 410.441 155.429 409.383 155.429 408.283C155.429 407.182 155.857 406.125 156.622 405.334C157.388 404.544 158.431 404.082 159.531 404.047H392.455C393.023 404.028 393.588 404.124 394.118 404.329C394.648 404.534 395.131 404.843 395.54 405.238C395.948 405.633 396.272 406.106 396.494 406.629C396.715 407.152 396.829 407.715 396.829 408.283C396.829 408.851 396.715 409.413 396.494 409.936C396.272 410.459 395.948 410.932 395.54 411.327C395.131 411.723 394.648 412.032 394.118 412.236C393.588 412.441 393.023 412.537 392.455 412.519Z" fill="#9EC8FF"/>
<path opacity="0.7" d="M392.454 427.691H159.53C158.407 427.691 157.33 427.245 156.536 426.451C155.742 425.657 155.296 424.58 155.296 423.457C155.296 422.334 155.742 421.258 156.536 420.463C157.33 419.669 158.407 419.223 159.53 419.223H392.454C393.577 419.223 394.654 419.669 395.448 420.463C396.242 421.258 396.688 422.334 396.688 423.457C396.688 424.58 396.242 425.657 395.448 426.451C394.654 427.245 393.577 427.691 392.454 427.691Z" fill="#9EC8FF"/>
<path opacity="0.7" d="M464.636 503.811H231.708C230.608 503.775 229.565 503.314 228.799 502.523C228.034 501.732 227.605 500.675 227.605 499.575C227.605 498.474 228.034 497.417 228.799 496.626C229.565 495.835 230.608 495.374 231.708 495.338H464.636C465.736 495.374 466.779 495.835 467.545 496.626C468.31 497.417 468.738 498.474 468.738 499.575C468.738 500.675 468.31 501.732 467.545 502.523C466.779 503.314 465.736 503.775 464.636 503.811Z" fill="#9EC8FF"/>
<path opacity="0.7" d="M464.636 524.959H231.708C230.585 524.959 229.508 524.513 228.714 523.719C227.92 522.925 227.474 521.848 227.474 520.725C227.474 519.602 227.92 518.525 228.714 517.731C229.508 516.937 230.585 516.491 231.708 516.491H464.636C465.759 516.491 466.836 516.937 467.63 517.731C468.424 518.525 468.87 519.602 468.87 520.725C468.87 521.848 468.424 522.925 467.63 523.719C466.836 524.513 465.759 524.959 464.636 524.959Z" fill="#9EC8FF"/>
<g opacity="0.8">
<path d="M432.279 250.451H418.748C415.92 250.447 413.208 249.322 411.208 247.322C409.209 245.322 408.084 242.611 408.08 239.783V226.252C408.084 223.423 409.209 220.712 411.208 218.712C413.208 216.712 415.92 215.587 418.748 215.584H432.279C435.105 215.59 437.814 216.715 439.813 218.713C441.811 220.712 442.937 223.421 442.943 226.247V239.778C442.939 242.606 441.815 245.317 439.816 247.318C437.817 249.318 435.107 250.445 432.279 250.451ZM418.748 221.69C417.54 221.691 416.381 222.172 415.527 223.026C414.673 223.881 414.192 225.039 414.191 226.247V239.778C414.192 240.987 414.673 242.145 415.527 242.999C416.381 243.854 417.54 244.334 418.748 244.335H432.279C433.486 244.333 434.642 243.853 435.496 242.999C436.349 242.146 436.829 240.989 436.832 239.783V226.252C436.831 225.043 436.35 223.885 435.496 223.031C434.641 222.176 433.483 221.696 432.275 221.695L418.748 221.69Z" fill="#9EC8FF"/>
</g>
<g opacity="0.8">
<path d="M432.279 307.945H418.748C415.919 307.943 413.207 306.818 411.207 304.818C409.207 302.818 408.082 300.106 408.08 297.277V283.746C408.082 280.918 409.207 278.206 411.207 276.205C413.207 274.205 415.919 273.081 418.748 273.078H432.279C435.11 273.083 437.822 274.211 439.822 276.214C441.821 278.218 442.944 280.933 442.943 283.764V297.295C442.934 300.119 441.808 302.826 439.81 304.821C437.811 306.817 435.103 307.941 432.279 307.945ZM418.748 279.189C417.54 279.19 416.381 279.671 415.527 280.525C414.673 281.38 414.192 282.538 414.191 283.746V297.277C414.192 298.486 414.673 299.644 415.527 300.498C416.381 301.353 417.54 301.833 418.748 301.834H432.279C433.483 301.832 434.638 301.353 435.491 300.503C436.344 299.653 436.826 298.499 436.832 297.295V283.764C436.831 282.555 436.35 281.397 435.496 280.543C434.641 279.688 433.483 279.208 432.275 279.207L418.748 279.189Z" fill="#9EC8FF"/>
</g>
<path d="M426.357 242.402H426.231C425.85 242.384 425.478 242.283 425.14 242.107C424.802 241.931 424.507 241.683 424.275 241.38L414.572 228.687C414.353 228.415 414.191 228.102 414.095 227.767C413.998 227.431 413.97 227.08 414.012 226.733C414.053 226.386 414.164 226.052 414.337 225.748C414.51 225.445 414.741 225.179 415.018 224.967C415.296 224.754 415.612 224.6 415.95 224.511C416.288 224.423 416.64 224.403 416.985 224.453C417.331 224.503 417.663 224.621 417.962 224.801C418.261 224.981 418.521 225.219 418.727 225.501L426.584 235.732L448.155 212.62C448.389 212.365 448.671 212.159 448.985 212.014C449.299 211.869 449.638 211.787 449.984 211.774C450.33 211.76 450.675 211.816 450.999 211.936C451.323 212.057 451.62 212.241 451.873 212.477C452.125 212.713 452.329 212.996 452.471 213.312C452.614 213.627 452.693 213.967 452.703 214.313C452.713 214.658 452.655 215.003 452.531 215.326C452.408 215.649 452.222 215.944 451.983 216.195L428.299 241.568C428.051 241.834 427.751 242.046 427.416 242.189C427.082 242.333 426.721 242.405 426.357 242.402Z" fill="#F37168"/>
<path d="M426.357 299.913H426.231C425.85 299.895 425.477 299.794 425.139 299.617C424.802 299.44 424.507 299.191 424.275 298.888L414.572 286.203C414.353 285.931 414.191 285.618 414.095 285.283C413.998 284.947 413.97 284.596 414.012 284.249C414.053 283.902 414.164 283.568 414.337 283.264C414.51 282.961 414.741 282.695 415.018 282.483C415.296 282.271 415.612 282.116 415.95 282.027C416.288 281.939 416.64 281.919 416.985 281.969C417.331 282.019 417.663 282.137 417.962 282.317C418.261 282.497 418.521 282.735 418.727 283.017L426.584 293.248L448.155 270.114C448.389 269.859 448.671 269.653 448.985 269.508C449.299 269.363 449.638 269.281 449.984 269.268C450.33 269.255 450.675 269.31 450.999 269.431C451.323 269.551 451.62 269.735 451.873 269.971C452.125 270.207 452.329 270.491 452.471 270.806C452.614 271.121 452.693 271.461 452.703 271.807C452.713 272.153 452.655 272.497 452.531 272.82C452.408 273.143 452.222 273.438 451.983 273.689L428.299 299.062C428.053 299.332 427.753 299.547 427.418 299.693C427.084 299.84 426.722 299.915 426.357 299.913Z" fill="#F37168"/>
<path d="M432.279 375.719H418.748C416.035 375.715 413.435 374.636 411.517 372.718C409.599 370.8 408.52 368.2 408.517 365.487V351.956C408.52 349.244 409.599 346.643 411.517 344.725C413.435 342.807 416.035 341.728 418.748 341.725H432.279C434.992 341.728 437.592 342.807 439.51 344.725C441.428 346.643 442.507 349.244 442.51 351.956V365.487C442.507 368.2 441.428 370.8 439.51 372.718C437.592 374.636 434.992 375.715 432.279 375.719ZM418.748 346.958C417.424 346.961 416.156 347.487 415.22 348.423C414.284 349.359 413.757 350.628 413.754 351.952V365.483C413.756 366.807 414.282 368.076 415.218 369.012C416.155 369.949 417.424 370.475 418.748 370.476H432.279C433.603 370.475 434.873 369.949 435.809 369.012C436.745 368.076 437.271 366.807 437.273 365.483V351.952C437.27 350.628 436.743 349.359 435.807 348.423C434.871 347.487 433.603 346.961 432.279 346.958H418.748Z" fill="#9EC8FF"/>
<g opacity="0.8">
<path d="M432.279 433.654H418.748C415.919 433.651 413.207 432.527 411.207 430.527C409.207 428.526 408.082 425.814 408.08 422.986V409.455C408.082 406.626 409.207 403.914 411.207 401.914C413.207 399.914 415.919 398.789 418.748 398.787H432.279C435.107 398.79 437.819 399.915 439.819 401.915C441.818 403.915 442.943 406.626 442.947 409.455V422.986C442.943 425.814 441.818 428.525 439.819 430.525C437.819 432.525 435.107 433.65 432.279 433.654ZM418.748 404.898C417.54 404.899 416.381 405.379 415.527 406.234C414.673 407.088 414.192 408.246 414.191 409.455V422.986C414.192 424.194 414.673 425.353 415.527 426.207C416.381 427.061 417.54 427.542 418.748 427.543H432.279C433.487 427.542 434.646 427.061 435.5 426.207C436.354 425.353 436.835 424.194 436.836 422.986V409.455C436.835 408.246 436.354 407.088 435.5 406.234C434.646 405.379 433.487 404.899 432.279 404.898H418.748Z" fill="#9EC8FF"/>
</g>
<path d="M426.357 368.106H426.231C425.85 368.088 425.478 367.988 425.14 367.811C424.802 367.635 424.507 367.387 424.275 367.085L414.572 354.392C414.353 354.12 414.191 353.807 414.095 353.471C413.998 353.135 413.97 352.784 414.012 352.437C414.053 352.091 414.164 351.756 414.337 351.453C414.51 351.149 414.741 350.884 415.018 350.671C415.296 350.459 415.612 350.304 415.95 350.216C416.288 350.127 416.64 350.108 416.985 350.157C417.331 350.207 417.663 350.325 417.962 350.505C418.261 350.685 418.521 350.923 418.727 351.205L426.584 361.437L448.155 338.303C448.389 338.048 448.671 337.842 448.985 337.697C449.299 337.551 449.638 337.47 449.984 337.456C450.33 337.443 450.675 337.498 450.999 337.619C451.323 337.74 451.62 337.923 451.873 338.159C452.125 338.395 452.329 338.679 452.471 338.994C452.614 339.309 452.693 339.65 452.703 339.995C452.713 340.341 452.655 340.685 452.531 341.008C452.408 341.331 452.222 341.627 451.983 341.877L428.299 367.251C428.053 367.521 427.753 367.737 427.419 367.884C427.084 368.031 426.723 368.107 426.357 368.106Z" fill="#F37168"/>
<path d="M426.356 425.618H426.23C425.849 425.6 425.476 425.499 425.139 425.321C424.801 425.144 424.506 424.895 424.274 424.592L414.571 411.908C414.168 411.356 413.997 410.667 414.094 409.99C414.192 409.314 414.55 408.702 415.093 408.285C415.635 407.869 416.319 407.682 416.998 407.763C417.677 407.845 418.298 408.189 418.727 408.722L426.583 418.953L448.155 395.819C448.388 395.564 448.671 395.358 448.984 395.213C449.298 395.068 449.638 394.986 449.983 394.973C450.329 394.959 450.674 395.015 450.998 395.135C451.322 395.256 451.619 395.439 451.872 395.676C452.125 395.912 452.328 396.195 452.471 396.511C452.613 396.826 452.692 397.166 452.702 397.512C452.712 397.857 452.654 398.202 452.531 398.525C452.407 398.848 452.221 399.143 451.983 399.394L428.299 424.767C428.052 425.036 427.752 425.251 427.418 425.398C427.083 425.545 426.722 425.62 426.356 425.618Z" fill="#F37168"/>
<path d="M355.114 79.2809H253.971C242.943 79.2809 232.367 74.9002 224.569 67.1024C216.771 59.3047 212.391 48.7286 212.391 37.7009C212.391 35.3497 213.325 33.0949 214.987 31.4323C216.65 29.7698 218.905 28.8358 221.256 28.8358H387.825C390.173 28.8393 392.425 29.7748 394.085 31.437C395.744 33.0991 396.677 35.352 396.677 37.7009C396.677 48.7256 392.298 59.299 384.504 67.0963C376.71 74.8935 366.139 79.2763 355.114 79.2809Z" fill="#93B1C2"/>
<path d="M227.524 31.9874H386.66C388.251 31.9874 389.778 32.6198 390.904 33.7453C392.029 34.8708 392.661 36.3974 392.661 37.9892V38.2554C392.661 45.7176 389.697 52.8741 384.42 58.1507C379.144 63.4272 371.987 66.3916 364.525 66.3916H249.659C245.964 66.3916 242.305 65.6638 238.891 64.2498C235.478 62.8358 232.376 60.7633 229.763 58.1507C227.151 55.538 225.078 52.4363 223.664 49.0226C222.25 45.609 221.522 41.9503 221.522 38.2554V37.9892C221.522 36.3986 222.154 34.8731 223.279 33.7484C224.404 32.6237 225.929 31.9918 227.52 31.9918L227.524 31.9874Z" fill="#D6E7F0"/>
<path opacity="0.7" d="M465.827 87.6791H143.252V145.479H465.827V87.6791Z" fill="#9EC8FF"/>
<path d="M203.009 103.052V131.354H196.584V103.052H203.009Z" fill="white"/>
<path d="M208.548 131.354V103.052H216.025L221.904 113.423C223.653 116.554 225.195 119.795 226.522 123.126H226.649C226.247 119.211 226.065 115.277 226.103 111.341V103.052H231.983V131.354H225.261L219.216 120.442C217.403 117.2 215.763 113.863 214.305 110.446L214.179 110.49C214.344 114.226 214.427 118.216 214.427 122.834V131.358L208.548 131.354Z" fill="white"/>
<path d="M237.73 124.763C239.934 125.873 242.36 126.47 244.828 126.509C247.77 126.509 249.324 125.291 249.324 123.454C249.324 121.708 247.979 120.682 244.579 119.464C239.874 117.827 236.809 115.221 236.809 111.105C236.809 106.278 240.838 102.581 247.516 102.581C249.999 102.534 252.462 103.021 254.74 104.008L253.313 109.176C251.467 108.286 249.443 107.83 247.394 107.84C244.623 107.84 243.278 109.097 243.278 110.568C243.278 112.375 244.876 113.187 248.516 114.558C253.514 116.409 255.862 119.01 255.862 123C255.862 127.744 252.213 131.777 244.444 131.777C241.209 131.777 238.018 130.935 236.421 130.053L237.73 124.763Z" fill="white"/>
<path d="M266.601 103.052V119.346C266.601 124.217 268.452 126.697 271.725 126.697C275.086 126.697 276.933 124.344 276.933 119.346V103.052H283.319V118.945C283.319 127.675 278.906 131.834 271.533 131.834C264.397 131.834 260.185 127.906 260.185 118.862V103.052H266.601Z" fill="white"/>
<path d="M288.836 103.432C291.658 103.019 294.508 102.822 297.361 102.843C301.56 102.843 304.497 103.471 306.527 105.069C308.207 106.413 309.146 108.386 309.146 110.988C309.146 114.602 306.584 117.098 304.148 117.971V118.072C306.121 118.871 307.203 120.761 307.928 123.366C308.801 126.557 309.674 130.25 310.237 131.341H303.69C303.227 130.547 302.555 128.238 301.717 124.75C300.962 121.223 299.744 120.259 297.138 120.215H295.209V131.341H288.836V103.432ZM295.178 115.61H297.697C300.887 115.61 302.777 114.012 302.777 111.533C302.777 108.914 301.031 107.631 298.072 107.605C297.103 107.587 296.134 107.657 295.178 107.814V115.61Z" fill="white"/>
<path d="M320.727 124.091L318.715 131.354H312.08L320.727 103.052H329.108L337.881 131.354H330.993L328.811 124.091H320.727ZM327.912 119.29L326.166 113.288C325.664 111.607 325.162 109.508 324.738 107.827H324.655C324.219 109.508 323.817 111.647 323.346 113.288L321.665 119.29H327.912Z" fill="white"/>
<path d="M341.678 131.354V103.052H349.15L355.03 113.423C356.78 116.553 358.323 119.794 359.648 123.126H359.775C359.373 119.211 359.19 115.277 359.229 111.341V103.052H365.109V131.354H358.391L352.341 120.442C350.528 117.2 348.889 113.863 347.431 110.446L347.304 110.49C347.47 114.226 347.557 118.216 347.557 122.834V131.358L341.678 131.354Z" fill="white"/>
<path d="M391.437 130.56C390.259 131.145 387.614 131.778 384.17 131.778C374.388 131.778 369.329 125.689 369.329 117.627C369.329 107.967 376.217 102.59 384.785 102.59C388.103 102.59 390.621 103.262 391.769 103.851L390.46 108.932C388.756 108.228 386.929 107.872 385.086 107.884C380.006 107.884 376.06 110.94 376.06 117.247C376.06 122.921 379.416 126.483 385.13 126.483C386.946 126.48 388.748 126.169 390.46 125.562L391.437 130.56Z" fill="white"/>
<path d="M412.455 119.381H402.04V126.099H413.673V131.337H395.615V103.052H413.075V108.29H402.027V114.17H412.442L412.455 119.381Z" fill="white"/>
<path d="M382.271 36.7189H304.061C301.739 36.7189 299.857 38.6008 299.857 40.9223V41.9742C299.857 44.2957 301.739 46.1776 304.061 46.1776H382.271C384.593 46.1776 386.474 44.2957 386.474 41.9742V40.9223C386.474 38.6008 384.593 36.7189 382.271 36.7189Z" fill="#F2F2F2"/>
<path opacity="0.5" d="M628.931 598.211C509.507 573.641 410.332 584.745 375.998 582.65C341.664 580.555 142.685 578.433 100.643 592.807C58.6 607.18 130.145 626.801 213.135 617.687C296.125 608.573 347.172 610.428 479.293 620.013C611.414 629.599 645.255 601.567 628.931 598.211Z" fill="#BDCCD4"/>
<path d="M218.958 241.31C236.884 254.261 275.396 259.905 287.679 260.568C299.961 261.232 280.861 295.095 280.861 295.095C280.861 295.095 247.84 299.08 232.236 295.095C216.631 291.109 218.958 241.31 218.958 241.31Z" fill="#D54A41"/>
<path d="M188.196 577.063C188.418 585.915 193.464 591.183 201.696 597.311C210.33 603.741 210.771 604.444 198.82 606.041C186.869 607.639 183.543 602.2 175.581 599.874C167.62 597.547 172.705 591.908 172.259 586.596C171.814 581.283 171.063 572.654 171.063 572.654L188.196 577.063Z" fill="#303C60"/>
<path d="M257.911 572.637C261.772 576.987 265.913 581.081 270.307 584.893C277.387 591.004 295.314 593.086 286.684 595.369C278.055 597.652 268.382 596.421 259.495 597.7C250.608 598.979 242.861 597.739 242.197 595.369C241.534 592.999 242.197 576.164 242.197 576.164L257.911 572.637Z" fill="#303C60"/>
<path d="M282.371 185.291C293.479 174.741 313.903 188.19 315.828 197.129C320.782 220.128 322.977 243.907 316.949 253.253C310.921 262.598 257.242 268.482 257.897 265.169C258.551 261.856 258.7 241.21 267.591 231.123C276.482 221.035 272.44 211.276 274.069 201.948C276.028 190.726 280.594 186.994 282.371 185.291Z" fill="#58556E"/>
<path d="M259.426 252.511C255.642 279.307 252.006 329.769 241.037 342.052C230.068 354.335 223.983 383.632 223.983 383.632C223.983 383.632 259.387 364.296 273.879 316.758C278.427 301.847 267.331 267.024 264.642 263.702C261.954 260.381 259.426 252.511 259.426 252.511Z" fill="#7EC1D6"/>
<path d="M336.153 326.133C333.971 328.792 328.1 341.664 325.127 341.664C315.001 341.664 314.254 345.636 308.763 348.543C301.71 352.279 303.202 358.006 303.7 358.337C304.198 358.669 319.209 356.042 324.25 352.755C328.432 350.031 331.404 348.543 333.447 345.557C335.49 342.572 347.035 333.938 347.035 333.938L336.153 326.133Z" fill="#F09959"/>
<path d="M325.907 246.631C336.151 252.821 338.033 258.578 348.103 276.059C358.172 293.541 359.94 299.852 363.925 306.177C367.91 312.502 369.237 319.791 360.826 327.757C352.795 335.369 349.041 338.473 344.632 337.286C341.664 336.482 339.316 327.831 335.187 329.398C331.058 330.965 338.364 318.792 342.127 315.365C344.174 313.493 345.003 313.619 344.34 312.785C343.677 311.952 331.058 302.528 320.547 288.914C310.036 275.3 325.907 246.631 325.907 246.631Z" fill="#9BD6E8"/>
<path d="M358.06 312.026C353.075 309.787 346.847 310.105 342.272 310.974C343.451 311.96 344.193 312.576 344.341 312.768C345.005 313.641 344.175 313.475 342.128 315.348C341.228 316.21 340.403 317.147 339.662 318.15C343.154 316.299 346.965 314.658 350.094 314.182C358.06 313.021 358.562 315.177 362.709 317.836C366.855 320.494 366.196 315.675 358.06 312.026Z" fill="#7EC1D6"/>
<path d="M336.209 255.898C333.464 252.148 330.535 249.433 325.908 246.631C325.908 246.631 310.033 275.287 320.548 288.896C323.711 292.954 327.124 296.811 330.766 300.446C330.958 291.275 331.923 270.778 336.209 255.898Z" fill="#7EC1D6"/>
<path d="M286.925 237.164C273.202 240.263 262.128 244.309 259.295 252.266C257.921 256.129 265.882 319.883 273.848 326.963C289.226 340.634 314.573 327.836 314.573 327.836C314.573 327.836 326.083 299.176 330.648 251.062C331.836 246.723 304.389 238.203 299.963 237.317C295.537 236.431 286.925 237.164 286.925 237.164Z" fill="#9BD6E8"/>
<path d="M291.542 575.343C291.542 575.343 272.738 601.366 284.026 600.445C295.313 599.524 302.686 587.905 302.686 587.905C302.686 587.905 306.614 601.083 317.889 600.471C329.163 599.86 322.812 592.955 317.889 584.893C315.064 580.147 313.388 574.806 312.996 569.297L291.542 575.343Z" fill="#F09959"/>
<path d="M293.158 249.612C290.918 249.605 288.771 248.713 287.186 247.13C285.6 245.548 284.705 243.402 284.695 241.162V209.608C284.669 208.48 284.869 207.358 285.283 206.309C285.697 205.259 286.316 204.303 287.105 203.496C287.894 202.69 288.836 202.049 289.875 201.611C290.915 201.173 292.032 200.948 293.16 200.948C294.288 200.948 295.405 201.173 296.445 201.611C297.485 202.049 298.427 202.69 299.216 203.496C300.004 204.303 300.624 205.259 301.038 206.309C301.452 207.358 301.652 208.48 301.626 209.608V241.162C301.614 243.403 300.718 245.548 299.132 247.131C297.546 248.713 295.399 249.605 293.158 249.612Z" fill="#F09959"/>
<path d="M293.158 201.14C290.915 201.147 288.765 202.042 287.179 203.628C285.593 205.215 284.7 207.365 284.694 209.608V223.886C289.116 230.278 294.898 235.611 301.626 239.503V209.608C301.619 207.364 300.724 205.214 299.138 203.628C297.551 202.041 295.402 201.147 293.158 201.14Z" fill="#E38540"/>
<path d="M314.711 205.37C317.36 216.653 312.851 227.356 304.65 229.281C296.448 231.206 287.648 223.606 285.008 212.34C282.367 201.075 286.867 190.355 295.073 188.43C303.279 186.505 312.066 194.1 314.711 205.37Z" fill="#F09959"/>
<path d="M275.767 323.17C275.767 323.17 249.36 343.087 257.823 408.338C266.287 473.588 275.252 471.576 275.75 502.947C276.247 534.317 289.696 577.643 297.661 586.107C305.627 594.57 325.195 549.193 325.195 508.909C325.195 485.374 325.195 474.069 330.682 437.22C336.169 400.372 335.008 346.592 313.096 323.187C291.184 299.783 275.767 323.17 275.767 323.17Z" fill="#F09959"/>
<path d="M297.129 469.053C297.107 453.615 291.996 420.808 293.157 375.452L259.495 420.319C267.431 473.431 275.287 473.619 275.75 502.929C276.13 526.7 283.939 557.329 291.167 574.461C295.868 576.146 299.024 578.123 299.857 580.611C300.975 583.942 301.717 585.784 302.158 586.316C302.315 586.216 302.476 586.102 302.638 585.984C303.022 583.204 301.01 569.027 298.801 548.398C295.073 513.532 297.155 484.488 297.129 469.053Z" fill="#E38540"/>
<path d="M263.896 299.87C268.282 325.658 265.642 329.145 259.496 350.555C253.35 371.965 253.263 428.735 253.263 428.735C253.263 428.735 269.945 435.718 302.228 432.72C334.511 429.721 338.994 426.247 338.994 426.247C338.994 426.247 335.323 370.974 330.7 354.54C326.078 338.106 318.81 326.871 318.452 316.304C318.095 305.736 263.896 299.87 263.896 299.87Z" fill="#9BD6E8"/>
<path d="M284.025 600.445C295.312 599.524 302.685 587.905 302.685 587.905C302.685 587.905 306.613 601.082 317.888 600.471C327.582 599.943 324.256 594.797 320.005 588.223C319.621 589.699 318.42 591.074 315.234 590.952C308.564 590.694 302.301 582.593 302.301 582.593C302.301 582.593 290.668 591.558 286.351 590.921C282.034 590.284 288.451 579.904 288.455 579.895C283.649 587.298 275.766 601.122 284.025 600.445Z" fill="#3E6BAB"/>
<path d="M349.992 448.464C348.683 463.405 350.049 474.693 347.373 486.975C344.697 499.258 339.045 503.243 339.045 503.243L334.064 445.81L349.992 448.464Z" fill="#F09959"/>
<path d="M312.814 385.387C302.08 362.646 301.028 355.177 307.17 349.865C313.311 344.553 314.306 337.251 324.433 339.905C334.56 342.559 337.877 348.373 342.857 350.529C347.838 352.685 346.842 366.133 340.535 369.782C334.228 373.431 312.814 385.387 312.814 385.387Z" fill="#7A4E34"/>
<path d="M304.655 583.653C304.655 583.653 304.219 590.55 306.122 593.658C308.025 596.766 309.439 598.175 302.242 598.315C295.044 598.455 293.075 596.621 292.499 592.244C291.923 587.866 292.01 586.569 293.032 583.893C294.053 581.218 304.655 583.653 304.655 583.653Z" fill="#63ACC2"/>
<path d="M342.026 584.745C342.026 584.745 350.158 592.047 354.972 593.71C359.787 595.373 353.034 599.022 344.536 597.202C336.037 595.382 336.714 597.866 332.397 595.893C328.08 593.92 332.039 583.304 332.039 583.304L342.026 584.745Z" fill="#63ACC2"/>
<path d="M343.021 470.376C343.021 470.376 343.021 525.81 343.684 547.399C344.348 568.987 344.793 583.584 344.365 585.98C344.182 586.988 335.038 585.648 331.057 585.98C327.076 586.312 318.634 536.443 315.134 509.551C311.633 482.659 310.153 463.073 310.153 463.073L343.021 470.376Z" fill="#3E6BAB"/>
<path d="M315.135 509.551C316.785 522.209 319.527 539.957 322.381 555.168C326.31 537.831 334.057 507.028 343.058 489.223C343.023 478.255 343.023 470.376 343.023 470.376L322.386 465.788L310.565 467.993C311.22 475.43 312.682 490.694 315.135 509.551Z" fill="#2E5B9A"/>
<path d="M295.88 458.425C294.217 485.649 291.642 548.416 292.519 562.336C293.471 577.442 291.563 583.252 291.563 583.252C291.563 583.252 295.217 584.562 301.192 585.243L304.981 585.679C304.981 585.679 320.114 545.749 323.104 518.193C326.094 490.638 334.056 469.062 334.056 469.062L295.88 458.425Z" fill="#3E6BAB"/>
<path d="M339.138 400.668C351.989 417.923 353.315 451.786 353.315 451.786C353.315 451.786 348.078 455.771 343.058 453.776C338.038 451.781 339.138 400.668 339.138 400.668Z" fill="#EDC055"/>
<path d="M325.427 391.519C340.704 395.011 347.007 412.611 347.338 426.552C347.67 440.494 345.012 478.01 345.012 479.341C345.012 480.672 315.134 483.322 304.178 481L293.222 478.678C293.222 478.678 290.237 423.243 293.222 409.621C296.208 395.998 315.798 389.704 315.798 389.704L325.427 391.519Z" fill="#F5CE5C"/>
<path d="M320.132 429.215C319.303 424.156 326.073 423.322 329.08 423.741C332.088 424.16 332.799 427.473 334.056 427.888C335.313 428.303 337.064 426.364 338.639 427.499C340.215 428.634 338.391 431.864 336.4 432.039C334.41 432.213 333.244 430.241 331.835 431.14C330.425 432.039 331.005 432.619 330.756 432.619C330.508 432.619 325.519 433.2 325.519 433.2C325.519 433.2 323.336 431.79 321.865 431.956C320.394 432.122 320.935 433.702 320.935 433.702C320.935 433.702 318.465 433.536 319.045 431.794C319.323 430.901 319.687 430.037 320.132 429.215Z" fill="#EDC055"/>
<path d="M331.419 432.619C332.934 430.939 334.474 432.536 335.151 433.117C335.827 433.697 333.981 434.863 332.497 434.863C331.013 434.863 331.419 432.619 331.419 432.619Z" fill="#EDC055"/>
<path d="M321.624 433.697C321.458 432.454 323.946 432.702 324.68 433.697C325.413 434.693 323.017 435.692 322.27 435.443C321.524 435.195 321.624 433.697 321.624 433.697Z" fill="#EDC055"/>
<path d="M317.474 434.859C317.309 434.361 310.927 431.707 311.665 429.298C312.402 426.888 316.645 432.078 316.645 432.078C316.645 432.078 313.742 425.732 315.235 425.234C316.728 424.736 317.309 429.215 317.474 430.546C317.562 431.982 317.562 433.422 317.474 434.859Z" fill="#EDC055"/>
<path d="M335.291 424.156C335.291 424.156 335.728 418.761 337.561 419.839C339.394 420.917 336.426 424.156 336.426 424.156C336.426 424.156 340.215 421.166 341.131 422.846C342.048 424.527 335.291 425.216 335.291 425.216V424.156Z" fill="#EDC055"/>
<path d="M306.186 458.425C307.531 441.493 311.149 417.923 300.861 400.991L298.107 400.668C295.806 403.196 293.982 406.173 293.222 409.621C290.237 423.235 293.222 478.678 293.222 478.678L304.178 481C304.676 481.105 305.213 481.201 305.785 481.284C305.43 473.663 305.564 466.028 306.186 458.425Z" fill="#EDC055"/>
<path d="M320.945 400.991C318.789 400.984 316.724 400.125 315.201 398.6C313.677 397.076 312.818 395.01 312.813 392.855V377.919C312.788 376.834 312.979 375.756 313.377 374.748C313.774 373.739 314.37 372.819 315.127 372.044C315.885 371.268 316.79 370.652 317.79 370.231C318.789 369.811 319.862 369.594 320.947 369.594C322.031 369.594 323.104 369.811 324.104 370.231C325.103 370.652 326.008 371.268 326.766 372.044C327.524 372.819 328.119 373.739 328.517 374.748C328.914 375.756 329.106 376.834 329.081 377.919V392.855C330.259 400.668 326.191 401.664 320.945 400.991Z" fill="#F09959"/>
<path d="M329.08 393.497V373.767C329.077 372.712 328.656 371.7 327.909 370.953C327.162 370.207 326.151 369.786 325.095 369.782H316.797C315.742 369.786 314.731 370.207 313.985 370.954C313.239 371.7 312.819 372.712 312.816 373.767V386.426C319.259 392.266 325.147 393.532 329.08 393.497Z" fill="#E38540"/>
<path d="M342.058 367.744C343.538 378.429 338.13 388.01 329.941 389.132C321.752 390.254 313.944 382.519 312.481 371.829C311.019 361.14 316.41 351.559 324.598 350.441C332.787 349.324 340.578 357.046 342.058 367.744Z" fill="#FCA96A"/>
<path d="M297.815 400.991C282.931 407.63 281.604 455.771 280.941 463.073C280.277 470.376 283.931 495.273 285.921 501.921C287.912 508.568 293.547 513.824 293.843 505.557C294.14 497.29 291.897 492.955 291.897 492.955C291.897 492.955 294.887 499.262 295.882 495.945C296.877 492.628 291.565 487.652 291.565 484.658C291.565 481.663 295.882 464.073 295.882 458.429C295.882 452.785 304.175 434.527 304.175 419.581C304.175 404.636 297.815 400.991 297.815 400.991Z" fill="#FCA96A"/>
<path d="M302.829 396.447C289.228 401.986 285.082 417.923 280.848 433.195L276.609 448.472C276.609 448.472 298.87 456.329 300.18 455.395C301.489 454.461 306.487 426.892 306.155 415.605C305.824 404.317 302.829 396.447 302.829 396.447Z" fill="#F5CE5C"/>
<path d="M315.487 372.109C316.486 374.728 315.853 377.434 314.068 378.111C312.283 378.787 310.026 377.198 309.027 374.562C308.027 371.926 308.66 369.237 310.441 368.56C312.222 367.884 314.483 369.49 315.487 372.109Z" fill="#FCA96A"/>
<path d="M310.983 366.299C310.983 366.299 315.121 379.11 315.959 374.448C316.797 369.787 315.466 367.626 318.622 366.299C321.777 364.972 317.626 356.007 322.114 356.836C326.601 357.665 330.25 363.078 337.055 361.781C343.859 360.485 346.684 358.997 343.859 355.177C341.035 351.358 317.801 347.705 317.801 347.705L307.91 359.014L310.983 366.299Z" fill="#7A4E34"/>
<path d="M332.398 597.194C336.715 599.188 336.034 596.696 344.537 598.503C353.039 600.31 360.822 595.845 356.008 594.186L355.658 594.06C354.323 594.756 353.056 595.576 351.874 596.508C350.77 597.381 347.893 596.731 343.934 596.072C339.975 595.413 340.661 596.552 339.7 595.517C338.74 594.483 334.851 591.768 330.416 591.764C330.255 594.147 330.643 596.386 332.398 597.194Z" fill="#2E5B9A"/>
<path d="M292.148 586.364C295.688 593.579 293.999 594.867 296.985 595.365C299.97 595.862 300.987 593.536 304.178 594.649C307.369 595.762 306.937 595.758 307.67 596.644C308.403 597.53 308.063 598.608 306.731 598.953C305.4 599.297 298.543 599.389 295.889 598.953C293.235 598.516 291.463 593.558 291.572 591.781C291.681 590.005 292.148 586.364 292.148 586.364Z" fill="#2E5B9A"/>
<path d="M205.532 220.084C200.295 212.716 195.022 192.672 199.701 190.625C204.38 188.578 203.193 185.357 207.894 179.359C212.595 173.362 231.464 171.022 237.012 181.105C242.56 191.188 244.952 192.227 245.153 197.64C245.353 203.052 232.036 216.513 232.036 216.513L205.532 220.084Z" fill="#58556E"/>
<path d="M329.2 337.674C327.668 339.966 326.21 341.664 325.127 341.664C315.001 341.664 314.254 345.636 308.763 348.543C301.71 352.279 303.202 358.006 303.7 358.337C304.198 358.669 319.209 356.042 324.25 352.755C328.432 350.031 331.404 348.543 333.447 345.557C334.062 344.748 334.753 343.999 335.511 343.322C333.24 341.636 331.127 339.745 329.2 337.674Z" fill="#F09959"/>
<path d="M208.984 194.169C208.984 194.169 205.68 235.051 198.373 239.503C191.066 243.955 177.121 260.568 179.12 296.421C181.119 332.275 183.768 347.744 186.422 361.589C189.076 375.435 238.88 366.997 244.187 361.589C249.495 356.181 255.475 306.714 244.187 281.65C232.9 256.587 220.285 242.419 218.958 236.221C217.631 230.022 226.261 205.125 226.261 205.125L208.984 194.169Z" fill="#F09959"/>
<path d="M218.822 234.881C218.656 227.067 226.242 205.125 226.242 205.125L208.983 194.169C208.983 194.169 208.259 203.078 206.744 213.034C208.983 226.871 213.479 232.183 218.822 234.881Z" fill="#E38540"/>
<path d="M240.515 205.653C242.179 217.657 238.045 227.041 229.402 228.255C220.76 229.468 210.878 221.995 209.215 209.988C207.552 197.98 213.209 187.29 221.873 186.081C230.537 184.872 238.852 193.645 240.515 205.653Z" fill="#F09959"/>
<path d="M335.289 251.603C340.375 254.763 344.251 262.672 342.024 269.089C339.798 275.505 336.717 267.273 333.33 262.541C329.942 257.81 331.488 249.241 335.289 251.603Z" fill="#F09959"/>
<path d="M244.878 337.513C241.386 379.416 253.171 474.051 253.263 495.461C253.354 516.871 261.896 575.421 261.896 575.421C261.896 575.421 247.955 579.441 242.477 579.878C236.999 580.314 221.176 526.814 218.837 498.433C216.497 470.053 201.691 419.686 201.691 419.686L206.759 333.261L244.878 337.513Z" fill="#3E6BAB"/>
<path d="M244.878 337.513L206.759 333.261L201.691 419.686C201.691 419.686 216.497 470.057 218.837 498.442C218.867 498.809 218.902 499.184 218.937 499.568C219.221 455.819 231.94 436.827 245.38 390.511C244.223 370.175 243.752 351.083 244.878 337.513Z" fill="#2E5B9A"/>
<path d="M243.385 351.554C225.458 412.301 209.025 469.568 198.073 507.421C187.122 545.273 190.408 584.169 190.408 584.169L171.984 585.64C171.984 585.64 151.264 523.256 165.205 489.494C179.147 455.731 172.517 435.369 175.166 403.846C178.152 368.263 183.176 342.257 183.176 342.257L243.385 351.554Z" fill="#3E6BAB"/>
<path d="M244.189 281.651C238.131 268.185 231.688 257.875 226.813 250.223C224.171 249.855 221.509 249.644 218.842 249.59C213.705 249.49 204.761 242.895 199.427 238.565C199.126 238.922 198.771 239.232 198.375 239.481C191.09 243.968 177.123 260.568 179.122 296.421C181.121 332.275 173.587 344.518 176.25 358.364C178.912 372.209 238.886 366.997 244.194 361.589C249.501 356.181 255.477 306.714 244.189 281.651Z" fill="#F37168"/>
<path d="M197.491 230.909L192.096 245.13L226.26 259.019L230.188 255.632C230.188 255.632 224.915 247.954 226.26 243.305C227.604 238.657 229.136 237.33 226.26 236.221C223.383 235.112 213.165 233.344 206.757 230.909C200.35 228.473 198.599 227.98 197.491 230.909Z" fill="#F37168"/>
<path d="M250.289 310.673C249.608 300.001 247.77 289.599 244.178 281.651C242.869 278.722 241.524 275.95 240.189 273.314L235.88 271.441C235.88 271.441 211.978 252.358 196.374 255.919C180.769 259.481 180.106 317.604 189.071 323.977C198.037 330.35 224.924 314.173 233.227 312.768C238.622 311.873 245.867 311.096 250.289 310.673Z" fill="#D54A41"/>
<path d="M310.879 286.788C301.128 286.788 291.145 285.955 282.869 283.419C257.99 275.784 211.364 256.697 202.197 257.945C195.017 258.927 186.597 266.819 187.597 291.389C188.596 315.959 201.207 310.974 216.964 306.945C232.721 302.917 253.983 305.378 282.874 306.945C292.669 307.474 303.389 305.893 313.288 303.576C312.747 297.949 311.927 292.371 310.879 286.788Z" fill="#F37168"/>
<path d="M346.736 288.591C345.047 287.674 330.682 288.425 316.95 288.076C317.801 292.877 320.006 300.808 320.538 305.653C335.261 301.362 347.016 300.939 347.016 300.939C347.016 300.939 349.796 290.254 346.736 288.591Z" fill="#F09959"/>
<path d="M303.411 285.705C312.215 285.845 326.811 284.75 328.819 286.081C330.827 287.412 334.38 303.056 327.344 305.055C301.626 312.358 272.739 307.107 238.212 304.754C203.686 302.401 277.318 281.651 277.318 281.651C277.318 281.651 296.082 285.592 303.411 285.705Z" fill="#F37168"/>
<path d="M205.531 220.084C211.393 217.185 208.482 211.555 208.992 207.818C209.503 204.082 207.875 201.096 209.272 201.345C210.668 201.594 210.359 215.68 212.126 215.588C213.894 215.496 213.235 204.964 215.099 204.676C216.963 204.388 217.718 201.76 216.234 197.146C214.75 192.532 215.941 188.416 219.891 192.092C223.842 195.767 232.62 204.235 237.74 203.065C242.86 201.895 242.567 196.627 242.131 196.042C241.694 195.457 228.525 180.682 228.525 180.682L202.48 195.601L201.751 209.206L205.531 220.084Z" fill="#58556E"/>
<path d="M210.208 204.108C210.557 207.644 210.675 213.008 210.985 213.781C208.663 214.728 205.695 212.825 204.35 209.534C203.006 206.243 203.133 201.922 205.494 201.049C206.948 200.507 209.798 199.988 210.208 204.108Z" fill="#F09959"/>
<path d="M313.306 196.164C309.613 208.115 289.029 208.281 288.033 211.598C287.038 214.916 287.728 225.3 284.716 233.51C279.915 246.631 276.807 253.484 270.107 255.479C263.407 257.473 260.587 246.365 260.587 246.365C260.587 246.365 272.595 230.524 273.245 230.215C273.895 229.905 280.229 189.377 280.229 189.377C280.229 189.377 296.318 186.426 297.147 185.994C297.977 185.562 309.596 190.708 309.596 190.708L313.306 196.164Z" fill="#58556E"/>
<path d="M331.458 289.219C334.02 289.219 347.132 281.878 349.625 281.651C352.117 281.424 361.908 284.086 361.908 284.086C361.908 284.086 343.016 298.731 342.667 298.543C342.318 298.355 331.458 289.219 331.458 289.219Z" fill="#F09959"/>
<path d="M386.47 301.834L372.201 300.442C372.201 300.442 364.558 307.211 357.592 308.787C350.626 310.363 344.978 302.899 344.978 302.899L355.789 290.241L374.855 288.089L389.299 289.569L386.47 301.834Z" fill="#E38540"/>
<path d="M338.993 299.87C338.993 299.87 347.797 306.963 355.27 307.98C362.743 308.997 366.889 305.361 369.543 302.903C372.197 300.446 363.899 297.927 360.914 294.999C357.928 292.07 360.084 287.229 360.084 287.229H347.033L338.993 299.87Z" fill="#F09959"/>
<path d="M386.469 288.076L372.034 286.491C372.034 286.491 366.059 281.214 363.069 281.651C360.079 282.087 352.432 288.076 352.432 288.076C352.432 288.076 345.884 294.187 348.171 294.863C350.459 295.54 357.093 293.597 357.923 292.074C358.752 290.551 356.264 292.602 363.732 292.074C371.201 291.546 372.026 290.228 372.026 290.228L386.46 291.38L386.469 288.076Z" fill="#E38540"/>
<path d="M343.256 303.58C345.141 300.673 347.773 298.949 352.422 301.524C357.071 304.099 358.441 307.722 357.581 308.792C356.721 309.861 347.944 307.011 344.652 306.02C342.112 305.252 343.256 303.58 343.256 303.58Z" fill="#E38540"/>
<path d="M521.968 215.902C524.478 206.461 531.344 183.676 520.419 178.678C509.493 173.68 504.033 166.352 493.108 170.097C482.182 173.842 484.378 182.428 480.449 187.12C476.521 191.812 483.103 207.098 489.345 212.559C495.587 218.019 521.968 215.902 521.968 215.902Z" fill="#58556E"/>
<path d="M386.34 286.889L377.144 286.491L373.193 304.326L388.649 307.238L386.34 286.889Z" fill="#F2E5DE"/>
<path d="M532.469 252.183C546.908 272.476 538.113 287.975 520.103 301.144C502.094 314.313 459.697 318.407 441.771 319.202C423.844 319.996 379.025 306.234 379.025 306.234L381.788 286.491C381.788 286.491 424.228 290.542 440.662 287.726C457.096 284.911 515.359 252.183 515.359 252.183H532.469Z" fill="#58556E"/>
<path d="M498.815 261.24C493.669 263.995 487.728 267.12 481.6 270.236C475.65 285.723 473.979 301.603 445.105 312.139C438.942 314.393 432.614 316.169 426.179 317.452C432.211 318.678 437.698 319.403 441.788 319.224C454.782 318.648 483.987 320.311 504.088 314.069C503.468 298.595 499.304 274.16 498.815 261.24Z" fill="#3A384D"/>
<path d="M515.69 196.587L526.646 232.17L504.07 259.948L510.714 236.094L504.07 211.69L515.69 196.587Z" fill="#F09959"/>
<path d="M515.689 196.587L504.052 211.69L510.656 235.954C515.127 228.168 518.311 219.711 520.084 210.909L515.689 196.587Z" fill="#E38540"/>
<path d="M516.063 210.957C512.287 222.703 502.143 229.953 493.401 227.142C484.658 224.331 480.629 212.533 484.404 200.782C488.18 189.032 498.329 181.791 507.071 184.597C515.814 187.404 519.839 199.206 516.063 210.957Z" fill="#F09959"/>
<path d="M505.287 246.605C505.287 246.605 498.613 250.59 498.63 253.689C498.648 256.788 498.63 258.556 498.63 258.556C494.634 264.934 491.233 271.665 488.469 278.665C484.038 289.983 484.27 295.74 484.27 295.74L512.345 253.034L505.287 246.605Z" fill="#F37168"/>
<path d="M544.79 583.335C544.567 592.187 534.803 598.437 530.172 600.794C515.645 608.171 513.149 612.78 529.063 612.545C541.119 612.366 549.425 607.656 562.485 606.77C570.778 606.211 564.798 597.01 565.239 591.698C565.68 586.386 561.922 578.913 561.922 578.913L544.79 583.335Z" fill="#3A384D"/>
<path d="M475.068 578.909C475.068 578.909 472.14 582.947 465.055 589.058C457.971 595.168 433.008 595.369 446.286 601.637C454.357 605.448 469.224 602.689 478.111 603.968C486.998 605.247 494.745 604.007 495.409 601.637C496.072 599.267 493.589 583.082 493.589 583.082L475.068 578.909Z" fill="#3A384D"/>
<path d="M488.102 343.785C491.594 385.71 479.809 480.323 479.722 501.733C479.634 523.143 467.539 585.421 467.539 585.421C467.539 585.421 490.896 594.902 496.374 595.365C501.852 595.827 513.458 541.031 515.802 512.659C518.146 484.287 531.293 425.963 531.293 425.963L526.221 339.538L488.102 343.785Z" fill="#58556E"/>
<path d="M512.663 536.932C514.108 528.062 515.23 519.581 515.802 512.663C518.141 484.291 531.293 425.967 531.293 425.967L529.599 397.137L487.617 396.539C486.744 411.969 485.474 428.123 484.204 443.147C500.332 478.307 508.748 515.352 512.663 536.932Z" fill="#3A384D"/>
<path d="M489.6 357.827C505.837 445.81 517.792 480.795 528.748 518.638C539.704 556.482 537.225 595.365 537.225 595.365L567.6 599.245C567.6 599.245 579.473 530.371 567.797 495.758C560.63 474.527 565.37 445.758 562.72 414.212C559.735 378.63 557.142 342.248 557.142 342.248L489.6 357.827Z" fill="#58556E"/>
<path d="M552.747 388.542L500.25 411.214C500.486 412.296 500.019 417.648 500.25 418.713C525.964 420.856 542.231 418.42 563.292 423.514C562.812 417.338 561.83 402.794 561.42 396.539L552.747 388.542Z" fill="#3A384D"/>
<path d="M530.471 235.418C552.383 256.142 560.353 278.05 559.615 290.088C558.118 314.462 562.758 408.176 562.758 408.176C562.758 408.176 549.886 411.105 528.319 415.046C506.752 418.988 485.94 413.226 485.94 413.226C485.94 413.226 482.291 346.273 482.448 304.226C482.566 278.591 530.471 235.418 530.471 235.418Z" fill="#58556E"/>
<path d="M551.927 410.476C552.494 399.394 556.462 321.384 555.855 320.149C555.187 318.84 529.958 259.948 529.958 259.948C516.458 278.32 515.607 316.609 515.812 337.207C515.995 355.754 521.578 406.094 522.682 415.884C524.55 415.675 526.436 415.409 528.33 415.059C537.824 413.309 545.886 411.716 551.927 410.476Z" fill="#3A384D"/>
<path d="M528.748 229.787L524.541 221.594L504.069 238.194L502.852 260.935L528.748 229.787Z" fill="#F2E5DE"/>
<path d="M525.207 248.146C525.207 248.146 533.557 244.318 541.248 246.98C538.088 243.113 535.189 239.272 530.471 234.807C530.471 234.807 482.566 277.984 482.457 303.619C482.431 309.883 482.588 316.234 482.863 322.502C483.024 309.66 481.165 300.38 493.775 283.615C504.949 268.774 528.747 256.552 528.747 256.552L525.207 248.146Z" fill="#3A384D"/>
<path d="M528.972 227.749L534.991 239.255L520.102 249.927L524.101 256.566C524.101 256.566 506.148 267.984 498.632 273.829C486.034 283.624 481.608 306.806 481.608 306.806C481.608 306.806 483.376 283.624 498.632 264.401C512.582 246.836 528.972 227.749 528.972 227.749Z" fill="#58556E"/>
<path d="M508.36 409.363L572.222 417.111L567.897 459.385L507.159 453.156L508.36 409.363Z" fill="#BDCCD4"/>
<path d="M544.909 382.017L538.493 405.553L528.755 412.126L536.638 413.401C536.638 413.401 535.211 427.394 532.535 433.759C529.859 440.123 532.736 442.24 543.582 434.819C554.429 427.399 557.432 423.789 556.703 415.099C555.974 406.408 553.984 405.343 555.093 398.132C556.201 390.921 544.687 380.533 544.687 380.533L544.909 382.017Z" fill="#F09959"/>
<path d="M538.056 393.885L535.843 405.972L556.834 409.363L560.312 393.885H538.056Z" fill="#F2E5DE"/>
<path d="M543.84 252.183C551.753 255.435 561.823 284.278 576.546 335.666C580.108 348.089 560.313 404.278 560.313 404.278C560.313 404.278 535.022 402.668 534.708 398.604C534.529 396.277 545.83 351.677 544.337 347.386C542.844 343.095 534.123 329.992 526.646 300.747C519.169 271.502 529.422 246.26 543.84 252.183Z" fill="#58556E"/>
<path d="M485.029 183.052C477.172 202.694 494.195 200.686 501.38 194.597C508.564 188.508 509.472 193.772 509.324 200.996C509.188 207.779 511.899 202.821 511.275 210.468C510.651 218.115 510.162 218.465 512.667 215.846C515.173 213.227 515.963 203.515 515.963 203.515C515.963 203.515 515.374 216.042 518.953 216.898C522.532 217.753 521.969 215.924 521.969 215.924L522.776 194.894L506.997 177.26C506.997 177.26 486.757 177.413 486.731 178.037C486.705 178.661 485.029 183.052 485.029 183.052Z" fill="#58556E"/>
<path d="M515.963 203.493C518.39 198.189 523.746 200.686 522.319 206.928C521.95 208.675 521.051 210.266 519.745 211.484C518.439 212.701 516.789 213.487 515.021 213.733L515.963 203.493Z" fill="#F09959"/>
<path d="M88.6453 16.2257C120.793 16.2257 163.027 4.13052 176.074 0.145364C178.047 -0.456992 180.086 0.887404 180.086 2.79923V92.2142C180.086 161.306 90.042 217.316 90.042 217.316C90.042 217.316 0.00292969 161.306 0.00292969 92.2142V6.94588C0.00292969 5.11263 1.88857 3.77696 3.82222 4.23964C16.236 7.20341 56.5065 16.2257 88.6453 16.2257Z" fill="#93B1C2"/>
<path opacity="0.7" d="M90.0426 30.9353C114.163 30.9353 144.167 23.0261 159.204 16.7843C163.7 14.9248 168.785 17.9322 168.785 22.4586V94.2088C168.785 154.632 90.0426 203.624 90.0426 203.624C90.0426 203.624 11.2998 154.632 11.2998 94.2088V25.5752C11.2998 21.2365 16.0226 18.2334 20.4661 19.7437C35.3766 24.8332 65.6995 30.9353 90.0426 30.9353Z" fill="#9EC8FF"/>
<path d="M90.8751 50.4159V184.519C90.8751 184.519 28.252 144.615 28.252 97.2207V42.8472C28.252 39.6782 31.7046 37.4958 34.9346 38.6176C46.6325 42.6813 71.4121 50.4159 90.8751 50.4159Z" fill="#D6E7F0"/>
<path d="M90.874 50.4157V184.518C90.874 184.518 155.732 144.615 155.732 97.1987V42.7204C155.732 39.5864 152.345 37.3996 149.128 38.4646C136.989 42.4803 110.582 50.4157 90.874 50.4157Z" fill="#D6E7F0"/>
<mask id="mask0_2052_826" style="mask-type:luminance" maskUnits="userSpaceOnUse" x="0" y="0" width="181" height="218">
<path d="M88.6423 16.2257C120.79 16.2257 163.025 4.13052 176.071 0.145364C178.044 -0.456992 180.083 0.887404 180.083 2.79923V92.2142C180.083 161.306 90.0391 217.316 90.0391 217.316C90.0391 217.316 0 161.306 0 92.2142V6.94588C0 5.11263 1.88564 3.77696 3.81929 4.23964C16.2331 7.20341 56.5036 16.2257 88.6423 16.2257Z" fill="white"/>
</mask>
<g mask="url(#mask0_2052_826)">
<g style="mix-blend-mode:overlay">
<path d="M24.7867 91.3367C33.08 118.434 37.8028 161.206 40.0071 186.491C16.7858 164.846 -6.26083 139.307 -7.43062 125.963C-8.87977 109.272 -11.73 61.1447 -11.2324 27.6877C-1.63404 39.0976 16.022 62.7466 24.7867 91.3367Z" fill="url(#paint0_linear_2052_826)"/>
<path d="M68.2564 145.479C61.4515 113.881 41.8662 35.0208 -10.5693 10.5599C-9.80111 0.145245 -8.36506 -6.58106 -5.96 -6.72511C3.64277 -7.31 14.9915 -1.77967 14.9915 -1.77967C66.2049 -2.07212 91.2332 75.6231 93.5597 89.0102C95.8862 102.397 93.2672 220.599 88.3218 223.772C87.2437 224.462 82.1847 221.454 74.9085 216.059C74.7382 201.843 73.6732 170.651 68.2564 145.479Z" fill="url(#paint1_linear_2052_826)"/>
</g>
</g>
<defs>
<linearGradient id="paint0_linear_2052_826" x1="-84.3008" y1="-42.478" x2="121.927" y2="286.836" gradientUnits="userSpaceOnUse">
<stop stop-color="white"/>
<stop offset="1"/>
</linearGradient>
<linearGradient id="paint1_linear_2052_826" x1="-47.1166" y1="-65.7691" x2="159.116" y2="263.549" gradientUnits="userSpaceOnUse">
<stop stop-color="white"/>
<stop offset="1"/>
</linearGradient>
</defs>
</svg>
